<svg style="position: absolute; width: 0; height: 0;" width="0" height="0" version="1.1" xmlns="http://www.w3.org/2000/svg" xmlns:xlink="http://www.w3.org/1999/xlink" encoding="UTF-8" standalone="no">
	<defs>
		<symbol id="icon-icon_position" viewBox="0 0 1024 1024">
			<title>icon_position</title>
			<path class="path1" d="M512 57.786c121.322 0 235.383 47.244 321.173 133.034s133.034 199.851 133.034 321.173-47.244 235.383-133.034 321.173c-85.79 85.79-199.851 133.034-321.173 133.034s-235.383-47.244-321.173-133.034c-85.79-85.79-133.034-199.851-133.034-321.173s47.248-235.383 133.034-321.173c85.79-85.786 199.851-133.034 321.173-133.034zM512-0.014c-282.772 0-512.007 229.235-512.007 512.007s229.231 512.007 512.007 512.007 512.007-229.235 512.007-512.007c0-282.772-229.235-512.007-512.007-512.007v0z"></path>
			<path class="path2" d="M512 196.029c174.224 0 315.968 141.74 315.968 315.964s-141.74 315.968-315.968 315.968-315.968-141.744-315.968-315.968 141.744-315.964 315.968-315.964zM512 138.229c-206.426 0-373.768 167.342-373.768 373.764 0 206.426 167.342 373.768 373.768 373.768s373.768-167.342 373.768-373.768c0-206.426-167.342-373.764-373.768-373.764v0z"></path>
			<path class="path3" d="M512 375.516c75.256 0 136.48 61.225 136.48 136.48s-61.225 136.48-136.48 136.48-136.48-61.225-136.48-136.48 61.225-136.48 136.48-136.48zM512 281.591c-127.247 0-230.405 103.155-230.405 230.405s103.155 230.405 230.405 230.405 230.405-103.155 230.405-230.405c0-127.25-103.155-230.405-230.405-230.405v0z"></path>
		</symbol>
		<symbol id="icon-icon_bus" viewBox="-909 491 100 100">
			<title>icon_bus</title>
			<rect class="contrast-color" x="-901.5" y="498.5" width="85" height="85"/>
			<rect class="bus" x="-875" y="530" width="15" height="13"/>
			<rect class="bus" x="-893" y="530" width="15" height="13"/>
			<rect class="bus" x="-856" y="530" width="15" height="13"/>
			<path class="bus" d="M-809,497.2c0-3.4-2.8-6.2-6.2-6.2h-87.6c-3.4,0-6.2,2.8-6.2,6.2v87.6c0,3.4,2.8,6.2,6.2,6.2h87.6c3.4,0,6.2-2.8,6.2-6.2V497.2z M-876.6,562.5c-3.6,0-6.4-2.9-6.4-6.4c0-3.6,2.9-6.4,6.4-6.4c3.6,0,6.4,2.9,6.4,6.4C-870.1,559.6-873,562.5-876.6,562.5z M-839.8,562.4c-3.6,0-6.4-2.9-6.4-6.4c0-3.6,2.9-6.4,6.4-6.4c3.6,0,6.4,2.9,6.4,6.4C-833.4,559.5-836.2,562.4-839.8,562.4z M-820,555.2c0,0.9-0.1,1.8-0.9,1.8h-9.7c0,0,0-0.7,0-0.9c0-5.1-4.1-9.2-9.2-9.2c-5.1,0-9.2,4.2-9.2,9.3c0,0.3,0,0.9,0,0.9h-18.5c0,0,0-0.6,0-0.8c0-5.1-4.1-9.2-9.2-9.2c-5.1,0-9.2,4.2-9.2,9.3c0,0.2,0,0.8,0,0.8h-9.7c-0.9,0-1.6-0.9-1.6-1.8v-30c0-0.9,0.7-2.2,1.6-2.2h74.5c0.9,0,0.9,1.4,0.9,2.2v29.8H-820z"/>
			<rect class="bus" x="-838" y="530" width="15" height="13"/>
		</symbol>
		<symbol id="icon-icon_bus-withoutBox" viewBox="-909 491 100 100">
			<title>icon_bus-withoutBox</title>
			<path d="M-829.8,558c0,4.1-3.3,7.3-7.3,7.3c-4.1,0-7.3-3.3-7.3-7.3c0-4,3.3-7.3,7.3-7.3C-833.1,550.7-829.8,554-829.8,558"/>
			<path d="M-815.6,521.2h-84.9c-1,0-1.8,0.8-1.8,1.8v34.1c0,1,0.8,1.8,1.8,1.8h11c0-0.3,0-0.5,0-0.8c0-5.8,4.7-10.5,10.5-10.5c5.8,0,10.5,4.7,10.5,10.5c0,0.3,0,0.5,0,0.8h21.1c0-0.3,0-0.6,0-1c0-5.8,4.7-10.5,10.5-10.5c5.8,0,10.5,4.7,10.5,10.5c0,0.3,0,0.6,0,1h11.1c1,0,1.8-0.8,1.8-1.8V523C-813.8,522-814.6,521.2-815.6,521.2z M-880.7,543.4h-17.7v-14.7h17.7V543.4zM-859.7,543.4h-17.7v-14.7h17.7V543.4z M-838.7,543.4h-17.7v-14.7h17.7V543.4z M-817.8,543.4h-17.7v-14.7h17.7V543.4z"/>
			<path d="M-871.7,558.2c0,4.1-3.3,7.3-7.3,7.3c-4.1,0-7.3-3.3-7.3-7.3c0-4,3.3-7.3,7.3-7.3C-875,550.8-871.7,554.1-871.7,558.2"/>
		</symbol>
		<symbol id="icon-icon_ferry" viewBox="-909 491 100 100">
			<title>icon_ferry</title>
			<rect class="contrast-color" x="-905.5" y="498.5" width="94.1" height="85"/>
			<polygon class="ferry ferry-window" points="-855,533 -855,539 -837.5,539 -838.9,533 "/>
			<polygon class="ferry ferry-window" points="-887.4,539 -872,539 -872,533 -886.1,533 "/>
			<rect class="ferry ferry-window" x="-870" y="533" width="13" height="6"/>
			<path class="ferry" d="M-809,497.2c0-3.4-2.8-6.2-6.2-6.2h-87.7c-3.4,0-6.2,2.8-6.2,6.2v87.7c0,3.4,2.8,6.2,6.2,6.2h87.7c3.4,0,6.2-2.8,6.2-6.2V497.2z M-829.7,560.7c-0.1,0-0.2-0.1-0.2-0.1c-2.1-1.1-3.8-2-7.6-2s-5.6,0.9-7.7,2c-2.2,1.1-4.7,2.4-9.5,2.4s-7.3-1.3-9.5-2.4c-2.1-1.1-3.9-2-7.7-2s-5.6,0.9-7.6,2c-2.2,1.1-4.7,2.4-9.5,2.4s-7.3-1.3-9.5-2.4c-1.2-0.6-2.2-1.2-3.7-1.5l1.1-3.9c1.8,0.5,3.2,1.2,4.4,1.8c2.1,1.1,3.9,2,7.6,2c3.8,0,5.6-0.9,7.7-2c2.2-1.1,4.7-2.4,9.5-2.4s7.3,1.3,9.5,2.4c2.1,1.1,3.8,2,7.7,2c3.8,0,5.6-0.9,7.7-2c2.2-1.1,4.7-2.4,9.5-2.4s7.3,1.3,9.5,2.4c0.3,0.1,0.5,0.3,0.8,0.4L-829.7,560.7z M-815.3,540.6l-10,13.8c0,0-0.5-0.3-0.8-0.4c-2.4-1.2-5.6-2.9-11.4-2.9c-5.8,0-9.1,1.7-11.5,2.9c-1.9,1-2.9,1.5-5.7,1.5s-3.8-0.5-5.7-1.5c-2.4-1.2-5.6-2.9-11.5-2.9c-5.8,0-9.1,1.7-11.4,2.9c-1.9,1-2.9,1.5-5.7,1.5s-3.8-0.5-5.7-1.5c-1.4-0.7-3.1-1.6-5.3-2.2l3.2-11.6c0.2-0.6,0.8-1.2,1.5-1.2h4.1l2.6-10.9c0.1-0.8,0.7-1.1,1.4-1.1h30.3v-7.9c0-1.1,0.8-1.6,1.9-2l10.1-3.6c0.1,0,0.3,0,0.4,0c0.5,0,0.9,0.1,1.1,0.5l1.6,6h7c0.8,0,1.3,0.5,1.4,1.4l4.4,17.7l13.1,0.1c0.5,0,0.8,0.4,0.8,0.9C-815.2,540.3-815.3,540.6-815.3,540.6z"/>
		</symbol>
		<symbol id="icon-icon_ferry-withoutBox" viewBox="-909 491 100 100">
			<title>icon_ferry-withoutBox</title>
			<path d="M-823.6,563.5c-2.5-1.3-5.4-2.8-10.9-2.8c-5.5,0-8.4,1.5-10.9,2.8c-2.4,1.2-4.4,2.3-8.8,2.3c-4.4,0-6.4-1.1-8.8-2.3c-2.5-1.3-5.4-2.8-10.9-2.8c-5.5,0-8.4,1.5-10.9,2.8c-2.4,1.2-4.4,2.3-8.8,2.3c-4.4,0-6.4-1.1-8.8-2.3c-1.4-0.7-3-1.5-5.1-2.1l-1.3,4.4c1.6,0.4,2.9,1.1,4.2,1.8c2.6,1.3,5.4,2.8,10.9,2.8c5.5,0,8.4-1.5,10.9-2.8c2.4-1.2,4.4-2.3,8.8-2.3c4.4,0,6.4,1.1,8.8,2.3c2.5,1.3,5.4,2.8,10.9,2.8c5.5,0,8.4-1.5,10.9-2.8c2.4-1.2,4.4-2.3,8.8-2.3c4.4,0,6.4,1.1,8.8,2.3c0.1,0,0.2,0.1,0.3,0.1l2.7-3.8C-823,563.8-823.3,563.7-823.6,563.5z"/>
			<path d="M-809.7,543.1l-15,0l-5-20.3c-0.2-1-0.7-1.3-1.7-1.3h-8l-1.8-7.2c-0.2-0.5-0.6-0.9-1.2-0.9c-0.1,0-0.2,0-0.3,0.1l-11.3,4.1c-1.2,0.5-1.6,1-1.6,2.3v8.8h-35.9c-0.8,0-1.5,0.6-1.6,1.5l-2.9,12.8h-4.7c-0.8,0-1.5,0.5-1.7,1.3l-3.7,13.1c2.6,0.7,4.6,1.7,6.1,2.5c2.2,1.1,3.4,1.7,6.5,1.7c3.2,0,4.4-0.6,6.5-1.7c2.7-1.4,6.5-3.3,13.2-3.3c6.7,0,10.4,1.9,13.2,3.3c2.2,1.1,3.4,1.7,6.5,1.7c3.2,0,4.4-0.6,6.5-1.7c2.7-1.4,6.5-3.3,13.2-3.3c6.7,0,10.4,1.9,13.2,3.3c0.4,0.2,1,0.5,1,0.5l11.4-15.8c0,0,0.2-0.3,0.2-0.6C-808.8,543.5-809.2,543.1-809.7,543.1z M-875.5,543.1h-16.3l1.5-6.8h14.8V543.1z M-855.8,543.1h-16.4v-6.8h16.4V543.1z M-852.5,543.1v-6.8h16.4l1.7,6.8H-852.5z"/>
		</symbol>
		<symbol id="icon-icon_ferry-live" viewBox="0 0 1024 1024">
			<title>icon_ferry-live</title>
			<path fill="rgb(0, 185, 228)" class="path1 fill-color11" d="M1024.007 512c0 282.774-229.233 512.007-512.007 512.007s-512.007-229.233-512.007-512.007c0-282.774 229.233-512.007 512.007-512.007s512.007 229.233 512.007 512.007z"></path>
			<path fill="rgb(0, 139, 171)" class="path2 fill-color7" d="M512 36.118c127.113 0 246.618 49.499 336.501 139.381s139.381 209.388 139.381 336.501-49.502 246.618-139.381 336.501c-89.883 89.883-209.388 139.381-336.501 139.381s-246.618-49.502-336.501-139.381c-89.883-89.883-139.381-209.388-139.381-336.501s49.499-246.618 139.381-336.501c89.883-89.883 209.388-139.381 336.501-139.381zM512-0.007c-282.776 0-512.007 229.231-512.007 512.007s229.231 512.007 512.007 512.007 512.007-229.235 512.007-512.007-229.231-512.007-512.007-512.007v0z"></path>
			<path fill="rgb(255, 255, 255)" class="path3 fill-color14" d="M780.236 782.497c10.624 0 19.32 7.727 19.32 18.355 0 10.624-8.695 18.355-19.32 18.355h-539.068c-9.66 0-18.355-7.727-18.355-18.355s8.695-18.355 18.355-18.355h539.068zM723.237 752.553h-427.97l-21.252-183.555c0 0 77.286-20.288 129.454-31.88 46.37-9.66 101.435-16.426 105.301-16.426s59.895 6.763 105.301 16.426c52.168 11.593 129.454 31.88 129.454 31.88l-20.288 183.555zM321.35 519.727v-134.284c0-17.387-4.83-40.576 40.572-40.576h84.048v-126.553c0.968-6.763 5.798-12.561 12.557-13.525h100.471c6.763 0.968 12.557 6.763 12.557 13.525v126.553h84.048c45.406 0 40.572 23.185 40.572 40.576v134.284c-26.082-6.763-46.37-11.593-82.116-19.323-46.37-9.66-102.404-16.422-105.301-17.391-2.901 0.968-58.931 7.727-105.301 17.391l-82.109 19.323zM377.384 415.394c0 20.288 15.458 35.746 35.746 35.746 20.284 0 35.742-15.458 35.742-35.746s-15.458-35.746-35.742-35.746c-20.288 0-35.746 15.458-35.746 35.746zM473.025 415.394c0 20.288 16.426 35.746 35.746 35.746 20.284 0 35.742-15.458 35.742-35.746s-15.458-35.746-35.742-35.746c-19.323 0-35.746 15.458-35.746 35.746zM568.666 415.394c0 20.288 16.426 35.746 35.742 35.746 20.288 0 35.746-15.458 35.746-35.746s-15.458-35.746-35.746-35.746c-19.32 0-35.742 15.458-35.742 35.746z"></path>
		</symbol>
		<symbol id="icon-icon_rail" viewBox="-909 491 100 100">
			<title>icon_rail</title>
			<rect class="contrast-color" x="-905.5" y="498.5" width="94.1" height="85"/>
			<polygon class="rail" points="-848,530 -848,537 -828.8,537 -836,530 	"/>
			<path class="rail" d="M-809,497.2c0-3.4-2.8-6.2-6.2-6.2h-87.6c-3.4,0-6.2,2.8-6.2,6.2v87.6c0,3.4,2.8,6.2,6.2,6.2h87.6c3.4,0,6.2-2.8,6.2-6.2
				V497.2z M-828,567h-72v-4h72V567z M-819.2,554.9c-1.8,1.8-4.4,3-7.2,3h-4.8h-0.2H-900V525h23.3l17.8-9.1l-19.5-10v0.1h8.8l17.5,9
				c1.2,0.6,1.2,1.6,0,2.2l-15.6,7.8h32.3c0.5,0,1.1,0.3,1.5,0.6l14.7,14.8c1.9,1.8,3,4.4,3,7.3C-816.2,550.5-817.3,553.1-819.2,554.9
				z"/>
			</symbol>
			<symbol id="icon-icon_rail-withoutBox" viewBox="-909 491 100 100">
				<title>icon_rail-withoutBox</title>
				<path d="M-814.6,540.3l-16.8-16.8c-0.4-0.4-1.1-0.7-1.7-0.7h-36.8l17.8-9c1.4-0.7,1.4-1.9,0-2.6l-19.9-10.4h-10.1l0,0.1l22.3,11.6l-20.3,10.4h-26.4v37.5l78.1,0c0,0,0.1,0,0.1,0l5.5,0c3.2,0,6.1-1.3,8.3-3.4c2.1-2.1,3.4-5.1,3.4-8.3C-811.2,545.4-812.5,542.4-814.6,540.3 M-846.5,536v-8.3h12.7l8.3,8.3H-846.5z"/>
				<rect x="-906.5" y="566" width="81.3" height="4.7"/>
			</symbol>
			<symbol id="icon-icon_rail-live" viewBox="0 0 1024 1024">
				<title>icon_rail-live</title>
				<path fill="rgb(140, 71, 153)" class="path1 fill-color10" d="M1024.007 512c0 282.774-229.233 512.007-512.007 512.007s-512.007-229.233-512.007-512.007c0-282.774 229.233-512.007 512.007-512.007s512.007 229.233 512.007 512.007z"></path>
				<path fill="rgb(105, 53, 115)" class="path2 fill-color6" d="M512 36.118c127.113 0 246.618 49.499 336.501 139.381s139.381 209.388 139.381 336.501-49.502 246.618-139.381 336.501c-89.883 89.883-209.388 139.381-336.501 139.381s-246.618-49.502-336.501-139.381c-89.879-89.883-139.381-209.388-139.381-336.501s49.502-246.618 139.381-336.501c89.883-89.883 209.388-139.381 336.501-139.381zM512-0.007c-282.776 0-512.007 229.231-512.007 512.007s229.235 512.007 512.007 512.007 512.007-229.235 512.007-512.007c0-282.776-229.231-512.007-512.007-512.007v0z"></path>
				<path fill="rgb(255, 255, 255)" class="path3 fill-color14" d="M767.588 388.232v257.344c0 20.479-6.232 28.495-33.838 50.756-19.591 16.029-28.492 23.153-59.66 23.153h-57.88v38.289h-205.696v-38.289h-58.772c-31.165 0-40.070-7.124-60.553-23.153-27.607-21.372-34.727-30.276-34.727-50.756v-257.344c0-16.029 10.686-43.632 24.041-73.016 16.029-33.838 29.388-60.553 42.743-72.127 18.698-17.81 105.073-38.289 188.779-38.289 86.375 0 170.969 20.479 190.56 38.289 13.355 11.574 25.822 38.289 41.854 72.127 12.463 29.384 23.149 56.991 23.149 73.016zM720.394 784.491c9.797 0 16.917 8.013 16.917 16.917 0 9.793-7.124 17.81-16.917 17.81h-414.957c-9.797 0-17.81-8.016-17.81-17.81 0-8.905 8.013-16.917 17.81-16.917h40.959v-37.4h33.838v37.4h265.356v-37.4h32.95v37.4h41.854zM700.804 380.22c3.562-15.136-7.124-26.714-22.26-26.714h-332.144c-15.136 0-24.933 11.578-22.26 26.714l41.851 177.2c2.67 15.136 17.81 26.714 32.946 26.714h227.96c15.14 0 30.276-11.578 32.95-26.714l40.959-177.2zM377.564 274.254v15.136c0 11.578 9.797 21.372 21.372 21.372h227.96c11.578 0 20.483-9.797 20.483-21.372v-15.136h-269.814zM422.088 650.030c0-12.467-10.686-22.26-23.153-22.26s-21.372 9.797-21.372 22.26 8.905 21.372 21.372 21.372c12.467 0 23.153-8.905 23.153-21.372zM649.156 647.357c0-12.467-9.793-22.26-22.26-22.26s-22.26 9.797-22.26 22.26 9.793 21.372 22.26 21.372c12.467 0 22.26-8.905 22.26-21.372z"></path>
			</symbol>
			<symbol id="icon-icon_subway" viewBox="-909 491 100 100">
				<title>icon_subway</title>
				<rect class="contrast-color" x="-905.5" y="498.5" width="94.1" height="85"/>
				<path class="subway" d="M-859.1,507.7c-18.4,0-33.3,14.9-33.3,33.3c0,18.4,14.9,33.3,33.3,33.3s33.3-14.9,33.3-33.3C-825.8,522.6-840.7,507.7-859.1,507.7z M-844,530h-11v34h-8v-34h-11v-6h30V530z"/>
				<path class="subway" d="M-809,497.2c0-3.4-2.8-6.2-6.2-6.2h-87.6c-3.4,0-6.2,2.8-6.2,6.2v87.6c0,3.4,2.8,6.2,6.2,6.2h87.6c3.4,0,6.2-2.8,6.2-6.2V497.2z M-859.1,579.3c-21.1,0-38.3-17.2-38.3-38.3s17.2-38.3,38.3-38.3s38.3,17.2,38.3,38.3S-837.9,579.3-859.1,579.3z"/>
			</symbol>
			<symbol id="icon-icon_subway-withoutBox" viewBox="-909 491 100 100">
				<title>icon_subway-withoutBox</title>
				<polygon points="-863.2,566.8 -855.1,566.8 -855.1,529 -842.2,529 -842.2,522.2 -876,522.2 -876,529 -863.2,529 	"/>
				<path d="M-859.1,497.3c-24.1,0-43.7,19.6-43.7,43.7c0,24.1,19.6,43.7,43.7,43.7s43.7-19.6,43.7-43.7C-815.4,516.9-835,497.3-859.1,497.3z M-859.1,503c20.9,0,38,17,38,38s-17,38-38,38s-38-17-38-38S-880,503-859.1,503z"/>
			</symbol>
			<symbol id="icon-icon_subway-live" viewBox="0 0 1024 1024">
				<title>icon_subway-live</title>
				<path fill="rgb(255, 99, 25)" class="path1 fill-color13" d="M1024.007 512c0 282.774-229.233 512.007-512.007 512.007s-512.007-229.233-512.007-512.007c0-282.774 229.233-512.007 512.007-512.007s512.007 229.233 512.007 512.007z"></path>
				<path fill="rgb(191, 74, 19)" class="path2 fill-color9" d="M512 36.118c127.113 0 246.618 49.499 336.501 139.381s139.381 209.388 139.381 336.501-49.502 246.618-139.381 336.501c-89.883 89.883-209.388 139.381-336.501 139.381s-246.618-49.499-336.501-139.381c-89.883-89.883-139.381-209.388-139.381-336.501s49.499-246.618 139.381-336.501c89.883-89.883 209.388-139.381 336.501-139.381zM512-0.007c-282.776 0-512.007 229.231-512.007 512.007s229.231 512.007 512.007 512.007 512.007-229.235 512.007-512.007-229.231-512.007-512.007-512.007v0z"></path>
				<path fill="rgb(255, 255, 255)" class="path3 fill-color14" d="M792.991 297.056v387.846c0 27.704-17.81 47.494-43.534 51.449-64.313 11.874-142.473 20.776-237.457 20.776-93.994 0-172.157-9.891-236.467-20.776-27.701-3.956-44.524-25.725-44.524-53.429v-387.842c0-28.694 17.81-48.48 44.524-51.449 64.313-11.874 142.473-20.776 236.467-20.776 94.98 0 173.144 9.895 237.457 20.776 26.714 2.966 43.534 24.735 43.534 53.425zM320.057 653.242c0-12.864-11.871-24.735-24.735-24.735-13.85 0-25.725 11.874-26.711 24.735 0 13.85 11.871 25.725 26.711 26.714 12.864 0 24.735-11.871 24.735-26.714zM732.637 585.962c12.864 0 19.789-8.905 19.789-22.755v-250.318c0-12.864-8.905-23.745-21.765-23.745h-438.309c-11.874 0-19.789 9.895-19.789 23.745v250.318c0 12.864 9.895 22.755 22.755 22.755h437.319zM620.834 795.719c9.895 0 19.789 10.884 19.789 21.765 0 9.895-9.895 19.789-19.789 19.789h-213.712c-9.895 0-19.789-9.895-19.789-19.789 0-10.884 9.895-21.765 19.789-21.765h213.712zM755.396 653.242c0-12.864-10.884-24.735-24.735-24.735-12.864 0-24.735 11.874-25.725 24.735 0 13.85 10.884 25.725 25.725 26.714 13.85 0 24.735-11.871 24.735-26.714z"></path>
			</symbol>
			<symbol id="icon-icon_tram" viewBox="-909 491 100 100">
				<title>icon_tram</title>
				<rect class="contrast-color" x="-900.9" y="498.5" width="85" height="85"/>
				<rect class="tram" x="-877" y="530" width="16" height="14"/>
				<rect class="tram" x="-858" y="530" width="16" height="14"/>
				<polygon class="tram" points="-895.5,544 -880,544 -880,530 -892.7,530 "/>
				<polygon class="tram" points="-839,530 -839,544 -823.4,544 -826.2,530 "/>
				<path class="tram" d="M-809,497.2c0-3.4-2.8-6.2-6.2-6.2h-87.6c-3.4,0-6.2,2.8-6.2,6.2v87.6c0,3.4,2.8,6.2,6.2,6.2h87.6c3.4,0,6.2-2.8,6.2-6.2V497.2z M-821,567h-77v-4h77V567z M-820.3,552.3l-3.1,4.7H-834v1c0,1.6-1.2,3-2.8,3h-8.9c-1.6,0-2.3-1.5-2.3-3v-1h-22v1c0,1.6-1.7,3-3.3,3h-8.9c-1.6,0-2.8-1.5-2.8-3v-1h-10.6l-3.1-4.7c-1-1.5-1.5-4.3-1.1-6.1l0.2-1l0,0l2.9-13.1l1.5-7.3c0.2-0.8,0.9-1.8,1.7-1.8h29.5l9.3-7.7l-12.2-9.3h6.2l10.3,8.1c0.4,0.4,0.7,0.8,0.7,1.4c0,0.6-0.2,0.7-0.7,1.1l-7.7,6.4h32.4c0.8,0,1.6,1.1,1.7,1.9l0.4,2.1l0,0l2.7,12.2l1.6,7C-818.8,548-819.3,550.8-820.3,552.3z"/>
			</symbol>
			<symbol id="icon-icon_tram-withoutBox" viewBox="-909 491 100 100">
				<title>icon_tram-withoutBox</title>
				<path d="M-813.6,546.9l-1.8-8l-3.1-14h0l-0.4-1.9c-0.2-0.9-1.1-1.6-2-1.6h-37l8.8-7.7c0.5-0.4,0.8-1.1,0.7-1.7c0-0.7-0.3-1.3-0.8-1.7l-11.7-9.4h-7.1l14,11.3l-10.6,9.3h-33.6c-0.9,0-1.8,0.7-2,1.6l-1.7,7.9l-3.3,14.9l0,0l-0.3,1.2c-0.5,2.1,0.1,5.2,1.3,6.9l3.5,5.3h12v1.3c0,1.8,1.5,3.2,3.2,3.2h10.2c1.8,0,3.2-1.5,3.2-3.2v-1.3h25v1.3c0,1.8,1.5,3.2,3.2,3.2h10.2c1.8,0,3.2-1.5,3.2-3.2v-1.3h12l3.5-5.3C-813.7,552.1-813.1,548.9-813.6,546.9 M-882.5,543.6h-18.1l3.3-14.7h14.9V543.6zM-861.1,543.6h-18.1v-14.7h18.1V543.6z M-839.7,543.6h-18.1v-14.7h18.1V543.6z M-836.5,543.6v-14.7h14.8l3.3,14.7H-836.5z"/>
			</symbol>
			<symbol id="icon-icon_tram-live" viewBox="0 0 1024 1024">
				<title>icon_tram-live</title>
				<path fill="rgb(0, 152, 95)" class="path1 fill-color5" d="M1024.007 512c0 282.774-229.233 512.007-512.007 512.007s-512.007-229.233-512.007-512.007c0-282.774 229.233-512.007 512.007-512.007s512.007 229.233 512.007 512.007z"></path>
				<path fill="rgb(0, 114, 71)" class="path2 fill-color3" d="M512 36.118c127.113 0 246.618 49.499 336.501 139.381s139.381 209.388 139.381 336.501-49.502 246.618-139.381 336.501c-89.883 89.883-209.388 139.381-336.501 139.381s-246.618-49.499-336.501-139.381c-89.883-89.883-139.381-209.388-139.381-336.501s49.499-246.618 139.381-336.501c89.883-89.883 209.388-139.381 336.501-139.381zM512-0.007c-282.776 0-512.007 229.231-512.007 512.007s229.235 512.007 512.007 512.007 512.007-229.235 512.007-512.007c0-282.776-229.231-512.007-512.007-512.007v0z"></path>
				<path fill="rgb(255, 255, 255)" class="path3 fill-color14" d="M694.323 312.543c5.195 12.467 8.309 30.128 8.309 43.632v373.995c0 18.698-13.504 30.128-31.165 33.242-58.176 11.426-108.039 15.581-159.983 15.581-54.021 0-102.848-4.154-158.947-15.581-18.702-3.118-31.165-14.544-31.165-33.242v-373.992c0-13.507 0-31.165 5.195-43.632l17.658-42.595c6.235-12.467 13.507-17.662 28.051-21.816 41.555-11.426 75.837-15.584 118.432-16.621v-36.363h-75.837c-12.467 0-21.816-9.349-21.816-19.739 0-12.467 9.349-21.816 21.816-21.816h195.306c10.39 0 18.702 9.349 18.702 21.816 0 10.39-8.312 19.739-18.702 19.739h-76.878v36.36c41.555 1.037 73.76 5.195 118.432 16.621 12.467 3.118 19.739 9.349 24.933 21.816l17.658 42.595zM655.882 829.904c9.353 0 19.742 9.349 19.742 18.698 0 13.507-10.39 21.816-19.742 21.816h-287.765c-11.43 0-18.702-8.312-18.702-21.816 0-9.349 7.272-18.698 18.702-18.698h31.165v-31.165l38.437 5.195v25.97h148.561v-25.97l38.441-5.195v31.165h31.161zM407.595 669.917c0-14.544-10.39-25.97-24.933-25.97-13.504 0-23.893 11.43-23.893 25.97 0 13.507 10.39 22.856 23.893 22.856 14.544 0 24.933-9.353 24.933-22.856zM359.805 600.311c41.555 10.39 97.653 18.702 151.678 18.702 55.058 0 111.16-7.272 150.634-18.702v-252.445h-302.312v252.445zM669.39 669.917c0-14.544-11.43-25.97-25.97-25.97-13.504 0-22.856 11.43-22.856 25.97 0 13.507 9.353 22.856 22.856 22.856 14.544 0 25.97-9.353 25.97-22.856z"></path>
			</symbol>
			<symbol id="icon-icon_airplane" viewBox="-909 491 100 100">
				<title>icon_airplane</title>
				<rect class="contrast-color" x="-900.3" y="498.6" width="85" height="85"/>
				<path class="airplane" d="M-809,497.2c0-3.4-2.8-6.2-6.2-6.2h-87.6c-3.4,0-6.2,2.8-6.2,6.2v87.6c0,3.4,2.8,6.2,6.2,6.2h87.6c3.4,0,6.2-2.8,6.2-6.2V497.2z M-824.8,545H-846l-18.8,30h-8.2l9.4-30h-14.7l-5.3,7h-7.1l3.5-11l-3.5-11h7.1l5.3,6.6h14.7L-873,506h8.2l18.8,30.6h21.2c1.9,0,3.5,2.2,3.5,4.2C-821.2,542.8-822.8,545-824.8,545z"/>
			</symbol>
			<symbol id="icon-icon_airplane-withoutBox" viewBox="-909 491 100 100">
				<title>icon_airplane-withoutBox</title>
				<path class="path1" d="M-864.2,536l-10.7-34.9h9.4l21.4,34.9l24.1,0c2.2,0,4,2.5,4,4.7s-1.8,4.7-4,4.7h-24.1l-21.4,34.8h-9.4l10.7-34.8H-881l-6,7.4h-8l4-12.1l-4-12.1h8l6,7.4L-864.2,536z"/>
			</symbol>
			<symbol id="icon-icon_bus-stop" viewBox="0 0 1024 1024">
				<title>icon_bus-stop</title>
				<path class="path1" d="M56.882-0.007c31.422 0 56.89 25.468 56.89 56.89v967.128h-113.779v-967.128c0-31.422 25.468-56.89 56.89-56.89z"></path>
				<path class="path2" d="M199.107 199.107h142.224v85.335h-142.224v-85.335z"></path>
				<path class="path3" d="M199.107 312.886h654.231v28.445h-654.231v-28.445z"></path>
				<path class="path4" d="M369.776 199.107h142.224v85.335h-142.224v-85.335z"></path>
				<path class="path5" d="M540.445 199.107h142.224v85.335h-142.224v-85.335z"></path>
				<path class="path6" d="M967.118 56.882h-910.235v512.007h910.235c31.422 0 56.89-25.468 56.89-56.89v-398.228c0-31.422-25.468-56.89-56.89-56.89zM881.783 398.221c0 15.711-12.734 28.445-28.445 28.445h-59.371c1.579 4.454 2.482 9.226 2.482 14.222 0 23.564-19.103 42.667-42.667 42.667s-42.667-19.103-42.667-42.667c0-4.996 0.903-9.768 2.482-14.222h-374.747c1.579 4.454 2.482 9.226 2.482 14.222 0 23.564-19.103 42.667-42.667 42.667s-42.667-19.103-42.667-42.667c0-4.996 0.903-9.768 2.482-14.222h-59.371c-15.711 0-28.445-12.734-28.445-28.445v-199.114c0-15.711 12.734-28.445 28.445-28.445h654.231c15.711 0 28.445 12.734 28.445 28.445v199.114z"></path>
				<path class="path7" d="M711.114 199.107h142.224v85.335h-142.224v-85.335z"></path>
			</symbol>
			<symbol id="icon-icon_mapMarker-location" viewBox="0 0 1024 1024">
				<title>icon_mapMarker-location</title>
				<path fill="rgb(255, 255, 255)" class="path1 fill-color14" d="M512 43.343c125.184 0 242.872 48.751 331.393 137.268s137.268 206.209 137.268 331.389c0 125.184-48.751 242.876-137.268 331.393s-206.209 137.268-331.393 137.268-242.872-48.751-331.393-137.268c-88.517-88.517-137.268-206.209-137.268-331.393s48.751-242.872 137.268-331.389 206.209-137.268 331.393-137.268zM512-0.007c-282.772 0-512.007 229.231-512.007 512.007s229.235 512.007 512.007 512.007 512.007-229.231 512.007-512.007c0-282.776-229.235-512.007-512.007-512.007v0z"></path>
				<path fill="rgb(255, 255, 255)" class="path2 fill-color14" d="M512 253.749c142.401 0 258.251 115.849 258.251 258.251s-115.849 258.251-258.251 258.251-258.251-115.849-258.251-258.251c0-142.401 115.849-258.251 258.251-258.251zM512 170.662c-188.515 0-341.338 152.823-341.338 341.338s152.823 341.338 341.338 341.338 341.338-152.823 341.338-341.338c0-188.515-152.823-341.338-341.338-341.338v0z"></path>
				<path fill="rgb(255, 255, 255)" class="path3 fill-color14" d="M512 341.331c94.257 0 170.669 76.412 170.669 170.669s-76.412 170.669-170.669 170.669-170.669-76.412-170.669-170.669c0-94.257 76.412-170.669 170.669-170.669z"></path>
				<path fill="rgb(0, 185, 228)" class="path4 fill-color11" d="M512 426.665c47.129 0 85.335 38.206 85.335 85.335s-38.206 85.335-85.335 85.335c-47.129 0-85.335-38.206-85.335-85.335s38.206-85.335 85.335-85.335z"></path>
			</symbol>
			<symbol id="icon-icon_lift" viewBox="0 0 100 100" enable-background="new 0 0 100 100">
				<path d="M94.72,0.058C94.805,0.043,94.977,0.015,95.062,0c0.244,0.93,0.547,1.844,0.809,2.769l-0.046,0.1  c-10.728,3.187-21.462,6.352-32.188,9.545c0.147,0.57,0.333,1.13,0.469,1.704c-3.791,1.064-7.576,2.151-11.358,3.243  c0.001,11.393-0.001,22.787,0,34.179c5.075,0.002,10.149,0,15.224,0c0.002,1.115,0,2.229,0,3.342c3.139,0.002,6.277,0,9.416,0    c2.066,0.062,3.892,1.887,3.952,3.953C81.34,71.218,81.336,83.6,81.34,95.982c-0.023,2.092-1.871,3.962-3.963,4.018    c-17.41-0.001-34.82,0-52.23-0.001c-2.05-0.055-3.862-1.846-3.962-3.89c0-12.424,0-24.85,0-37.273    c0.061-2.066,1.886-3.892,3.951-3.953c3.139,0,6.278,0.002,9.417,0c0.002-1.113-0.002-2.227,0-3.342c5.075,0,10.149,0,15.224,0    c-0.004-11.109,0.007-22.219-0.005-33.329c-3.021,0.848-6.038,1.714-9.053,2.584c-0.213-0.463-0.288-0.973-0.461-1.451    c-10.481,3.083-33.56,9.991-34.653,10.215c-0.248-0.929-0.546-1.844-0.808-2.769l0.047-0.099    c10.476-3.109,33.559-9.902,34.591-10.284c-0.137-0.455-0.278-0.907-0.376-1.372c7.797-2.215,15.593-4.435,23.38-6.684    c0.164,0.357,0.246,0.746,0.346,1.126C63.09,9.46,84.371,3.129,94.72,0.058z M27.869,61.567c0,6.684,0,13.367,0,20.051    c4.456,0,8.912,0,13.368,0c0-6.684,0-13.367,0-20.051C36.78,61.567,32.325,61.567,27.869,61.567z M44.578,61.567    c0,6.684,0,13.367,0,20.051c4.456,0,8.912,0,13.367,0c0-6.684,0-13.367,0-20.051C53.49,61.567,49.034,61.567,44.578,61.567z     M61.287,61.567c0,6.684,0,13.367,0,20.051c4.456,0,8.912,0,13.367,0c0-6.684,0-13.367,0-20.051    C70.199,61.567,65.743,61.567,61.287,61.567z"/>
				<path fill="#000000" d="M53.297,2.492c0.998-0.24,2.104,0.021,2.893,0.678c0.787,0.65,1.256,1.671,1.211,2.693   c-0.011,1.161-0.692,2.286-1.713,2.838c-1.412,0.824-3.402,0.411-4.342-0.935c-0.98-1.267-0.839-3.235,0.303-4.358   C52.09,2.947,52.673,2.629,53.297,2.492z"></path>
				<path fill="#000000" d="M44.01,4.954c1.198-0.261,2.52,0.203,3.284,1.165c1.098,1.289,0.975,3.4-0.274,4.545  c-1.239,1.265-3.499,1.243-4.713-0.047c-1.24-1.176-1.302-3.312-0.161-4.577C42.624,5.483,43.29,5.093,44.01,4.954z"/>
			</symbol>
			<symbol id="icon-icon_no-information" viewBox="0 0 24 24" enable-background="new 0 0 24 24">
				<circle fill-opacity="0" cx="12" cy="12" r="12"/>
				<path opacity="0.1" d="M12,2c5.514,0,10,4.486,10,10s-4.486,10-10,10S2,17.514,2,12S6.486,2,12,2 M12,0C5.373,0,0,5.373,0,12
					s5.373,12,12,12s12-5.373,12-12S18.627,0,12,0L12,0z"/>
				<path d="M11.542,14.736c-0.414,0-0.72-0.306-0.774-0.72l-0.18-1.548c-0.072-0.486,0.216-0.846,0.702-0.9
					c1.692-0.162,2.629-0.81,2.629-1.945V9.586c0-1.008-0.774-1.71-2.07-1.71c-0.955,0-1.729,0.342-2.449,0.99
					C9.22,9.01,8.985,9.118,8.733,9.118c-0.559,0-1.009-0.45-1.009-0.99c0-0.27,0.108-0.558,0.36-0.774
					c0.954-0.9,2.161-1.494,3.817-1.494c2.521,0,4.231,1.404,4.231,3.655V9.55c0,2.269-1.639,3.295-3.638,3.637l-0.071,0.828
					c-0.072,0.396-0.36,0.72-0.774,0.72H11.542z M11.542,16.05c0.738,0,1.278,0.54,1.278,1.242v0.18c0,0.702-0.54,1.242-1.278,1.242
					s-1.278-0.54-1.278-1.242v-0.18C10.264,16.59,10.804,16.05,11.542,16.05z"/>
			</symbol>
			<symbol id="icon-icon_arrow-forward" height="18px" width="18px" viewBox="0 0 97.285 97.285" style="enable-background:new 0 0 97.285 97.285;">
				<g>
					<path d="M83.952,34.479L50.056,0.585c-0.781-0.781-2.047-0.781-2.828,0L13.333,34.479c-0.781,0.781-0.781,2.047,0,2.828l9.03,9.031   c0.375,0.375,0.883,0.586,1.414,0.586c0.53,0,1.039-0.211,1.414-0.586l14.534-14.532v63.478c0,1.104,0.896,2,2,2H55.56   c1.104,0,2-0.896,2-2V31.807l14.532,14.532c0.75,0.75,2.078,0.75,2.828,0l9.031-9.031c0.375-0.375,0.586-0.884,0.586-1.414   C84.538,35.364,84.327,34.854,83.952,34.479z" fill="#3d4a59"/>
				</g>
			</symbol>
	</defs>
</svg>
