<svg style="position: absolute; width: 0; height: 0;" width="0" height="0" version="1.1" xmlns="http://www.w3.org/2000/svg" xmlns:xlink="http://www.w3.org/1999/xlink" encoding="UTF-8" standalone="no">
	<defs>
		<symbol id="icon-icon_citybike-withoutBox" viewBox="-909 491 100 100">
			<title>icon_citybike</title>
			<polygon class="citybike-city" points="-823,532 -823,543 -833,543 -833,498 -851,498 -851,532 -858,532 -858,508.2 -885,517 -885,543 -895,543 -895,532 -909,532 -909,544.1 -909,580 -902.7,580 -896.5,580 -889.9,580 -885.9,580 -878.9,580 -878.6,580 -871.4,580 -859.9,580 -850.6,580 -845.7,580 -839.1,580 -838.1,580 -831.9,580 -827.8,580 -820.6,580 -814.1,580 -809,580 -809,580 -809,532 "/>
			<path class="contrast-color" d="M-812.8,565.1c0-0.2,0-0.4-0.1-0.6c-0.8-9.7-8.1-17.7-18.2-17.7c-1.3,0-2.6,0.2-3.9,0.4c-1.8-5-3.6-9.9-5.4-14.9c0,0,0,0,0,0c-0.1-0.9-0.8-1.8-2-1.8c-2.1,0-4.2,0-6.2,0c-2.7,0-2.7,4.2,0,4.2c1.6,0,3.1,0,4.7,0c0.5,1.3,1,2.7,1.5,4l-28.4,0c-0.2-0.4-0.4-0.8-0.6-1.3c0.8,0,1.6,0,2.4,0c2.7,0,2.7-4.2,0-4.2c-3.5,0-7,0-10.5,0c-2.7,0-2.7,4.2,0,4.2c1.1,0,2.3,0,3.4,0c0.5,1.1,1,2.2,1.5,3.3c-1.2,2.5-2.4,4.9-3.6,7.4c-2.1-0.8-4.3-1.3-6.7-1.3c-9.9,0-18.3,8.3-18.3,18.3c0,9.6,7.8,17.8,17.4,18.2c10.1,0.5,17.7-7,19-16.5c1.3,0,2.7,0,4,0c0.2,0.5,0.5,1,0.7,1.5c-2.3,0.4-2.2,4.2,0.4,4.2c1.7,0,3.5,0,5.2,0c2.7,0,2.7-4.2,0-4.2c-0.3,0-0.7,0-1,0c-0.5-1.1-1-2.1-1.5-3.2c6.1-7,12.3-14,18.4-21c0.5,1.5,1.1,3,1.6,4.5c-6.1,3-10.5,9.3-10.4,16.4c0,9.6,7.8,17.8,17.4,18.2c10.5,0.5,18.3-7.6,19.1-17.6C-812.8,565.5-812.8,565.3-812.8,565.1z M-899.1,565.1c0-11.3,10.5-15.5,18.7-12.7c-1.8,3.8-3.7,7.5-5.5,11.3c-0.9,1.8,0.9,3.2,2.4,3.2c4.1,0,8.2,0,12.4,0C-873.7,583.1-899.1,582.7-899.1,565.1z M-871.3,562.6c-3.1,0-6.2,0-9.4,0c1.3-2.8,2.7-5.5,4-8.3C-874.1,556.1-872.1,558.9-871.3,562.6z M-867.1,562.6c-0.9-5.1-3.6-9.6-7.6-12.4c0.7-1.5,1.4-2.9,2.1-4.4c2.6,5.6,5.1,11.2,7.7,16.8C-865.5,562.6-866.3,562.6-867.1,562.6z M-860.9,560.9c-2.7-6-5.5-11.9-8.2-17.9c8,0,15.9,0,23.9,0C-850.5,548.9-855.7,554.9-860.9,560.9z M-845.2,565.1c0-6.4,3.3-10.5,7.7-12.4c1.5,4.3,3.1,8.5,4.6,12.8c0.9,2.5,5,1.4,4.1-1.1c-1.5-4.2-3.1-8.5-4.6-12.7c7.5-0.9,15.8,3.6,16.3,13.4C-818,583.1-845.2,583.3-845.2,565.1z"/>
		</symbol>
		<symbol id="icon-icon_citybike" viewBox="-909 491 100 100">
			<title>icon_citybike</title>
			<path class="citybike" d="M-809,497.2c0-3.4-2.8-6.2-6.2-6.2h-87.6c-3.4,0-6.2,2.8-6.2,6.2v87.6c0,3.4,2.8,6.2,6.2,6.2h87.6c3.4,0,6.2-2.8,6.2-6.2V497.2z"/>
			<polygon class="citybike-city" points="-828,533 -828,543 -837,543 -837,504 -853,504 -853,533 -859,533 -859,512.3 -882,520 -882,543 -890,543 -890,533 -903,533 -903,543.6 -903,574 -897.6,574 -892.2,574 -886.4,574 -883,574 -876.8,574 -876.5,574 -870.3,574 -860.2,574 -852.1,574 -847.8,574 -842,574 -841.2,574 -835.7,574 -832.2,574 -825.9,574 -820.2,574 -815.7,574 -816,574 -816,533 "/>
			<path class="contrast-color" d="M-819.1,562c0-0.2,0-0.4-0.1-0.5c-0.7-8.4-7.1-15.4-15.9-15.4c-1.2,0-2.3,0.1-3.4,0.4c-1.6-4.3-3.2-8.7-4.7-13c0,0,0,0,0,0c-0.1-0.8-0.7-1.6-1.8-1.6c-1.8,0-3.6,0-5.4,0c-2.4,0-2.4,3.7,0,3.7c1.4,0,2.7,0,4.1,0c0.4,1.2,0.8,2.3,1.3,3.5l-24.8,0c-0.2-0.4-0.3-0.7-0.5-1.1c0.7,0,1.4,0,2.1,0c2.4,0,2.4-3.7,0-3.7c-3,0-6.1,0-9.1,0c-2.4,0-2.4,3.7,0,3.7c1,0,2,0,3,0c0.4,1,0.9,1.9,1.3,2.9c-1,2.1-2.1,4.3-3.1,6.4c-1.8-0.7-3.8-1.1-5.9-1.1c-8.7,0-16,7.3-16,16c0,8.4,6.8,15.5,15.2,15.9c8.8,0.4,15.5-6.1,16.6-14.4c1.2,0,2.4,0,3.5,0c0.2,0.4,0.4,0.9,0.6,1.3c-2,0.3-1.9,3.7,0.3,3.7c1.5,0,3,0,4.6,0c2.4,0,2.4-3.7,0-3.7c-0.3,0-0.6,0-0.9,0c-0.4-0.9-0.9-1.9-1.3-2.8c5.4-6.1,10.7-12.2,16.1-18.3c0.5,1.3,1,2.6,1.4,4c-5.3,2.6-9.1,8.1-9.1,14.4c0,8.4,6.8,15.5,15.2,15.9c9.2,0.4,16-6.7,16.7-15.4C-819.1,562.4-819.1,562.2-819.1,562z M-894.5,562c0-9.9,9.2-13.6,16.4-11.1c-1.6,3.3-3.2,6.6-4.8,9.9c-0.8,1.6,0.8,2.8,2.1,2.8c3.6,0,7.2,0,10.8,0C-872.3,577.7-894.5,577.4-894.5,562z M-870.2,559.8c-2.7,0-5.5,0-8.2,0c1.2-2.4,2.4-4.8,3.5-7.3C-872.6,554.2-870.9,556.6-870.2,559.8z M-866.5,559.8c-0.8-4.4-3.1-8.4-6.6-10.9c0.6-1.3,1.2-2.6,1.9-3.8c2.2,4.9,4.5,9.8,6.7,14.7C-865.1,559.8-865.8,559.8-866.5,559.8z M-861.1,558.3c-2.4-5.2-4.8-10.4-7.2-15.7c7,0,13.9,0,20.9,0C-852,547.9-856.5,553.1-861.1,558.3z M-847.4,562c0-5.6,2.9-9.1,6.7-10.8c1.4,3.7,2.7,7.4,4.1,11.2c0.8,2.2,4.4,1.3,3.6-1c-1.3-3.7-2.7-7.4-4-11.1c6.5-0.8,13.8,3.1,14.3,11.7C-823.6,577.8-847.4,577.9-847.4,562z"/>
		</symbol>
		<symbol id="icon-icon_position" viewBox="0 0 1024 1024">
			<title>icon_position</title>
			<path class="path1" d="M512 57.786c121.322 0 235.383 47.244 321.173 133.034s133.034 199.851 133.034 321.173-47.244 235.383-133.034 321.173c-85.79 85.79-199.851 133.034-321.173 133.034s-235.383-47.244-321.173-133.034c-85.79-85.79-133.034-199.851-133.034-321.173s47.248-235.383 133.034-321.173c85.79-85.786 199.851-133.034 321.173-133.034zM512-0.014c-282.772 0-512.007 229.235-512.007 512.007s229.231 512.007 512.007 512.007 512.007-229.235 512.007-512.007c0-282.772-229.235-512.007-512.007-512.007v0z"></path>
			<path class="path2" d="M512 196.029c174.224 0 315.968 141.74 315.968 315.964s-141.74 315.968-315.968 315.968-315.968-141.744-315.968-315.968 141.744-315.964 315.968-315.964zM512 138.229c-206.426 0-373.768 167.342-373.768 373.764 0 206.426 167.342 373.768 373.768 373.768s373.768-167.342 373.768-373.768c0-206.426-167.342-373.764-373.768-373.764v0z"></path>
			<path class="path3" d="M512 375.516c75.256 0 136.48 61.225 136.48 136.48s-61.225 136.48-136.48 136.48-136.48-61.225-136.48-136.48 61.225-136.48 136.48-136.48zM512 281.591c-127.247 0-230.405 103.155-230.405 230.405s103.155 230.405 230.405 230.405 230.405-103.155 230.405-230.405c0-127.25-103.155-230.405-230.405-230.405v0z"></path>
		</symbol>
		<symbol id="icon-icon_under-construction" viewBox="0 0 1024 1024">
			<title>icon_under-construction</title>
			<path class="path1" d="M259.114 310.509l112.381 300.083-126.062 47.212c-16.224 6.076-24.449 24.153-18.373 40.373l55.763 148.897c3.818-3.941 7.427-8.19 11.231-13.077 23.864-30.656 55.452-60.6 128.739-28.015 43.809 19.5 126.214-12.824 168.126-40.753 38.585-25.717 91.418-19.717 119.487-13.821 3.287 0.69 6.755 1.636 10.162 2.493l-79.005-210.956c-6.076-16.224-24.153-24.449-40.377-18.373l-126.062 47.212-111.030-296.471c47.15-66.181 30.020-191.77 24.691-223.672 1.145-14.602-4.443-29.019-15.559-39.138-13.359-12.152-32.177-15.769-49.094-9.432l-208.86 78.222c-16.917 6.336-28.723 21.411-30.811 39.358-1.756 15.053 3.613 29.724 14.248 39.994 20.060 31.472 86.559 127.565 160.406 149.865zM326.531 71.101c10.158 68.381 7.886 164.438-29.211 178.331-33.329 12.481-98.986-55.799-138.879-115.38l168.090-62.951z"></path>
			<path class="path2" d="M1.727 1024h1020.546c0 0-14.79-88.745-81.346-103.534s-118.949-36.566-140.508-70.256c-29.583-46.222-140.508-77.651-184.881-48.068s-144.207 73.952-210.764 44.372-62.865 11.094-99.842 40.673-129.418 62.861-155.301 59.162-147.903-14.79-147.903 77.651z"></path>
		</symbol>
		<symbol id="icon-icon_HSL-logo" viewBox="0 0 1024 1024">
			<title>icon_HSL-logo</title>
			<path class="path1" d="M1023.996 512.043c0 45.084-41.865 77.286-98.217 77.286-1.608 0-45.080-1.611-77.282-32.202l-66.011 159.398c43.473 1.608 75.675 32.202 77.282 33.809 40.254 40.254 45.084 91.776 14.493 122.37-32.202 32.198-83.723 25.761-123.977-12.882-1.611-1.611-32.202-32.202-33.813-78.893l-157.787 66.011c30.591 33.809 30.591 77.282 30.591 78.893 0 56.355-32.198 98.213-77.282 98.213s-77.286-41.862-77.286-98.213c0-1.611 0-45.084 32.202-78.893l-161.009-66.011c0 46.692-30.591 77.282-32.202 78.893-40.254 38.643-91.776 45.080-123.977 12.882-32.202-30.594-25.761-82.116 14.493-122.37 1.608-1.608 32.198-32.202 77.282-33.809l-66.011-159.398c-32.202 30.591-75.675 32.202-77.286 32.202-57.963 0-98.213-32.202-98.213-77.286 0-45.080 40.254-77.282 98.213-77.282 1.611 0 45.084 0 77.286 30.591l66.011-157.787c-45.084-3.219-75.675-32.202-77.282-33.809-40.254-40.254-46.695-91.779-14.493-123.981s83.723-25.761 123.977 14.49c1.611 1.611 32.202 32.202 32.202 77.286l161.009-66.015c-32.202-32.198-32.202-75.675-32.202-77.282 0-57.963 32.202-98.213 77.286-98.213s77.282 40.254 77.282 98.213c0 1.608 0 45.084-30.591 77.282l157.787 66.015c1.611-45.084 32.202-75.675 33.813-77.286 40.254-40.254 91.776-46.692 123.977-14.49 30.591 32.202 25.761 83.723-14.493 123.977-1.608 1.608-33.809 30.591-77.282 33.809l66.011 157.787c32.202-30.591 75.675-30.591 77.282-30.591 56.355 0.004 98.217 32.205 98.217 77.286zM156.161 512.043c-19.32-32.198-56.355-33.809-57.966-33.809-32.202 0-53.133 14.49-53.133 33.809 0 19.323 20.931 32.202 53.133 32.202 1.611 0 38.643-1.608 57.966-32.202zM196.412 241.55c1.611 1.608 27.372 27.372 64.404 19.32 8.052-37.032-17.708-62.793-19.32-66.011-20.931-20.931-46.692-27.372-61.181-12.882-12.882 12.882-6.445 38.643 16.097 59.574zM260.815 763.217c-37.032-9.66-62.793 16.101-64.404 17.712-22.542 22.542-28.979 48.299-16.097 61.181 14.49 12.882 40.251 8.052 61.181-14.49 1.608-1.611 28.979-28.979 19.32-64.404zM729.35 727.796l88.557-215.753-88.557-217.361-217.361-90.164-217.361 90.164-90.168 217.361 90.168 215.753 217.361 90.164 217.361-90.164zM479.787 98.253c0 1.608 0 38.643 32.202 57.963 30.591-19.32 32.202-56.355 32.202-57.963 0-32.202-12.882-53.133-32.202-53.133s-32.202 20.931-32.202 53.133zM544.191 925.837c0-1.611-1.611-40.254-32.202-57.963-32.202 17.708-32.202 56.351-32.202 57.963 0 30.591 12.882 53.133 32.202 53.133s32.202-22.542 32.202-53.133zM763.163 260.873c35.421 8.052 62.793-17.712 64.4-19.32 22.542-20.931 28.983-46.692 14.493-59.574-12.882-14.493-38.643-8.052-61.185 12.882-1.608 3.215-25.757 28.976-17.708 66.011zM827.567 780.929c-1.608-1.611-28.979-27.372-64.4-17.712-8.052 35.421 16.097 62.793 17.708 64.404 22.542 22.542 48.303 27.372 61.185 14.49 14.49-12.879 8.049-38.639-14.493-61.181zM978.916 512.043c0-19.32-22.542-33.809-53.133-33.809-1.608 0-38.643 1.611-57.963 33.809 19.32 30.594 56.355 32.202 57.963 32.202 30.591 0 53.133-12.879 53.133-32.202z"></path>
		</symbol>
		<symbol id="icon-icon_bus" viewBox="-909 491 100 100">
			<title>icon_bus</title>
			<rect class="contrast-color" x="-901.5" y="498.5" width="85" height="85"/>
			<rect class="bus" x="-875" y="530" width="15" height="13"/>
			<rect class="bus" x="-893" y="530" width="15" height="13"/>
			<rect class="bus" x="-856" y="530" width="15" height="13"/>
			<path class="bus" d="M-809,497.2c0-3.4-2.8-6.2-6.2-6.2h-87.6c-3.4,0-6.2,2.8-6.2,6.2v87.6c0,3.4,2.8,6.2,6.2,6.2h87.6c3.4,0,6.2-2.8,6.2-6.2V497.2z M-876.6,562.5c-3.6,0-6.4-2.9-6.4-6.4c0-3.6,2.9-6.4,6.4-6.4c3.6,0,6.4,2.9,6.4,6.4C-870.1,559.6-873,562.5-876.6,562.5z M-839.8,562.4c-3.6,0-6.4-2.9-6.4-6.4c0-3.6,2.9-6.4,6.4-6.4c3.6,0,6.4,2.9,6.4,6.4C-833.4,559.5-836.2,562.4-839.8,562.4z M-820,555.2c0,0.9-0.1,1.8-0.9,1.8h-9.7c0,0,0-0.7,0-0.9c0-5.1-4.1-9.2-9.2-9.2c-5.1,0-9.2,4.2-9.2,9.3c0,0.3,0,0.9,0,0.9h-18.5c0,0,0-0.6,0-0.8c0-5.1-4.1-9.2-9.2-9.2c-5.1,0-9.2,4.2-9.2,9.3c0,0.2,0,0.8,0,0.8h-9.7c-0.9,0-1.6-0.9-1.6-1.8v-30c0-0.9,0.7-2.2,1.6-2.2h74.5c0.9,0,0.9,1.4,0.9,2.2v29.8H-820z"/>
			<rect class="bus" x="-838" y="530" width="15" height="13"/>
		</symbol>
		<symbol id="icon-icon_bus-withoutBox" viewBox="-909 491 100 100">
			<title>icon_bus-withoutBox</title>
			<path d="M-829.8,558c0,4.1-3.3,7.3-7.3,7.3c-4.1,0-7.3-3.3-7.3-7.3c0-4,3.3-7.3,7.3-7.3C-833.1,550.7-829.8,554-829.8,558"/>
			<path d="M-815.6,521.2h-84.9c-1,0-1.8,0.8-1.8,1.8v34.1c0,1,0.8,1.8,1.8,1.8h11c0-0.3,0-0.5,0-0.8c0-5.8,4.7-10.5,10.5-10.5c5.8,0,10.5,4.7,10.5,10.5c0,0.3,0,0.5,0,0.8h21.1c0-0.3,0-0.6,0-1c0-5.8,4.7-10.5,10.5-10.5c5.8,0,10.5,4.7,10.5,10.5c0,0.3,0,0.6,0,1h11.1c1,0,1.8-0.8,1.8-1.8V523C-813.8,522-814.6,521.2-815.6,521.2z M-880.7,543.4h-17.7v-14.7h17.7V543.4zM-859.7,543.4h-17.7v-14.7h17.7V543.4z M-838.7,543.4h-17.7v-14.7h17.7V543.4z M-817.8,543.4h-17.7v-14.7h17.7V543.4z"/>
			<path d="M-871.7,558.2c0,4.1-3.3,7.3-7.3,7.3c-4.1,0-7.3-3.3-7.3-7.3c0-4,3.3-7.3,7.3-7.3C-875,550.8-871.7,554.1-871.7,558.2"/>
		</symbol>
		<symbol id="icon-icon_bus-live" viewBox="0 0 1024 1024">
			<title>icon_bus-live</title>
			<path fill="rgb(0, 122, 201)" class="path1 fill-color8" d="M1024.007 512c0 282.774-229.233 512.007-512.007 512.007s-512.007-229.233-512.007-512.007c0-282.774 229.233-512.007 512.007-512.007s512.007 229.233 512.007 512.007z"></path>
			<path fill="rgb(0, 92, 151)" class="path2 fill-color4" d="M512 36.118c127.113 0 246.618 49.499 336.501 139.381s139.381 209.388 139.381 336.501-49.502 246.618-139.381 336.501c-89.883 89.883-209.388 139.381-336.501 139.381s-246.618-49.499-336.501-139.381c-89.883-89.883-139.381-209.388-139.381-336.501s49.499-246.618 139.381-336.501c89.883-89.883 209.388-139.381 336.501-139.381zM512-0.007c-282.776 0-512.007 229.231-512.007 512.007s229.235 512.007 512.007 512.007 512.007-229.235 512.007-512.007c0-282.776-229.231-512.007-512.007-512.007v0z"></path>
			<path fill="rgb(255, 255, 255)" class="path3 fill-color14" d="M777.208 256.571v457.151c0 15.631-9.768 24.421-20.515 27.35l-29.305 4.884v61.539c0 6.838-5.859 11.723-13.673 11.723h-46.887c-5.863 0-12.698-4.884-12.698-11.723v-54.701c-37.122 4.884-90.847 6.838-143.593 6.838-51.771 0-103.542-1.954-141.639-6.838v54.701c0 6.838-5.863 11.723-11.723 11.723h-46.887c-7.814 0-13.673-4.884-13.673-11.723v-61.539l-29.305-4.884c-9.768-2.93-20.515-12.698-20.515-27.35v-457.151c0-20.515 13.673-34.189 37.122-37.118 77.167-10.747 147.498-14.652 228.574-14.652 78.146 0 149.453 4.884 227.599 14.652 23.442 2.93 37.118 16.603 37.118 37.118zM735.206 287.83c0-12.698-4.884-21.491-20.515-21.491l-403.426-1.954c-15.631 0-21.491 8.793-21.491 21.491v285.232c0 12.698 5.863 18.557 21.491 21.491 56.655 12.698 127.962 21.491 203.178 21.491 71.307 0 144.569-9.768 200.248-19.536 15.631-1.954 20.515-8.789 20.515-21.491v-285.232zM357.175 672.695c0-12.698-11.719-24.421-25.396-24.421s-25.4 11.723-26.375 24.421c0 13.677 11.723 25.4 26.375 26.375 13.673-0.004 25.396-11.723 25.396-26.375zM713.711 672.695c0-12.698-11.719-24.421-25.4-24.421-12.698 0-24.417 11.723-25.396 24.421 0 13.677 11.719 25.4 25.396 26.375 13.681-0.004 25.4-11.723 25.4-26.375z"></path>
		</symbol>
		<symbol id="icon-icon_ferry" viewBox="-909 491 100 100">
			<title>icon_ferry</title>
			<rect class="contrast-color" x="-905.5" y="498.5" width="94.1" height="85"/>
			<polygon class="ferry ferry-window" points="-855,533 -855,539 -837.5,539 -838.9,533 "/>
			<polygon class="ferry ferry-window" points="-887.4,539 -872,539 -872,533 -886.1,533 "/>
			<rect class="ferry ferry-window" x="-870" y="533" width="13" height="6"/>
			<path class="ferry" d="M-809,497.2c0-3.4-2.8-6.2-6.2-6.2h-87.7c-3.4,0-6.2,2.8-6.2,6.2v87.7c0,3.4,2.8,6.2,6.2,6.2h87.7c3.4,0,6.2-2.8,6.2-6.2V497.2z M-829.7,560.7c-0.1,0-0.2-0.1-0.2-0.1c-2.1-1.1-3.8-2-7.6-2s-5.6,0.9-7.7,2c-2.2,1.1-4.7,2.4-9.5,2.4s-7.3-1.3-9.5-2.4c-2.1-1.1-3.9-2-7.7-2s-5.6,0.9-7.6,2c-2.2,1.1-4.7,2.4-9.5,2.4s-7.3-1.3-9.5-2.4c-1.2-0.6-2.2-1.2-3.7-1.5l1.1-3.9c1.8,0.5,3.2,1.2,4.4,1.8c2.1,1.1,3.9,2,7.6,2c3.8,0,5.6-0.9,7.7-2c2.2-1.1,4.7-2.4,9.5-2.4s7.3,1.3,9.5,2.4c2.1,1.1,3.8,2,7.7,2c3.8,0,5.6-0.9,7.7-2c2.2-1.1,4.7-2.4,9.5-2.4s7.3,1.3,9.5,2.4c0.3,0.1,0.5,0.3,0.8,0.4L-829.7,560.7z M-815.3,540.6l-10,13.8c0,0-0.5-0.3-0.8-0.4c-2.4-1.2-5.6-2.9-11.4-2.9c-5.8,0-9.1,1.7-11.5,2.9c-1.9,1-2.9,1.5-5.7,1.5s-3.8-0.5-5.7-1.5c-2.4-1.2-5.6-2.9-11.5-2.9c-5.8,0-9.1,1.7-11.4,2.9c-1.9,1-2.9,1.5-5.7,1.5s-3.8-0.5-5.7-1.5c-1.4-0.7-3.1-1.6-5.3-2.2l3.2-11.6c0.2-0.6,0.8-1.2,1.5-1.2h4.1l2.6-10.9c0.1-0.8,0.7-1.1,1.4-1.1h30.3v-7.9c0-1.1,0.8-1.6,1.9-2l10.1-3.6c0.1,0,0.3,0,0.4,0c0.5,0,0.9,0.1,1.1,0.5l1.6,6h7c0.8,0,1.3,0.5,1.4,1.4l4.4,17.7l13.1,0.1c0.5,0,0.8,0.4,0.8,0.9C-815.2,540.3-815.3,540.6-815.3,540.6z"/>
		</symbol>
		<symbol id="icon-icon_ferry-withoutBox" viewBox="-909 491 100 100">
			<title>icon_ferry-withoutBox</title>
			<path d="M-823.6,563.5c-2.5-1.3-5.4-2.8-10.9-2.8c-5.5,0-8.4,1.5-10.9,2.8c-2.4,1.2-4.4,2.3-8.8,2.3c-4.4,0-6.4-1.1-8.8-2.3c-2.5-1.3-5.4-2.8-10.9-2.8c-5.5,0-8.4,1.5-10.9,2.8c-2.4,1.2-4.4,2.3-8.8,2.3c-4.4,0-6.4-1.1-8.8-2.3c-1.4-0.7-3-1.5-5.1-2.1l-1.3,4.4c1.6,0.4,2.9,1.1,4.2,1.8c2.6,1.3,5.4,2.8,10.9,2.8c5.5,0,8.4-1.5,10.9-2.8c2.4-1.2,4.4-2.3,8.8-2.3c4.4,0,6.4,1.1,8.8,2.3c2.5,1.3,5.4,2.8,10.9,2.8c5.5,0,8.4-1.5,10.9-2.8c2.4-1.2,4.4-2.3,8.8-2.3c4.4,0,6.4,1.1,8.8,2.3c0.1,0,0.2,0.1,0.3,0.1l2.7-3.8C-823,563.8-823.3,563.7-823.6,563.5z"/>
			<path d="M-809.7,543.1l-15,0l-5-20.3c-0.2-1-0.7-1.3-1.7-1.3h-8l-1.8-7.2c-0.2-0.5-0.6-0.9-1.2-0.9c-0.1,0-0.2,0-0.3,0.1l-11.3,4.1c-1.2,0.5-1.6,1-1.6,2.3v8.8h-35.9c-0.8,0-1.5,0.6-1.6,1.5l-2.9,12.8h-4.7c-0.8,0-1.5,0.5-1.7,1.3l-3.7,13.1c2.6,0.7,4.6,1.7,6.1,2.5c2.2,1.1,3.4,1.7,6.5,1.7c3.2,0,4.4-0.6,6.5-1.7c2.7-1.4,6.5-3.3,13.2-3.3c6.7,0,10.4,1.9,13.2,3.3c2.2,1.1,3.4,1.7,6.5,1.7c3.2,0,4.4-0.6,6.5-1.7c2.7-1.4,6.5-3.3,13.2-3.3c6.7,0,10.4,1.9,13.2,3.3c0.4,0.2,1,0.5,1,0.5l11.4-15.8c0,0,0.2-0.3,0.2-0.6C-808.8,543.5-809.2,543.1-809.7,543.1z M-875.5,543.1h-16.3l1.5-6.8h14.8V543.1z M-855.8,543.1h-16.4v-6.8h16.4V543.1z M-852.5,543.1v-6.8h16.4l1.7,6.8H-852.5z"/>
		</symbol>
		<symbol id="icon-icon_ferry-live" viewBox="0 0 1024 1024">
			<title>icon_ferry-live</title>
			<path fill="rgb(0, 185, 228)" class="path1 fill-color11" d="M1024.007 512c0 282.774-229.233 512.007-512.007 512.007s-512.007-229.233-512.007-512.007c0-282.774 229.233-512.007 512.007-512.007s512.007 229.233 512.007 512.007z"></path>
			<path fill="rgb(0, 139, 171)" class="path2 fill-color7" d="M512 36.118c127.113 0 246.618 49.499 336.501 139.381s139.381 209.388 139.381 336.501-49.502 246.618-139.381 336.501c-89.883 89.883-209.388 139.381-336.501 139.381s-246.618-49.502-336.501-139.381c-89.883-89.883-139.381-209.388-139.381-336.501s49.499-246.618 139.381-336.501c89.883-89.883 209.388-139.381 336.501-139.381zM512-0.007c-282.776 0-512.007 229.231-512.007 512.007s229.231 512.007 512.007 512.007 512.007-229.235 512.007-512.007-229.231-512.007-512.007-512.007v0z"></path>
			<path fill="rgb(255, 255, 255)" class="path3 fill-color14" d="M780.236 782.497c10.624 0 19.32 7.727 19.32 18.355 0 10.624-8.695 18.355-19.32 18.355h-539.068c-9.66 0-18.355-7.727-18.355-18.355s8.695-18.355 18.355-18.355h539.068zM723.237 752.553h-427.97l-21.252-183.555c0 0 77.286-20.288 129.454-31.88 46.37-9.66 101.435-16.426 105.301-16.426s59.895 6.763 105.301 16.426c52.168 11.593 129.454 31.88 129.454 31.88l-20.288 183.555zM321.35 519.727v-134.284c0-17.387-4.83-40.576 40.572-40.576h84.048v-126.553c0.968-6.763 5.798-12.561 12.557-13.525h100.471c6.763 0.968 12.557 6.763 12.557 13.525v126.553h84.048c45.406 0 40.572 23.185 40.572 40.576v134.284c-26.082-6.763-46.37-11.593-82.116-19.323-46.37-9.66-102.404-16.422-105.301-17.391-2.901 0.968-58.931 7.727-105.301 17.391l-82.109 19.323zM377.384 415.394c0 20.288 15.458 35.746 35.746 35.746 20.284 0 35.742-15.458 35.742-35.746s-15.458-35.746-35.742-35.746c-20.288 0-35.746 15.458-35.746 35.746zM473.025 415.394c0 20.288 16.426 35.746 35.746 35.746 20.284 0 35.742-15.458 35.742-35.746s-15.458-35.746-35.742-35.746c-19.323 0-35.746 15.458-35.746 35.746zM568.666 415.394c0 20.288 16.426 35.746 35.742 35.746 20.288 0 35.746-15.458 35.746-35.746s-15.458-35.746-35.746-35.746c-19.32 0-35.742 15.458-35.742 35.746z"></path>
		</symbol>
		<symbol id="icon-icon_rail" viewBox="-909 491 100 100">
			<title>icon_rail</title>
			<rect class="contrast-color" x="-905.5" y="498.5" width="94.1" height="85"/>
			<polygon class="rail" points="-848,530 -848,537 -828.8,537 -836,530 	"/>
			<path class="rail" d="M-809,497.2c0-3.4-2.8-6.2-6.2-6.2h-87.6c-3.4,0-6.2,2.8-6.2,6.2v87.6c0,3.4,2.8,6.2,6.2,6.2h87.6c3.4,0,6.2-2.8,6.2-6.2
				V497.2z M-828,567h-72v-4h72V567z M-819.2,554.9c-1.8,1.8-4.4,3-7.2,3h-4.8h-0.2H-900V525h23.3l17.8-9.1l-19.5-10v0.1h8.8l17.5,9
				c1.2,0.6,1.2,1.6,0,2.2l-15.6,7.8h32.3c0.5,0,1.1,0.3,1.5,0.6l14.7,14.8c1.9,1.8,3,4.4,3,7.3C-816.2,550.5-817.3,553.1-819.2,554.9
				z"/>
			</symbol>
			<symbol id="icon-icon_rail-withoutBox" viewBox="-909 491 100 100">
				<title>icon_rail-withoutBox</title>
				<path d="M-814.6,540.3l-16.8-16.8c-0.4-0.4-1.1-0.7-1.7-0.7h-36.8l17.8-9c1.4-0.7,1.4-1.9,0-2.6l-19.9-10.4h-10.1l0,0.1l22.3,11.6l-20.3,10.4h-26.4v37.5l78.1,0c0,0,0.1,0,0.1,0l5.5,0c3.2,0,6.1-1.3,8.3-3.4c2.1-2.1,3.4-5.1,3.4-8.3C-811.2,545.4-812.5,542.4-814.6,540.3 M-846.5,536v-8.3h12.7l8.3,8.3H-846.5z"/>
				<rect x="-906.5" y="566" width="81.3" height="4.7"/>
			</symbol>
			<symbol id="icon-icon_rail-live" viewBox="0 0 1024 1024">
				<title>icon_rail-live</title>
				<path fill="rgb(140, 71, 153)" class="path1 fill-color10" d="M1024.007 512c0 282.774-229.233 512.007-512.007 512.007s-512.007-229.233-512.007-512.007c0-282.774 229.233-512.007 512.007-512.007s512.007 229.233 512.007 512.007z"></path>
				<path fill="rgb(105, 53, 115)" class="path2 fill-color6" d="M512 36.118c127.113 0 246.618 49.499 336.501 139.381s139.381 209.388 139.381 336.501-49.502 246.618-139.381 336.501c-89.883 89.883-209.388 139.381-336.501 139.381s-246.618-49.502-336.501-139.381c-89.879-89.883-139.381-209.388-139.381-336.501s49.502-246.618 139.381-336.501c89.883-89.883 209.388-139.381 336.501-139.381zM512-0.007c-282.776 0-512.007 229.231-512.007 512.007s229.235 512.007 512.007 512.007 512.007-229.235 512.007-512.007c0-282.776-229.231-512.007-512.007-512.007v0z"></path>
				<path fill="rgb(255, 255, 255)" class="path3 fill-color14" d="M767.588 388.232v257.344c0 20.479-6.232 28.495-33.838 50.756-19.591 16.029-28.492 23.153-59.66 23.153h-57.88v38.289h-205.696v-38.289h-58.772c-31.165 0-40.070-7.124-60.553-23.153-27.607-21.372-34.727-30.276-34.727-50.756v-257.344c0-16.029 10.686-43.632 24.041-73.016 16.029-33.838 29.388-60.553 42.743-72.127 18.698-17.81 105.073-38.289 188.779-38.289 86.375 0 170.969 20.479 190.56 38.289 13.355 11.574 25.822 38.289 41.854 72.127 12.463 29.384 23.149 56.991 23.149 73.016zM720.394 784.491c9.797 0 16.917 8.013 16.917 16.917 0 9.793-7.124 17.81-16.917 17.81h-414.957c-9.797 0-17.81-8.016-17.81-17.81 0-8.905 8.013-16.917 17.81-16.917h40.959v-37.4h33.838v37.4h265.356v-37.4h32.95v37.4h41.854zM700.804 380.22c3.562-15.136-7.124-26.714-22.26-26.714h-332.144c-15.136 0-24.933 11.578-22.26 26.714l41.851 177.2c2.67 15.136 17.81 26.714 32.946 26.714h227.96c15.14 0 30.276-11.578 32.95-26.714l40.959-177.2zM377.564 274.254v15.136c0 11.578 9.797 21.372 21.372 21.372h227.96c11.578 0 20.483-9.797 20.483-21.372v-15.136h-269.814zM422.088 650.030c0-12.467-10.686-22.26-23.153-22.26s-21.372 9.797-21.372 22.26 8.905 21.372 21.372 21.372c12.467 0 23.153-8.905 23.153-21.372zM649.156 647.357c0-12.467-9.793-22.26-22.26-22.26s-22.26 9.797-22.26 22.26 9.793 21.372 22.26 21.372c12.467 0 22.26-8.905 22.26-21.372z"></path>
			</symbol>
			<symbol id="icon-icon_subway" viewBox="-909 491 100 100">
				<title>icon_subway</title>
				<rect class="contrast-color" x="-905.5" y="498.5" width="94.1" height="85"/>
				<path class="subway" d="M-859.1,507.7c-18.4,0-33.3,14.9-33.3,33.3c0,18.4,14.9,33.3,33.3,33.3s33.3-14.9,33.3-33.3C-825.8,522.6-840.7,507.7-859.1,507.7z M-844,530h-11v34h-8v-34h-11v-6h30V530z"/>
				<path class="subway" d="M-809,497.2c0-3.4-2.8-6.2-6.2-6.2h-87.6c-3.4,0-6.2,2.8-6.2,6.2v87.6c0,3.4,2.8,6.2,6.2,6.2h87.6c3.4,0,6.2-2.8,6.2-6.2V497.2z M-859.1,579.3c-21.1,0-38.3-17.2-38.3-38.3s17.2-38.3,38.3-38.3s38.3,17.2,38.3,38.3S-837.9,579.3-859.1,579.3z"/>
			</symbol>
			<symbol id="icon-icon_subway-withoutBox" viewBox="-909 491 100 100">
				<title>icon_subway-withoutBox</title>
				<polygon points="-863.2,566.8 -855.1,566.8 -855.1,529 -842.2,529 -842.2,522.2 -876,522.2 -876,529 -863.2,529 	"/>
				<path d="M-859.1,497.3c-24.1,0-43.7,19.6-43.7,43.7c0,24.1,19.6,43.7,43.7,43.7s43.7-19.6,43.7-43.7C-815.4,516.9-835,497.3-859.1,497.3z M-859.1,503c20.9,0,38,17,38,38s-17,38-38,38s-38-17-38-38S-880,503-859.1,503z"/>
			</symbol>
			<symbol id="icon-icon_subway-live" viewBox="0 0 1024 1024">
				<title>icon_subway-live</title>
				<path fill="rgb(255, 99, 25)" class="path1 fill-color13" d="M1024.007 512c0 282.774-229.233 512.007-512.007 512.007s-512.007-229.233-512.007-512.007c0-282.774 229.233-512.007 512.007-512.007s512.007 229.233 512.007 512.007z"></path>
				<path fill="rgb(191, 74, 19)" class="path2 fill-color9" d="M512 36.118c127.113 0 246.618 49.499 336.501 139.381s139.381 209.388 139.381 336.501-49.502 246.618-139.381 336.501c-89.883 89.883-209.388 139.381-336.501 139.381s-246.618-49.499-336.501-139.381c-89.883-89.883-139.381-209.388-139.381-336.501s49.499-246.618 139.381-336.501c89.883-89.883 209.388-139.381 336.501-139.381zM512-0.007c-282.776 0-512.007 229.231-512.007 512.007s229.231 512.007 512.007 512.007 512.007-229.235 512.007-512.007-229.231-512.007-512.007-512.007v0z"></path>
				<path fill="rgb(255, 255, 255)" class="path3 fill-color14" d="M792.991 297.056v387.846c0 27.704-17.81 47.494-43.534 51.449-64.313 11.874-142.473 20.776-237.457 20.776-93.994 0-172.157-9.891-236.467-20.776-27.701-3.956-44.524-25.725-44.524-53.429v-387.842c0-28.694 17.81-48.48 44.524-51.449 64.313-11.874 142.473-20.776 236.467-20.776 94.98 0 173.144 9.895 237.457 20.776 26.714 2.966 43.534 24.735 43.534 53.425zM320.057 653.242c0-12.864-11.871-24.735-24.735-24.735-13.85 0-25.725 11.874-26.711 24.735 0 13.85 11.871 25.725 26.711 26.714 12.864 0 24.735-11.871 24.735-26.714zM732.637 585.962c12.864 0 19.789-8.905 19.789-22.755v-250.318c0-12.864-8.905-23.745-21.765-23.745h-438.309c-11.874 0-19.789 9.895-19.789 23.745v250.318c0 12.864 9.895 22.755 22.755 22.755h437.319zM620.834 795.719c9.895 0 19.789 10.884 19.789 21.765 0 9.895-9.895 19.789-19.789 19.789h-213.712c-9.895 0-19.789-9.895-19.789-19.789 0-10.884 9.895-21.765 19.789-21.765h213.712zM755.396 653.242c0-12.864-10.884-24.735-24.735-24.735-12.864 0-24.735 11.874-25.725 24.735 0 13.85 10.884 25.725 25.725 26.714 13.85 0 24.735-11.871 24.735-26.714z"></path>
			</symbol>
			<symbol id="icon-icon_tram" viewBox="-909 491 100 100">
				<title>icon_tram</title>
				<rect class="contrast-color" x="-900.9" y="498.5" width="85" height="85"/>
				<rect class="tram" x="-877" y="530" width="16" height="14"/>
				<rect class="tram" x="-858" y="530" width="16" height="14"/>
				<polygon class="tram" points="-895.5,544 -880,544 -880,530 -892.7,530 "/>
				<polygon class="tram" points="-839,530 -839,544 -823.4,544 -826.2,530 "/>
				<path class="tram" d="M-809,497.2c0-3.4-2.8-6.2-6.2-6.2h-87.6c-3.4,0-6.2,2.8-6.2,6.2v87.6c0,3.4,2.8,6.2,6.2,6.2h87.6c3.4,0,6.2-2.8,6.2-6.2V497.2z M-821,567h-77v-4h77V567z M-820.3,552.3l-3.1,4.7H-834v1c0,1.6-1.2,3-2.8,3h-8.9c-1.6,0-2.3-1.5-2.3-3v-1h-22v1c0,1.6-1.7,3-3.3,3h-8.9c-1.6,0-2.8-1.5-2.8-3v-1h-10.6l-3.1-4.7c-1-1.5-1.5-4.3-1.1-6.1l0.2-1l0,0l2.9-13.1l1.5-7.3c0.2-0.8,0.9-1.8,1.7-1.8h29.5l9.3-7.7l-12.2-9.3h6.2l10.3,8.1c0.4,0.4,0.7,0.8,0.7,1.4c0,0.6-0.2,0.7-0.7,1.1l-7.7,6.4h32.4c0.8,0,1.6,1.1,1.7,1.9l0.4,2.1l0,0l2.7,12.2l1.6,7C-818.8,548-819.3,550.8-820.3,552.3z"/>
			</symbol>
			<symbol id="icon-icon_tram-withoutBox" viewBox="-909 491 100 100">
				<title>icon_tram-withoutBox</title>
				<path d="M-813.6,546.9l-1.8-8l-3.1-14h0l-0.4-1.9c-0.2-0.9-1.1-1.6-2-1.6h-37l8.8-7.7c0.5-0.4,0.8-1.1,0.7-1.7c0-0.7-0.3-1.3-0.8-1.7l-11.7-9.4h-7.1l14,11.3l-10.6,9.3h-33.6c-0.9,0-1.8,0.7-2,1.6l-1.7,7.9l-3.3,14.9l0,0l-0.3,1.2c-0.5,2.1,0.1,5.2,1.3,6.9l3.5,5.3h12v1.3c0,1.8,1.5,3.2,3.2,3.2h10.2c1.8,0,3.2-1.5,3.2-3.2v-1.3h25v1.3c0,1.8,1.5,3.2,3.2,3.2h10.2c1.8,0,3.2-1.5,3.2-3.2v-1.3h12l3.5-5.3C-813.7,552.1-813.1,548.9-813.6,546.9 M-882.5,543.6h-18.1l3.3-14.7h14.9V543.6zM-861.1,543.6h-18.1v-14.7h18.1V543.6z M-839.7,543.6h-18.1v-14.7h18.1V543.6z M-836.5,543.6v-14.7h14.8l3.3,14.7H-836.5z"/>
			</symbol>
			<symbol id="icon-icon_tram-live" viewBox="0 0 1024 1024">
				<title>icon_tram-live</title>
				<path fill="rgb(0, 152, 95)" class="path1 fill-color5" d="M1024.007 512c0 282.774-229.233 512.007-512.007 512.007s-512.007-229.233-512.007-512.007c0-282.774 229.233-512.007 512.007-512.007s512.007 229.233 512.007 512.007z"></path>
				<path fill="rgb(0, 114, 71)" class="path2 fill-color3" d="M512 36.118c127.113 0 246.618 49.499 336.501 139.381s139.381 209.388 139.381 336.501-49.502 246.618-139.381 336.501c-89.883 89.883-209.388 139.381-336.501 139.381s-246.618-49.499-336.501-139.381c-89.883-89.883-139.381-209.388-139.381-336.501s49.499-246.618 139.381-336.501c89.883-89.883 209.388-139.381 336.501-139.381zM512-0.007c-282.776 0-512.007 229.231-512.007 512.007s229.235 512.007 512.007 512.007 512.007-229.235 512.007-512.007c0-282.776-229.231-512.007-512.007-512.007v0z"></path>
				<path fill="rgb(255, 255, 255)" class="path3 fill-color14" d="M694.323 312.543c5.195 12.467 8.309 30.128 8.309 43.632v373.995c0 18.698-13.504 30.128-31.165 33.242-58.176 11.426-108.039 15.581-159.983 15.581-54.021 0-102.848-4.154-158.947-15.581-18.702-3.118-31.165-14.544-31.165-33.242v-373.992c0-13.507 0-31.165 5.195-43.632l17.658-42.595c6.235-12.467 13.507-17.662 28.051-21.816 41.555-11.426 75.837-15.584 118.432-16.621v-36.363h-75.837c-12.467 0-21.816-9.349-21.816-19.739 0-12.467 9.349-21.816 21.816-21.816h195.306c10.39 0 18.702 9.349 18.702 21.816 0 10.39-8.312 19.739-18.702 19.739h-76.878v36.36c41.555 1.037 73.76 5.195 118.432 16.621 12.467 3.118 19.739 9.349 24.933 21.816l17.658 42.595zM655.882 829.904c9.353 0 19.742 9.349 19.742 18.698 0 13.507-10.39 21.816-19.742 21.816h-287.765c-11.43 0-18.702-8.312-18.702-21.816 0-9.349 7.272-18.698 18.702-18.698h31.165v-31.165l38.437 5.195v25.97h148.561v-25.97l38.441-5.195v31.165h31.161zM407.595 669.917c0-14.544-10.39-25.97-24.933-25.97-13.504 0-23.893 11.43-23.893 25.97 0 13.507 10.39 22.856 23.893 22.856 14.544 0 24.933-9.353 24.933-22.856zM359.805 600.311c41.555 10.39 97.653 18.702 151.678 18.702 55.058 0 111.16-7.272 150.634-18.702v-252.445h-302.312v252.445zM669.39 669.917c0-14.544-11.43-25.97-25.97-25.97-13.504 0-22.856 11.43-22.856 25.97 0 13.507 9.353 22.856 22.856 22.856 14.544 0 25.97-9.353 25.97-22.856z"></path>
			</symbol>
			<symbol id="icon-icon_airplane" viewBox="-909 491 100 100">
				<title>icon_airplane</title>
				<rect class="contrast-color" x="-900.3" y="498.6" width="85" height="85"/>
				<path class="airplane" d="M-809,497.2c0-3.4-2.8-6.2-6.2-6.2h-87.6c-3.4,0-6.2,2.8-6.2,6.2v87.6c0,3.4,2.8,6.2,6.2,6.2h87.6c3.4,0,6.2-2.8,6.2-6.2V497.2z M-824.8,545H-846l-18.8,30h-8.2l9.4-30h-14.7l-5.3,7h-7.1l3.5-11l-3.5-11h7.1l5.3,6.6h14.7L-873,506h8.2l18.8,30.6h21.2c1.9,0,3.5,2.2,3.5,4.2C-821.2,542.8-822.8,545-824.8,545z"/>
			</symbol>
			<symbol id="icon-icon_airplane-withoutBox" viewBox="-909 491 100 100">
				<title>icon_airplane-withoutBox</title>
				<path class="path1" d="M-864.2,536l-10.7-34.9h9.4l21.4,34.9l24.1,0c2.2,0,4,2.5,4,4.7s-1.8,4.7-4,4.7h-24.1l-21.4,34.8h-9.4l10.7-34.8H-881l-6,7.4h-8l4-12.1l-4-12.1h8l6,7.4L-864.2,536z"/>
			</symbol>
			<symbol id="icon-icon_car" viewBox="0 0 1024 1024">
				<title>icon_car</title>
				<path class="path1" d="M984.678 426.705l-57.666 14.829c42.841 31.306 59.317 90.62 59.317 131.813v151.581c0 39.546-29.655 74.143-77.441 82.383v87.325c0 13.178-11.531 19.771-24.713 19.771h-87.329c-11.535 0-23.066-6.593-23.066-19.771v-72.499c-69.197 3.298-166.414 9.887-261.975 9.887-97.205 0-191.123-6.589-261.971-9.887v72.499c0 13.178-11.535 19.771-23.069 19.771h-87.325c-13.178 0-24.713-6.593-24.713-19.771v-87.325c-46.132-8.237-75.787-42.837-75.787-82.383v-151.581c0-41.19 18.12-100.507 60.961-131.813l-60.961-14.829c-24.713-6.589-41.19-26.364-37.895-51.077 1.644-24.713 26.36-42.841 54.372-41.19l87.325 16.477 59.31-105.449c24.713-46.135 44.488-67.554 103.805-77.438 64.259-8.237 112.038-14.829 205.952-14.829 92.271 0 144.991 6.593 209.254 14.829 59.31 9.884 79.085 31.306 103.802 77.438l59.31 105.449 85.681-16.477c26.36-1.647 52.728 16.477 54.372 41.19 3.287 24.717-13.189 44.488-39.55 51.077zM304.202 573.348l-179.592-18.124v46.135c0 23.066 21.422 37.895 44.484 37.895h92.274c23.062 0 42.837-14.829 42.837-37.895v-28.011zM178.985 421.763c98.86 13.182 224.076 19.771 339.413 19.771 108.74 0 220.778-3.295 329.525-19.771l-75.794-154.879c-13.178-28.011-28.008-39.542-57.666-46.132-57.666-11.535-112.038-14.829-202.658-14.829s-141.693 3.298-199.363 14.829c-29.655 6.589-44.488 18.124-57.666 46.132l-75.79 154.879zM903.942 555.22l-176.297 18.124v28.011c0 23.066 19.768 37.895 42.841 37.895h88.969c23.069 0 44.488-14.829 44.488-37.895v-46.135z"></path>
			</symbol>
			<symbol id="icon-icon_walk" viewBox="0 0 1024 1024">
				<title>icon_walk</title>
				<path class="path1" d="M345.2 820.179l61.47-132.651c8.088-3.233 16.177-6.47 22.65-11.322v-1.618c17.792-12.94 27.502-33.968 29.117-58.234v-25.88l142.354 3.233 187.648 376.914-111.615 56.619-148.828-297.649-79.262 163.383-114.856 134.266-97.061-77.651 108.382-129.411zM558.735 310.614c33.968 27.498 46.908 63.089 45.294 105.146l-3.237 153.679-142.354-3.233 1.618-137.503-24.265 37.209-3.233 148.824c0 17.795-6.474 32.354-17.799 40.442-11.322 8.088-22.643 12.944-40.442 12.944-17.792 0-29.117-6.47-40.438-14.558-9.707-8.088-16.177-22.65-16.177-40.442l3.233-173.093 77.647-137.499c11.325-16.177 32.354-24.265 58.241-24.265 37.205-0.004 72.792 8.085 101.912 32.35zM398.582 131.051c1.622-71.177 61.474-129.414 132.651-127.796 72.796 1.618 131.029 59.856 129.414 132.651-1.618 71.177-61.47 129.411-132.651 127.796-72.796-1.618-131.029-61.474-129.414-132.651zM623.442 551.644l1.615-116.471 77.647 1.615c17.795 0 32.354 8.088 40.442 17.795 8.088 12.94 12.944 24.265 12.944 42.057 0 16.177-4.855 29.12-14.558 40.442-8.088 9.707-22.65 16.177-40.442 16.177l-77.647-1.615z"></path>
			</symbol>
			<symbol id="icon-icon_cyclist" viewBox="0 0 1024 1024">
				<title>icon_cyclist</title>
				<path class="path1" d="M361.131 891.19h40.503c-22.683 76.155-92.354 132.864-174.99 132.864-100.456 0-181.47-81.014-181.47-181.47s81.014-181.474 181.47-181.474c22.687 0 46.991 4.862 66.434 12.962l-22.687 30.786c-14.58-3.24-29.164-6.481-43.747-6.481-81.014 0-145.826 64.812-145.826 144.204s64.812 144.204 145.826 144.204c61.575 0.004 115.044-38.885 134.486-95.594zM694.908 648.148l-144.204 149.066-12.962 106.937-103.697-12.962 3.244-29.164h-210.641c-8.103 0-14.58-4.862-17.82-11.343s-1.622-12.962 1.618-19.446l150.688-197.673-40.507-35.645c-35.645-32.404-32.404-71.293-12.962-119.903l149.066 42.125-11.343 45.369h212.256l-21.061-58.327c-8.103-1.622-17.824-6.481-29.167-14.584l-116.662-87.495-27.545 95.598-149.066-43.747 42.129-145.826c19.442-51.85 89.117-76.155 136.105-37.267l181.47 144.204c21.065 19.442 24.305 58.327-1.618 79.392l144.204 338.64c4.862 8.103-3.24 21.065-9.721 22.687-8.103 4.859-21.065-1.622-24.305-9.721l-87.498-200.917zM263.915 823.138h179.852l14.58-110.178-71.293-51.85-123.139 162.028zM370.852 732.402c12.962 19.442 22.687 40.507 30.786 61.571h-40.507c-4.862-9.721-8.103-19.442-14.584-29.167l24.305-32.404zM489.133 0.036c59.949 0 110.178 50.228 110.178 110.178 0 61.571-50.228 110.181-110.178 110.181s-110.181-48.61-110.181-110.181c0.004-59.949 50.232-110.178 110.181-110.178zM675.466 602.782h-209.016l102.078 72.911-9.721 59.949 119.903-124.761-3.244-8.099zM980.079 842.584c0 100.456-81.014 181.47-181.474 181.47-98.838 0-181.474-81.014-181.474-181.47 0-58.331 27.545-108.559 68.052-140.963l16.202 35.645c-27.545 25.927-45.366 64.812-45.366 105.319 0 79.392 64.808 144.204 142.585 144.204 79.392 0 144.204-64.808 144.204-144.204s-64.812-144.204-144.204-144.204c-3.24 0-4.862 0-9.721 1.618l-14.58-35.645c8.103-1.618 16.202-3.24 24.305-3.24 100.456-0.004 181.47 81.010 181.47 181.47z"></path>
			</symbol>
			<symbol id="icon-icon_bicycle" viewBox="-909 491 100 100">
				<title>icon_bicycle</title>
				<path d="M-814.1,548.2c0-0.2,0-0.4-0.1-0.6c-0.8-9.7-8.1-17.7-18.3-17.7c-1.3,0-2.6,0.2-3.9,0.4c-1.8-5-3.6-10-5.4-14.9c0,0,0,0,0,0c-0.1-0.9-0.8-1.8-2-1.8c-2.1,0-4.2,0-6.2,0c-2.7,0-2.7,4.2,0,4.2c1.6,0,3.1,0,4.7,0c0.5,1.3,1,2.7,1.5,4l-28.4,0c-0.2-0.4-0.4-0.8-0.6-1.3c0.8,0,1.6,0,2.5,0c2.7,0,2.7-4.2,0-4.2c-3.5,0-7,0-10.5,0c-2.7,0-2.7,4.2,0,4.2c1.1,0,2.3,0,3.4,0c0.5,1.1,1,2.2,1.5,3.3c-1.2,2.5-2.4,4.9-3.6,7.4c-2.1-0.8-4.3-1.3-6.7-1.3c-9.9,0-18.4,8.4-18.3,18.3c0,9.6,7.8,17.8,17.4,18.3c10.1,0.5,17.7-7,19-16.5c1.3,0,2.7,0,4,0c0.2,0.5,0.5,1,0.7,1.5c-2.3,0.4-2.2,4.2,0.4,4.2c1.7,0,3.5,0,5.2,0c2.7,0,2.7-4.2,0-4.2c-0.3,0-0.7,0-1,0c-0.5-1.1-1-2.1-1.5-3.2c6.1-7,12.3-14,18.4-21c0.6,1.5,1.1,3,1.7,4.5c-6.1,3-10.5,9.3-10.4,16.5c0,9.6,7.8,17.8,17.4,18.3c10.5,0.5,18.3-7.6,19.1-17.6C-814.2,548.6-814.1,548.4-814.1,548.2z M-900.5,548.2c0-11.3,10.5-15.5,18.7-12.8c-1.8,3.8-3.7,7.5-5.5,11.3c-0.9,1.8,0.9,3.2,2.4,3.2c4.1,0,8.3,0,12.4,0C-875.1,566.2-900.5,565.8-900.5,548.2z M-872.7,545.7c-3.1,0-6.2,0-9.4,0c1.4-2.8,2.7-5.5,4.1-8.3C-875.5,539.2-873.5,542-872.7,545.7z M-868.4,545.7c-0.9-5.1-3.6-9.6-7.6-12.5c0.7-1.5,1.4-2.9,2.1-4.4c2.6,5.6,5.1,11.2,7.7,16.8C-866.9,545.7-867.7,545.7-868.4,545.7z M-862.3,544c-2.7-6-5.5-12-8.2-17.9c8,0,16,0,23.9,0C-851.8,532-857.1,538-862.3,544zM-846.5,548.2c0-6.4,3.3-10.5,7.7-12.4c1.6,4.3,3.1,8.5,4.7,12.8c0.9,2.5,5,1.4,4.1-1.1c-1.5-4.2-3.1-8.5-4.6-12.7c7.5-0.9,15.8,3.6,16.4,13.5C-819.4,566.2-846.5,566.4-846.5,548.2z"/>
			</symbol>
			<symbol id="icon-icon_bus-stop" viewBox="0 0 1024 1024">
				<title>icon_bus-stop</title>
				<path class="path1" d="M56.882-0.007c31.422 0 56.89 25.468 56.89 56.89v967.128h-113.779v-967.128c0-31.422 25.468-56.89 56.89-56.89z"></path>
				<path class="path2" d="M199.107 199.107h142.224v85.335h-142.224v-85.335z"></path>
				<path class="path3" d="M199.107 312.886h654.231v28.445h-654.231v-28.445z"></path>
				<path class="path4" d="M369.776 199.107h142.224v85.335h-142.224v-85.335z"></path>
				<path class="path5" d="M540.445 199.107h142.224v85.335h-142.224v-85.335z"></path>
				<path class="path6" d="M967.118 56.882h-910.235v512.007h910.235c31.422 0 56.89-25.468 56.89-56.89v-398.228c0-31.422-25.468-56.89-56.89-56.89zM881.783 398.221c0 15.711-12.734 28.445-28.445 28.445h-59.371c1.579 4.454 2.482 9.226 2.482 14.222 0 23.564-19.103 42.667-42.667 42.667s-42.667-19.103-42.667-42.667c0-4.996 0.903-9.768 2.482-14.222h-374.747c1.579 4.454 2.482 9.226 2.482 14.222 0 23.564-19.103 42.667-42.667 42.667s-42.667-19.103-42.667-42.667c0-4.996 0.903-9.768 2.482-14.222h-59.371c-15.711 0-28.445-12.734-28.445-28.445v-199.114c0-15.711 12.734-28.445 28.445-28.445h654.231c15.711 0 28.445 12.734 28.445 28.445v199.114z"></path>
				<path class="path7" d="M711.114 199.107h142.224v85.335h-142.224v-85.335z"></path>
			</symbol>
			<symbol id="icon-icon_mapMarker-location" viewBox="0 0 1024 1024">
				<title>icon_mapMarker-location</title>
				<path fill="rgb(255, 255, 255)" class="path1 fill-color14" d="M512 43.343c125.184 0 242.872 48.751 331.393 137.268s137.268 206.209 137.268 331.389c0 125.184-48.751 242.876-137.268 331.393s-206.209 137.268-331.393 137.268-242.872-48.751-331.393-137.268c-88.517-88.517-137.268-206.209-137.268-331.393s48.751-242.872 137.268-331.389 206.209-137.268 331.393-137.268zM512-0.007c-282.772 0-512.007 229.231-512.007 512.007s229.235 512.007 512.007 512.007 512.007-229.231 512.007-512.007c0-282.776-229.235-512.007-512.007-512.007v0z"></path>
				<path fill="rgb(255, 255, 255)" class="path2 fill-color14" d="M512 253.749c142.401 0 258.251 115.849 258.251 258.251s-115.849 258.251-258.251 258.251-258.251-115.849-258.251-258.251c0-142.401 115.849-258.251 258.251-258.251zM512 170.662c-188.515 0-341.338 152.823-341.338 341.338s152.823 341.338 341.338 341.338 341.338-152.823 341.338-341.338c0-188.515-152.823-341.338-341.338-341.338v0z"></path>
				<path fill="rgb(255, 255, 255)" class="path3 fill-color14" d="M512 341.331c94.257 0 170.669 76.412 170.669 170.669s-76.412 170.669-170.669 170.669-170.669-76.412-170.669-170.669c0-94.257 76.412-170.669 170.669-170.669z"></path>
				<path fill="rgb(0, 185, 228)" class="path4 fill-color11" d="M512 426.665c47.129 0 85.335 38.206 85.335 85.335s-38.206 85.335-85.335 85.335c-47.129 0-85.335-38.206-85.335-85.335s38.206-85.335 85.335-85.335z"></path>
			</symbol>
			<symbol id="icon-icon_mapMarker-point" viewBox="0 0 1024 1024">
				<title>icon_mapMarker-point</title>
				<path class="path1" d="M512-0.007c203.687 0 368.811 161.811 368.811 361.42 0 199.602-368.811 662.598-368.811 662.598s-368.811-462.996-368.811-662.602c0-199.609 165.12-361.416 368.811-361.416z"></path>
			</symbol>
			<symbol id="icon-icon_place" viewBox="0 0 1024 1024">
				<title>icon_place</title>
				<path class="path1" d="M864.309 343.535c0 188.974-340.8 683.218-340.8 683.218s-340.8-494.245-340.8-683.218c0-187.359 151.826-340.8 340.8-340.8s340.8 153.441 340.8 340.8zM675.336 341.92c0-82.372-67.839-150.211-151.826-150.211-83.991 0-151.826 67.836-151.826 150.211 0 83.991 67.836 151.826 151.826 151.826 83.987 0 151.826-67.839 151.826-151.826z"></path>
			</symbol>
			<symbol id="icon-icon_mapMarker-station" viewBox="0 0 2348 2348">
				<title>icon_mapMarker-station</title>
				<circle key="halo" class="stop-halo" cx="1174" cy="1174" r="1135" stroke-width="78" stroke="#333" stroke-opacity="0.4" fill="#fff" fill-opacity="1"/>
				<circle fill="currentColor" fill-opacity="1" cx="1174" cy="1174" r="980"/>
				<use x="657" y="657" width="1024" height="1024" class="fill-color14" fill="#fff" xlink:href="#icon-icon_station"/>
			</symbol>
			<symbol id="icon-icon_lift" viewBox="0 0 100 100" enable-background="new 0 0 100 100">
				<path d="M94.72,0.058C94.805,0.043,94.977,0.015,95.062,0c0.244,0.93,0.547,1.844,0.809,2.769l-0.046,0.1  c-10.728,3.187-21.462,6.352-32.188,9.545c0.147,0.57,0.333,1.13,0.469,1.704c-3.791,1.064-7.576,2.151-11.358,3.243  c0.001,11.393-0.001,22.787,0,34.179c5.075,0.002,10.149,0,15.224,0c0.002,1.115,0,2.229,0,3.342c3.139,0.002,6.277,0,9.416,0    c2.066,0.062,3.892,1.887,3.952,3.953C81.34,71.218,81.336,83.6,81.34,95.982c-0.023,2.092-1.871,3.962-3.963,4.018    c-17.41-0.001-34.82,0-52.23-0.001c-2.05-0.055-3.862-1.846-3.962-3.89c0-12.424,0-24.85,0-37.273    c0.061-2.066,1.886-3.892,3.951-3.953c3.139,0,6.278,0.002,9.417,0c0.002-1.113-0.002-2.227,0-3.342c5.075,0,10.149,0,15.224,0    c-0.004-11.109,0.007-22.219-0.005-33.329c-3.021,0.848-6.038,1.714-9.053,2.584c-0.213-0.463-0.288-0.973-0.461-1.451    c-10.481,3.083-33.56,9.991-34.653,10.215c-0.248-0.929-0.546-1.844-0.808-2.769l0.047-0.099    c10.476-3.109,33.559-9.902,34.591-10.284c-0.137-0.455-0.278-0.907-0.376-1.372c7.797-2.215,15.593-4.435,23.38-6.684    c0.164,0.357,0.246,0.746,0.346,1.126C63.09,9.46,84.371,3.129,94.72,0.058z M27.869,61.567c0,6.684,0,13.367,0,20.051    c4.456,0,8.912,0,13.368,0c0-6.684,0-13.367,0-20.051C36.78,61.567,32.325,61.567,27.869,61.567z M44.578,61.567    c0,6.684,0,13.367,0,20.051c4.456,0,8.912,0,13.367,0c0-6.684,0-13.367,0-20.051C53.49,61.567,49.034,61.567,44.578,61.567z     M61.287,61.567c0,6.684,0,13.367,0,20.051c4.456,0,8.912,0,13.367,0c0-6.684,0-13.367,0-20.051    C70.199,61.567,65.743,61.567,61.287,61.567z"/>
				<path fill="#000000" d="M53.297,2.492c0.998-0.24,2.104,0.021,2.893,0.678c0.787,0.65,1.256,1.671,1.211,2.693   c-0.011,1.161-0.692,2.286-1.713,2.838c-1.412,0.824-3.402,0.411-4.342-0.935c-0.98-1.267-0.839-3.235,0.303-4.358   C52.09,2.947,52.673,2.629,53.297,2.492z"></path>
				<path fill="#000000" d="M44.01,4.954c1.198-0.261,2.52,0.203,3.284,1.165c1.098,1.289,0.975,3.4-0.274,4.545  c-1.239,1.265-3.499,1.243-4.713-0.047c-1.24-1.176-1.302-3.312-0.161-4.577C42.624,5.483,43.29,5.093,44.01,4.954z"/>
			</symbol>
			<symbol id="icon-icon_no-information" viewBox="0 0 24 24" enable-background="new 0 0 24 24">
				<circle fill-opacity="0" cx="12" cy="12" r="12"/>
				<path opacity="0.1" d="M12,2c5.514,0,10,4.486,10,10s-4.486,10-10,10S2,17.514,2,12S6.486,2,12,2 M12,0C5.373,0,0,5.373,0,12
					s5.373,12,12,12s12-5.373,12-12S18.627,0,12,0L12,0z"/>
				<path d="M11.542,14.736c-0.414,0-0.72-0.306-0.774-0.72l-0.18-1.548c-0.072-0.486,0.216-0.846,0.702-0.9
					c1.692-0.162,2.629-0.81,2.629-1.945V9.586c0-1.008-0.774-1.71-2.07-1.71c-0.955,0-1.729,0.342-2.449,0.99
					C9.22,9.01,8.985,9.118,8.733,9.118c-0.559,0-1.009-0.45-1.009-0.99c0-0.27,0.108-0.558,0.36-0.774
					c0.954-0.9,2.161-1.494,3.817-1.494c2.521,0,4.231,1.404,4.231,3.655V9.55c0,2.269-1.639,3.295-3.638,3.637l-0.071,0.828
					c-0.072,0.396-0.36,0.72-0.774,0.72H11.542z M11.542,16.05c0.738,0,1.278,0.54,1.278,1.242v0.18c0,0.702-0.54,1.242-1.278,1.242
					s-1.278-0.54-1.278-1.242v-0.18C10.264,16.59,10.804,16.05,11.542,16.05z"/>
					</symbol>
				</defs>
			<symbol id="icon-icon_arrow-forward" height="18px" width="18px" viewBox="0 0 97.285 97.285" style="enable-background:new 0 0 97.285 97.285;">
				<g>
					<path d="M83.952,34.479L50.056,0.585c-0.781-0.781-2.047-0.781-2.828,0L13.333,34.479c-0.781,0.781-0.781,2.047,0,2.828l9.03,9.031   c0.375,0.375,0.883,0.586,1.414,0.586c0.53,0,1.039-0.211,1.414-0.586l14.534-14.532v63.478c0,1.104,0.896,2,2,2H55.56   c1.104,0,2-0.896,2-2V31.807l14.532,14.532c0.75,0.75,2.078,0.75,2.828,0l9.031-9.031c0.375-0.375,0.586-0.884,0.586-1.414   C84.538,35.364,84.327,34.854,83.952,34.479z" fill="#3d4a59"/>
				</g>
			</symbol>
			</svg>
