<svg version="1.1"
	 xmlns="http://www.w3.org/2000/svg"
	 xmlns:xlink="http://www.w3.org/1999/xlink" encoding="UTF-8" standalone="no">
	<defs>
		<symbol id="icon-icon_harbour_port" viewBox="0 213.264 797.992 793.264">
			<g transform="scale(2)">
				<path  d="M49.961,397.433c4.778,2.229,11.406,1.951,15.696-0.854l16.956-11.147
		c4.839-3.187,12.727-3.173,17.545,0.006l17.912,11.827c4.838,3.185,12.687,1.165,17.464-2.102l13.907-9.481
		c4.778-3.253,12.605-3.259,17.383-0.006l12.972,8.796c4.777,3.267,12.646,5.28,17.485,2.107l16.942-11.147
		c4.825-3.187,12.721-3.173,17.56,0.006l17.912,11.827c4.838,3.185,12.808,1.313,17.708-1.709l16.652-10.274
		c4.919-3.036,12.849-2.858,17.647,0.395l12.951,8.796c4.798,3.267,12.646,5.28,17.485,2.107l16.956-11.147
		c4.832-3.187,12.727-3.173,17.546,0.006l13.256,8.655c8.797,5.78,17.708-0.204,22.934-2.677l13.824-6.541
		c5.226-2.466,13.42-1.836,18.197,1.41l12.972,8.81c4.778,3.253,12.626,4.901,17.464,1.723l16.957-11.155
		c4.824-3.186,12.748-3.186,17.565,0.014l23.626,10.829l58.024-98.525l-78.214-0.136l-21.855-67.988l-37.471-0.318l-20.291-51.919
		h-30.843l5.286,56.555l-22.865-0.346L355.633,314.8H39.592L49.961,397.433z"/>
				<path d="M563.418,421.294l-15.078,12.091c-6.669,5.043-15.533,5.002-20.372,1.864l-27.712-10.538
		c-5.083-2.792-13.296-2.698-18.312,0.23l-16.354,8.443c-5.001,2.915-13.053,1.138-17.892-2.006l-12.727-7.129
		c-4.839-3.151-13.216-3.972-18.577-1.81l-13.322,5.367c-5.382,2.161-14.619,9.291-22.487,3.964l-13.499-7.305
		c-5.062-2.778-13.297-2.677-18.278,0.244l-16.387,9.562c-5.002,2.907-13.032,0.738-17.898-2.392l-12.72-8.255
		c-4.839-3.145-12.964-3.43-18.014-0.657l-16.136,8.863c-5.049,2.8-13.344,4.759-18.407,1.986l-17.017-9.352
		c-5.062-2.778-13.297-2.677-18.298,0.244l-16.367,9.562c-4.988,2.907-13.032,0.738-17.892-2.392l-12.728-8.255
		c-4.838-3.145-12.87-3.268-17.79-0.271l-13.33,8.093c-4.927,3.009-13.121,5.144-18.183,2.371l-17.044-9.352
		c-5.056-2.778-13.29-2.677-18.271,0.244l-16.401,9.562c-4.967,2.907-13.026,2.718-17.878-0.427l-21.537-13.975v-24.561
		l21.646,14.721c4.798,3.253,12.66,3.294,17.499,0.129l16.956-11.163c4.839-3.185,12.727-3.185,17.545,0.014l17.912,11.833
		c4.838,3.179,12.687,1.152,17.464-2.107l13.907-9.474c4.778-3.274,12.605-3.274,17.383-0.008l12.972,8.811
		c4.777,3.239,12.646,5.26,17.485,2.095l16.942-11.163c4.825-3.185,12.721-3.185,17.56,0.014l17.912,11.833
		c4.838,3.179,12.808,1.343,17.708-1.707l16.652-10.274c4.919-3.05,12.849-2.874,17.647,0.393l12.951,8.811
		c4.798,3.239,12.646,5.26,17.485,2.095l16.956-11.163c4.832-3.185,12.727-3.185,17.546,0.014l13.256,8.662
		c8.797,5.781,17.708-0.217,22.934-2.684l13.824-6.54c5.226-2.48,13.42-1.83,18.197,1.417l12.972,8.81
		c4.778,3.253,12.626,4.899,17.464,1.721l16.957-11.169c4.824-3.171,12.748-3.171,17.565,0.027l23.056,10.499
		c0,0,12.504,7.881,23.611-0.469l17.153-15.288L563.418,421.294"/>
				<path d="M330.002,290.308c0,0-1.232-31.798-3.212-35.56c-1.07-2.399-3.781-3.531-6.974-4.331
		c0,0-45.521-2.548-54.142-2.656l-28.843-28.775c-6.187-2.711-88.075-6.194-95.279,5.273l-23.401,25.373l-40.988,2.738
		c-5.469,0.589-9.292,38.033-9.292,38.033l47.352-0.014v0.027c0,10.402,8.43,18.812,18.813,18.812c10.396,0,18.82-8.41,18.82-18.812
		v-0.048l102.49-0.041c0,0.034-0.021,0.061-0.021,0.088c0,10.402,8.411,18.812,18.82,18.812c10.383,0,18.834-8.41,18.834-18.812
		c0-0.027-0.021-0.068-0.021-0.108H330.002z"/>
			</g>
		</symbol>
		<symbol id="icon-icon_railReplacement" viewBox="-909 491 100 100">
			<path d="M -832.613 566.81 L -843.365 557.971 C -843.621 557.761 -844.067 557.602 -844.451 557.602 L -868.002 557.602 L -856.61 552.869 C -855.714 552.501 -855.714 551.867 -856.61 551.499 L -869.345 546.029 L -875.807 546.029 L -875.807 546.081 L -861.537 552.185 L -874.527 557.656 L -891.422 557.656 L -891.422 577.385 L -841.444 577.385 C -841.444 577.385 -841.38 577.385 -841.38 577.385 L -837.86 577.385 C -835.813 577.385 -833.956 576.701 -832.55 575.596 C -831.205 574.492 -830.374 572.914 -830.374 571.229 C -830.437 569.492 -831.27 567.915 -832.613 566.81 M -853.027 564.547 L -853.027 560.181 L -844.899 560.181 L -839.589 564.547 L -853.027 564.547 Z"/>
			<rect x="-891.997" y="578.977" width="59.354" height="4.7"/>
			<path d="M -816.7 500.339 L -901.6 500.339 C -902.6 500.339 -903.4 501.139 -903.4 502.139 L -903.4 536.239 C -903.4 537.239 -902.6 538.039 -901.6 538.039 L -890.6 538.039 C -890.6 537.739 -890.6 537.539 -890.6 537.239 C -890.6 531.439 -885.9 526.739 -880.1 526.739 C -874.3 526.739 -869.6 531.439 -869.6 537.239 C -869.6 537.539 -869.6 537.739 -869.6 538.039 L -848.5 538.039 C -848.5 537.739 -848.5 537.439 -848.5 537.039 C -848.5 531.239 -843.8 526.539 -838 526.539 C -832.2 526.539 -827.5 531.239 -827.5 537.039 C -827.5 537.339 -827.5 537.639 -827.5 538.039 L -816.4 538.039 C -815.4 538.039 -814.6 537.239 -814.6 536.239 L -814.6 502.139 C -814.9 501.139 -815.7 500.339 -816.7 500.339 Z M -881.8 522.539 L -899.5 522.539 L -899.5 507.839 L -881.8 507.839 L -881.8 522.539 Z M -860.8 522.539 L -878.5 522.539 L -878.5 507.839 L -860.8 507.839 L -860.8 522.539 Z M -839.8 522.539 L -857.5 522.539 L -857.5 507.839 L -839.8 507.839 L -839.8 522.539 Z M -818.9 522.539 L -836.6 522.539 L -836.6 507.839 L -818.9 507.839 L -818.9 522.539 Z"/>
			<path d="M -872.8 537.339 C -872.8 541.439 -876.1 544.639 -880.1 544.639 C -884.2 544.639 -887.4 541.339 -887.4 537.339 C -887.4 533.339 -884.1 530.039 -880.1 530.039 C -876.1 529.939 -872.8 533.239 -872.8 537.339"/>
			<path d="M -830.708 536.992 C -830.708 541.092 -834.008 544.292 -838.008 544.292 C -842.108 544.292 -845.308 540.992 -845.308 536.992 C -845.308 532.992 -842.008 529.692 -838.008 529.692 C -834.008 529.692 -830.708 532.992 -830.708 536.992"/>
		</symbol>
		<symbol id="icon-icon_bus-withoutBox" viewBox="-909 491 100 100">
			<title>icon_bus-withoutBox</title>
			<path d="M-829.8,558c0,4.1-3.3,7.3-7.3,7.3c-4.1,0-7.3-3.3-7.3-7.3c0-4,3.3-7.3,7.3-7.3C-833.1,550.7-829.8,554-829.8,558"/>
			<path d="M-815.6,521.2h-84.9c-1,0-1.8,0.8-1.8,1.8v34.1c0,1,0.8,1.8,1.8,1.8h11c0-0.3,0-0.5,0-0.8c0-5.8,4.7-10.5,10.5-10.5c5.8,0,10.5,4.7,10.5,10.5c0,0.3,0,0.5,0,0.8h21.1c0-0.3,0-0.6,0-1c0-5.8,4.7-10.5,10.5-10.5c5.8,0,10.5,4.7,10.5,10.5c0,0.3,0,0.6,0,1h11.1c1,0,1.8-0.8,1.8-1.8V523C-813.8,522-814.6,521.2-815.6,521.2z M-880.7,543.4h-17.7v-14.7h17.7V543.4zM-859.7,543.4h-17.7v-14.7h17.7V543.4z M-838.7,543.4h-17.7v-14.7h17.7V543.4z M-817.8,543.4h-17.7v-14.7h17.7V543.4z"/>
			<path d="M-871.7,558.2c0,4.1-3.3,7.3-7.3,7.3c-4.1,0-7.3-3.3-7.3-7.3c0-4,3.3-7.3,7.3-7.3C-875,550.8-871.7,554.1-871.7,558.2"/>
		</symbol>
		<symbol id="icon-icon_ferry" viewBox="-909 491 100 100">
			<title>icon_ferry</title>
			<rect class="contrast-color" x="-905.5" y="498.5" width="94.1" height="85"/>
			<polygon class="ferry ferry-window" points="-855,533 -855,539 -837.5,539 -838.9,533 "/>
			<polygon class="ferry ferry-window" points="-887.4,539 -872,539 -872,533 -886.1,533 "/>
			<rect class="ferry ferry-window" x="-870" y="533" width="13" height="6"/>
			<path class="ferry" d="M-809,497.2c0-3.4-2.8-6.2-6.2-6.2h-87.7c-3.4,0-6.2,2.8-6.2,6.2v87.7c0,3.4,2.8,6.2,6.2,6.2h87.7c3.4,0,6.2-2.8,6.2-6.2V497.2z M-829.7,560.7c-0.1,0-0.2-0.1-0.2-0.1c-2.1-1.1-3.8-2-7.6-2s-5.6,0.9-7.7,2c-2.2,1.1-4.7,2.4-9.5,2.4s-7.3-1.3-9.5-2.4c-2.1-1.1-3.9-2-7.7-2s-5.6,0.9-7.6,2c-2.2,1.1-4.7,2.4-9.5,2.4s-7.3-1.3-9.5-2.4c-1.2-0.6-2.2-1.2-3.7-1.5l1.1-3.9c1.8,0.5,3.2,1.2,4.4,1.8c2.1,1.1,3.9,2,7.6,2c3.8,0,5.6-0.9,7.7-2c2.2-1.1,4.7-2.4,9.5-2.4s7.3,1.3,9.5,2.4c2.1,1.1,3.8,2,7.7,2c3.8,0,5.6-0.9,7.7-2c2.2-1.1,4.7-2.4,9.5-2.4s7.3,1.3,9.5,2.4c0.3,0.1,0.5,0.3,0.8,0.4L-829.7,560.7z M-815.3,540.6l-10,13.8c0,0-0.5-0.3-0.8-0.4c-2.4-1.2-5.6-2.9-11.4-2.9c-5.8,0-9.1,1.7-11.5,2.9c-1.9,1-2.9,1.5-5.7,1.5s-3.8-0.5-5.7-1.5c-2.4-1.2-5.6-2.9-11.5-2.9c-5.8,0-9.1,1.7-11.4,2.9c-1.9,1-2.9,1.5-5.7,1.5s-3.8-0.5-5.7-1.5c-1.4-0.7-3.1-1.6-5.3-2.2l3.2-11.6c0.2-0.6,0.8-1.2,1.5-1.2h4.1l2.6-10.9c0.1-0.8,0.7-1.1,1.4-1.1h30.3v-7.9c0-1.1,0.8-1.6,1.9-2l10.1-3.6c0.1,0,0.3,0,0.4,0c0.5,0,0.9,0.1,1.1,0.5l1.6,6h7c0.8,0,1.3,0.5,1.4,1.4l4.4,17.7l13.1,0.1c0.5,0,0.8,0.4,0.8,0.9C-815.2,540.3-815.3,540.6-815.3,540.6z"/>
		</symbol>
		<symbol id="icon-icon_ferry-withoutBox" viewBox="-909 491 100 100">
			<title>icon_ferry-withoutBox</title>
			<path d="M-823.6,563.5c-2.5-1.3-5.4-2.8-10.9-2.8c-5.5,0-8.4,1.5-10.9,2.8c-2.4,1.2-4.4,2.3-8.8,2.3c-4.4,0-6.4-1.1-8.8-2.3c-2.5-1.3-5.4-2.8-10.9-2.8c-5.5,0-8.4,1.5-10.9,2.8c-2.4,1.2-4.4,2.3-8.8,2.3c-4.4,0-6.4-1.1-8.8-2.3c-1.4-0.7-3-1.5-5.1-2.1l-1.3,4.4c1.6,0.4,2.9,1.1,4.2,1.8c2.6,1.3,5.4,2.8,10.9,2.8c5.5,0,8.4-1.5,10.9-2.8c2.4-1.2,4.4-2.3,8.8-2.3c4.4,0,6.4,1.1,8.8,2.3c2.5,1.3,5.4,2.8,10.9,2.8c5.5,0,8.4-1.5,10.9-2.8c2.4-1.2,4.4-2.3,8.8-2.3c4.4,0,6.4,1.1,8.8,2.3c0.1,0,0.2,0.1,0.3,0.1l2.7-3.8C-823,563.8-823.3,563.7-823.6,563.5z"/>
			<path d="M-809.7,543.1l-15,0l-5-20.3c-0.2-1-0.7-1.3-1.7-1.3h-8l-1.8-7.2c-0.2-0.5-0.6-0.9-1.2-0.9c-0.1,0-0.2,0-0.3,0.1l-11.3,4.1c-1.2,0.5-1.6,1-1.6,2.3v8.8h-35.9c-0.8,0-1.5,0.6-1.6,1.5l-2.9,12.8h-4.7c-0.8,0-1.5,0.5-1.7,1.3l-3.7,13.1c2.6,0.7,4.6,1.7,6.1,2.5c2.2,1.1,3.4,1.7,6.5,1.7c3.2,0,4.4-0.6,6.5-1.7c2.7-1.4,6.5-3.3,13.2-3.3c6.7,0,10.4,1.9,13.2,3.3c2.2,1.1,3.4,1.7,6.5,1.7c3.2,0,4.4-0.6,6.5-1.7c2.7-1.4,6.5-3.3,13.2-3.3c6.7,0,10.4,1.9,13.2,3.3c0.4,0.2,1,0.5,1,0.5l11.4-15.8c0,0,0.2-0.3,0.2-0.6C-808.8,543.5-809.2,543.1-809.7,543.1z M-875.5,543.1h-16.3l1.5-6.8h14.8V543.1z M-855.8,543.1h-16.4v-6.8h16.4V543.1z M-852.5,543.1v-6.8h16.4l1.7,6.8H-852.5z"/>
		</symbol>
		<symbol id="icon-icon_ferry-live" viewBox="0 0 1024 1024">
			<title>icon_ferry-live</title>
			<path fill="rgb(0, 185, 228)" class="path1 fill-color11" d="M1024.007 512c0 282.774-229.233 512.007-512.007 512.007s-512.007-229.233-512.007-512.007c0-282.774 229.233-512.007 512.007-512.007s512.007 229.233 512.007 512.007z"></path>
			<path fill="rgb(0, 139, 171)" class="path2 fill-color7" d="M512 36.118c127.113 0 246.618 49.499 336.501 139.381s139.381 209.388 139.381 336.501-49.502 246.618-139.381 336.501c-89.883 89.883-209.388 139.381-336.501 139.381s-246.618-49.502-336.501-139.381c-89.883-89.883-139.381-209.388-139.381-336.501s49.499-246.618 139.381-336.501c89.883-89.883 209.388-139.381 336.501-139.381zM512-0.007c-282.776 0-512.007 229.231-512.007 512.007s229.231 512.007 512.007 512.007 512.007-229.235 512.007-512.007-229.231-512.007-512.007-512.007v0z"></path>
			<path fill="rgb(255, 255, 255)" class="path3 fill-color14" d="M780.236 782.497c10.624 0 19.32 7.727 19.32 18.355 0 10.624-8.695 18.355-19.32 18.355h-539.068c-9.66 0-18.355-7.727-18.355-18.355s8.695-18.355 18.355-18.355h539.068zM723.237 752.553h-427.97l-21.252-183.555c0 0 77.286-20.288 129.454-31.88 46.37-9.66 101.435-16.426 105.301-16.426s59.895 6.763 105.301 16.426c52.168 11.593 129.454 31.88 129.454 31.88l-20.288 183.555zM321.35 519.727v-134.284c0-17.387-4.83-40.576 40.572-40.576h84.048v-126.553c0.968-6.763 5.798-12.561 12.557-13.525h100.471c6.763 0.968 12.557 6.763 12.557 13.525v126.553h84.048c45.406 0 40.572 23.185 40.572 40.576v134.284c-26.082-6.763-46.37-11.593-82.116-19.323-46.37-9.66-102.404-16.422-105.301-17.391-2.901 0.968-58.931 7.727-105.301 17.391l-82.109 19.323zM377.384 415.394c0 20.288 15.458 35.746 35.746 35.746 20.284 0 35.742-15.458 35.742-35.746s-15.458-35.746-35.742-35.746c-20.288 0-35.746 15.458-35.746 35.746zM473.025 415.394c0 20.288 16.426 35.746 35.746 35.746 20.284 0 35.742-15.458 35.742-35.746s-15.458-35.746-35.742-35.746c-19.323 0-35.746 15.458-35.746 35.746zM568.666 415.394c0 20.288 16.426 35.746 35.742 35.746 20.288 0 35.746-15.458 35.746-35.746s-15.458-35.746-35.746-35.746c-19.32 0-35.742 15.458-35.742 35.746z"></path>
		</symbol>
		<symbol id="icon-icon_rail" viewBox="-909 491 100 100">
			<title>icon_rail</title>
			<rect class="contrast-color" x="-905.5" y="498.5" width="94.1" height="85"/>
			<polygon class="rail" points="-848,530 -848,537 -828.8,537 -836,530 	"/>
			<path class="rail" d="M-809,497.2c0-3.4-2.8-6.2-6.2-6.2h-87.6c-3.4,0-6.2,2.8-6.2,6.2v87.6c0,3.4,2.8,6.2,6.2,6.2h87.6c3.4,0,6.2-2.8,6.2-6.2
				V497.2z M-828,567h-72v-4h72V567z M-819.2,554.9c-1.8,1.8-4.4,3-7.2,3h-4.8h-0.2H-900V525h23.3l17.8-9.1l-19.5-10v0.1h8.8l17.5,9
				c1.2,0.6,1.2,1.6,0,2.2l-15.6,7.8h32.3c0.5,0,1.1,0.3,1.5,0.6l14.7,14.8c1.9,1.8,3,4.4,3,7.3C-816.2,550.5-817.3,553.1-819.2,554.9
				z"/>
		</symbol>
		<symbol id="icon-icon_rail-withoutBox" viewBox="-909 491 100 100">
			<title>icon_rail-withoutBox</title>
			<path d="M-814.6,540.3l-16.8-16.8c-0.4-0.4-1.1-0.7-1.7-0.7h-36.8l17.8-9c1.4-0.7,1.4-1.9,0-2.6l-19.9-10.4h-10.1l0,0.1l22.3,11.6l-20.3,10.4h-26.4v37.5l78.1,0c0,0,0.1,0,0.1,0l5.5,0c3.2,0,6.1-1.3,8.3-3.4c2.1-2.1,3.4-5.1,3.4-8.3C-811.2,545.4-812.5,542.4-814.6,540.3 M-846.5,536v-8.3h12.7l8.3,8.3H-846.5z"/>
			<rect x="-906.5" y="566" width="81.3" height="4.7"/>
		</symbol>
		<symbol id="icon-icon_rail-live" viewBox="0 0 1024 1024">
			<title>icon_rail-live</title>
			<path fill="rgb(140, 71, 153)" class="path1 fill-color10" d="M1024.007 512c0 282.774-229.233 512.007-512.007 512.007s-512.007-229.233-512.007-512.007c0-282.774 229.233-512.007 512.007-512.007s512.007 229.233 512.007 512.007z"></path>
			<path fill="rgb(105, 53, 115)" class="path2 fill-color6" d="M512 36.118c127.113 0 246.618 49.499 336.501 139.381s139.381 209.388 139.381 336.501-49.502 246.618-139.381 336.501c-89.883 89.883-209.388 139.381-336.501 139.381s-246.618-49.502-336.501-139.381c-89.879-89.883-139.381-209.388-139.381-336.501s49.502-246.618 139.381-336.501c89.883-89.883 209.388-139.381 336.501-139.381zM512-0.007c-282.776 0-512.007 229.231-512.007 512.007s229.235 512.007 512.007 512.007 512.007-229.235 512.007-512.007c0-282.776-229.231-512.007-512.007-512.007v0z"></path>
			<path fill="rgb(255, 255, 255)" class="path3 fill-color14" d="M767.588 388.232v257.344c0 20.479-6.232 28.495-33.838 50.756-19.591 16.029-28.492 23.153-59.66 23.153h-57.88v38.289h-205.696v-38.289h-58.772c-31.165 0-40.070-7.124-60.553-23.153-27.607-21.372-34.727-30.276-34.727-50.756v-257.344c0-16.029 10.686-43.632 24.041-73.016 16.029-33.838 29.388-60.553 42.743-72.127 18.698-17.81 105.073-38.289 188.779-38.289 86.375 0 170.969 20.479 190.56 38.289 13.355 11.574 25.822 38.289 41.854 72.127 12.463 29.384 23.149 56.991 23.149 73.016zM720.394 784.491c9.797 0 16.917 8.013 16.917 16.917 0 9.793-7.124 17.81-16.917 17.81h-414.957c-9.797 0-17.81-8.016-17.81-17.81 0-8.905 8.013-16.917 17.81-16.917h40.959v-37.4h33.838v37.4h265.356v-37.4h32.95v37.4h41.854zM700.804 380.22c3.562-15.136-7.124-26.714-22.26-26.714h-332.144c-15.136 0-24.933 11.578-22.26 26.714l41.851 177.2c2.67 15.136 17.81 26.714 32.946 26.714h227.96c15.14 0 30.276-11.578 32.95-26.714l40.959-177.2zM377.564 274.254v15.136c0 11.578 9.797 21.372 21.372 21.372h227.96c11.578 0 20.483-9.797 20.483-21.372v-15.136h-269.814zM422.088 650.030c0-12.467-10.686-22.26-23.153-22.26s-21.372 9.797-21.372 22.26 8.905 21.372 21.372 21.372c12.467 0 23.153-8.905 23.153-21.372zM649.156 647.357c0-12.467-9.793-22.26-22.26-22.26s-22.26 9.797-22.26 22.26 9.793 21.372 22.26 21.372c12.467 0 22.26-8.905 22.26-21.372z"></path>
		</symbol>
		<symbol id="icon-icon_subway" viewBox="-909 491 100 100">
			<title>icon_subway</title>
			<rect class="contrast-color" x="-905.5" y="498.5" width="94.1" height="85"/>
			<path class="subway" d="M-859.1,507.7c-18.4,0-33.3,14.9-33.3,33.3c0,18.4,14.9,33.3,33.3,33.3s33.3-14.9,33.3-33.3C-825.8,522.6-840.7,507.7-859.1,507.7z M-844,530h-11v34h-8v-34h-11v-6h30V530z"/>
			<path class="subway" d="M-809,497.2c0-3.4-2.8-6.2-6.2-6.2h-87.6c-3.4,0-6.2,2.8-6.2,6.2v87.6c0,3.4,2.8,6.2,6.2,6.2h87.6c3.4,0,6.2-2.8,6.2-6.2V497.2z M-859.1,579.3c-21.1,0-38.3-17.2-38.3-38.3s17.2-38.3,38.3-38.3s38.3,17.2,38.3,38.3S-837.9,579.3-859.1,579.3z"/>
		</symbol>
		<symbol id="icon-icon_subway-withoutBox" viewBox="-909 491 100 100">
			<title>icon_subway-withoutBox</title>
			<polygon points="-863.2,566.8 -855.1,566.8 -855.1,529 -842.2,529 -842.2,522.2 -876,522.2 -876,529 -863.2,529 	"/>
			<path d="M-859.1,497.3c-24.1,0-43.7,19.6-43.7,43.7c0,24.1,19.6,43.7,43.7,43.7s43.7-19.6,43.7-43.7C-815.4,516.9-835,497.3-859.1,497.3z M-859.1,503c20.9,0,38,17,38,38s-17,38-38,38s-38-17-38-38S-880,503-859.1,503z"/>
		</symbol>
		<symbol id="icon-icon_subway-live" viewBox="0 0 1024 1024">
			<title>icon_subway-live</title>
			<path fill="rgb(255, 99, 25)" class="path1 fill-color13" d="M1024.007 512c0 282.774-229.233 512.007-512.007 512.007s-512.007-229.233-512.007-512.007c0-282.774 229.233-512.007 512.007-512.007s512.007 229.233 512.007 512.007z"></path>
			<path fill="rgb(191, 74, 19)" class="path2 fill-color9" d="M512 36.118c127.113 0 246.618 49.499 336.501 139.381s139.381 209.388 139.381 336.501-49.502 246.618-139.381 336.501c-89.883 89.883-209.388 139.381-336.501 139.381s-246.618-49.499-336.501-139.381c-89.883-89.883-139.381-209.388-139.381-336.501s49.499-246.618 139.381-336.501c89.883-89.883 209.388-139.381 336.501-139.381zM512-0.007c-282.776 0-512.007 229.231-512.007 512.007s229.231 512.007 512.007 512.007 512.007-229.235 512.007-512.007-229.231-512.007-512.007-512.007v0z"></path>
			<path fill="rgb(255, 255, 255)" class="path3 fill-color14" d="M792.991 297.056v387.846c0 27.704-17.81 47.494-43.534 51.449-64.313 11.874-142.473 20.776-237.457 20.776-93.994 0-172.157-9.891-236.467-20.776-27.701-3.956-44.524-25.725-44.524-53.429v-387.842c0-28.694 17.81-48.48 44.524-51.449 64.313-11.874 142.473-20.776 236.467-20.776 94.98 0 173.144 9.895 237.457 20.776 26.714 2.966 43.534 24.735 43.534 53.425zM320.057 653.242c0-12.864-11.871-24.735-24.735-24.735-13.85 0-25.725 11.874-26.711 24.735 0 13.85 11.871 25.725 26.711 26.714 12.864 0 24.735-11.871 24.735-26.714zM732.637 585.962c12.864 0 19.789-8.905 19.789-22.755v-250.318c0-12.864-8.905-23.745-21.765-23.745h-438.309c-11.874 0-19.789 9.895-19.789 23.745v250.318c0 12.864 9.895 22.755 22.755 22.755h437.319zM620.834 795.719c9.895 0 19.789 10.884 19.789 21.765 0 9.895-9.895 19.789-19.789 19.789h-213.712c-9.895 0-19.789-9.895-19.789-19.789 0-10.884 9.895-21.765 19.789-21.765h213.712zM755.396 653.242c0-12.864-10.884-24.735-24.735-24.735-12.864 0-24.735 11.874-25.725 24.735 0 13.85 10.884 25.725 25.725 26.714 13.85 0 24.735-11.871 24.735-26.714z"></path>
		</symbol>
		<symbol id="icon-icon_tram" viewBox="-909 491 100 100">
			<title>icon_tram</title>
			<rect class="contrast-color" x="-900.9" y="498.5" width="85" height="85"/>
			<rect class="tram" x="-877" y="530" width="16" height="14"/>
			<rect class="tram" x="-858" y="530" width="16" height="14"/>
			<polygon class="tram" points="-895.5,544 -880,544 -880,530 -892.7,530 "/>
			<polygon class="tram" points="-839,530 -839,544 -823.4,544 -826.2,530 "/>
			<path class="tram" d="M-809,497.2c0-3.4-2.8-6.2-6.2-6.2h-87.6c-3.4,0-6.2,2.8-6.2,6.2v87.6c0,3.4,2.8,6.2,6.2,6.2h87.6c3.4,0,6.2-2.8,6.2-6.2V497.2z M-821,567h-77v-4h77V567z M-820.3,552.3l-3.1,4.7H-834v1c0,1.6-1.2,3-2.8,3h-8.9c-1.6,0-2.3-1.5-2.3-3v-1h-22v1c0,1.6-1.7,3-3.3,3h-8.9c-1.6,0-2.8-1.5-2.8-3v-1h-10.6l-3.1-4.7c-1-1.5-1.5-4.3-1.1-6.1l0.2-1l0,0l2.9-13.1l1.5-7.3c0.2-0.8,0.9-1.8,1.7-1.8h29.5l9.3-7.7l-12.2-9.3h6.2l10.3,8.1c0.4,0.4,0.7,0.8,0.7,1.4c0,0.6-0.2,0.7-0.7,1.1l-7.7,6.4h32.4c0.8,0,1.6,1.1,1.7,1.9l0.4,2.1l0,0l2.7,12.2l1.6,7C-818.8,548-819.3,550.8-820.3,552.3z"/>
		</symbol>
		<symbol id="icon-icon_tram-withoutBox" viewBox="-909 491 100 100">
			<title>icon_tram-withoutBox</title>
			<path d="M-813.6,546.9l-1.8-8l-3.1-14h0l-0.4-1.9c-0.2-0.9-1.1-1.6-2-1.6h-37l8.8-7.7c0.5-0.4,0.8-1.1,0.7-1.7c0-0.7-0.3-1.3-0.8-1.7l-11.7-9.4h-7.1l14,11.3l-10.6,9.3h-33.6c-0.9,0-1.8,0.7-2,1.6l-1.7,7.9l-3.3,14.9l0,0l-0.3,1.2c-0.5,2.1,0.1,5.2,1.3,6.9l3.5,5.3h12v1.3c0,1.8,1.5,3.2,3.2,3.2h10.2c1.8,0,3.2-1.5,3.2-3.2v-1.3h25v1.3c0,1.8,1.5,3.2,3.2,3.2h10.2c1.8,0,3.2-1.5,3.2-3.2v-1.3h12l3.5-5.3C-813.7,552.1-813.1,548.9-813.6,546.9 M-882.5,543.6h-18.1l3.3-14.7h14.9V543.6zM-861.1,543.6h-18.1v-14.7h18.1V543.6z M-839.7,543.6h-18.1v-14.7h18.1V543.6z M-836.5,543.6v-14.7h14.8l3.3,14.7H-836.5z"/>
		</symbol>
		<symbol id="icon-icon_tram-live" viewBox="0 0 1024 1024">
			<title>icon_tram-live</title>
			<path fill="rgb(0, 152, 95)" class="path1 fill-color5" d="M1024.007 512c0 282.774-229.233 512.007-512.007 512.007s-512.007-229.233-512.007-512.007c0-282.774 229.233-512.007 512.007-512.007s512.007 229.233 512.007 512.007z"></path>
			<path fill="rgb(0, 114, 71)" class="path2 fill-color3" d="M512 36.118c127.113 0 246.618 49.499 336.501 139.381s139.381 209.388 139.381 336.501-49.502 246.618-139.381 336.501c-89.883 89.883-209.388 139.381-336.501 139.381s-246.618-49.499-336.501-139.381c-89.883-89.883-139.381-209.388-139.381-336.501s49.499-246.618 139.381-336.501c89.883-89.883 209.388-139.381 336.501-139.381zM512-0.007c-282.776 0-512.007 229.231-512.007 512.007s229.235 512.007 512.007 512.007 512.007-229.235 512.007-512.007c0-282.776-229.231-512.007-512.007-512.007v0z"></path>
			<path fill="rgb(255, 255, 255)" class="path3 fill-color14" d="M694.323 312.543c5.195 12.467 8.309 30.128 8.309 43.632v373.995c0 18.698-13.504 30.128-31.165 33.242-58.176 11.426-108.039 15.581-159.983 15.581-54.021 0-102.848-4.154-158.947-15.581-18.702-3.118-31.165-14.544-31.165-33.242v-373.992c0-13.507 0-31.165 5.195-43.632l17.658-42.595c6.235-12.467 13.507-17.662 28.051-21.816 41.555-11.426 75.837-15.584 118.432-16.621v-36.363h-75.837c-12.467 0-21.816-9.349-21.816-19.739 0-12.467 9.349-21.816 21.816-21.816h195.306c10.39 0 18.702 9.349 18.702 21.816 0 10.39-8.312 19.739-18.702 19.739h-76.878v36.36c41.555 1.037 73.76 5.195 118.432 16.621 12.467 3.118 19.739 9.349 24.933 21.816l17.658 42.595zM655.882 829.904c9.353 0 19.742 9.349 19.742 18.698 0 13.507-10.39 21.816-19.742 21.816h-287.765c-11.43 0-18.702-8.312-18.702-21.816 0-9.349 7.272-18.698 18.702-18.698h31.165v-31.165l38.437 5.195v25.97h148.561v-25.97l38.441-5.195v31.165h31.161zM407.595 669.917c0-14.544-10.39-25.97-24.933-25.97-13.504 0-23.893 11.43-23.893 25.97 0 13.507 10.39 22.856 23.893 22.856 14.544 0 24.933-9.353 24.933-22.856zM359.805 600.311c41.555 10.39 97.653 18.702 151.678 18.702 55.058 0 111.16-7.272 150.634-18.702v-252.445h-302.312v252.445zM669.39 669.917c0-14.544-11.43-25.97-25.97-25.97-13.504 0-22.856 11.43-22.856 25.97 0 13.507 9.353 22.856 22.856 22.856 14.544 0 25.97-9.353 25.97-22.856z"></path>
		</symbol>
		<symbol id="icon-icon_airplane" viewBox="-909 491 100 100">
			<title>icon_airplane</title>
			<rect class="contrast-color" x="-900.3" y="498.6" width="85" height="85"/>
			<path class="airplane" d="M-809,497.2c0-3.4-2.8-6.2-6.2-6.2h-87.6c-3.4,0-6.2,2.8-6.2,6.2v87.6c0,3.4,2.8,6.2,6.2,6.2h87.6c3.4,0,6.2-2.8,6.2-6.2V497.2z M-824.8,545H-846l-18.8,30h-8.2l9.4-30h-14.7l-5.3,7h-7.1l3.5-11l-3.5-11h7.1l5.3,6.6h14.7L-873,506h8.2l18.8,30.6h21.2c1.9,0,3.5,2.2,3.5,4.2C-821.2,542.8-822.8,545-824.8,545z"/>
		</symbol>
		<symbol id="icon-icon_airplane-withoutBox" viewBox="-909 491 100 100">
			<title>icon_airplane-withoutBox</title>
			<path class="path1" d="M-864.2,536l-10.7-34.9h9.4l21.4,34.9l24.1,0c2.2,0,4,2.5,4,4.7s-1.8,4.7-4,4.7h-24.1l-21.4,34.8h-9.4l10.7-34.8H-881l-6,7.4h-8l4-12.1l-4-12.1h8l6,7.4L-864.2,536z"/>
		</symbol>
		<symbol id="icon-icon_bus-stop" viewBox="0 0 100 100">
			<title>icon_bus-stop</title>
			<path class="path1" d="M56.882-0.007c31.422 0 56.89 25.468 56.89 56.89v967.128h-113.779v-967.128c0-31.422 25.468-56.89 56.89-56.89z"></path>
			<path class="path2" d="M199.107 199.107h142.224v85.335h-142.224v-85.335z"></path>
			<path class="path3" d="M199.107 312.886h654.231v28.445h-654.231v-28.445z"></path>
			<path class="path4" d="M369.776 199.107h142.224v85.335h-142.224v-85.335z"></path>
			<path class="path5" d="M540.445 199.107h142.224v85.335h-142.224v-85.335z"></path>
			<path class="path6" d="M967.118 56.882h-910.235v512.007h910.235c31.422 0 56.89-25.468 56.89-56.89v-398.228c0-31.422-25.468-56.89-56.89-56.89zM881.783 398.221c0 15.711-12.734 28.445-28.445 28.445h-59.371c1.579 4.454 2.482 9.226 2.482 14.222 0 23.564-19.103 42.667-42.667 42.667s-42.667-19.103-42.667-42.667c0-4.996 0.903-9.768 2.482-14.222h-374.747c1.579 4.454 2.482 9.226 2.482 14.222 0 23.564-19.103 42.667-42.667 42.667s-42.667-19.103-42.667-42.667c0-4.996 0.903-9.768 2.482-14.222h-59.371c-15.711 0-28.445-12.734-28.445-28.445v-199.114c0-15.711 12.734-28.445 28.445-28.445h654.231c15.711 0 28.445 12.734 28.445 28.445v199.114z"></path>
			<path class="path7" d="M711.114 199.107h142.224v85.335h-142.224v-85.335z"></path>
		</symbol>
		<symbol id="icon-icon_busstation-withoutBox" viewBox="20 -10 200 200">
			<path
					d="M 162.02168,175.10433 C 157.98823,174.05314 153.47692,171.63073 151.06972,169.22353 C 149.30418,167.45798 149.0294,166.81201 149.0294,164.42696 L 149.0294,161.67071 L 152.11551,164.65984 C 158.26611,170.61717 167.53201,172.29842 183.2424,170.30765 L 185.98522,169.96009 L 185.98522,172.28244 C 185.98522,173.94654 185.6988,174.72585 184.97471,175.0319 C 183.04299,175.84838 165.09394,175.90502 162.02168,175.1043 L 162.02168,175.10433 L 162.02168,175.10433 z M 118.71408,146.394 C 109.504,142.62702 101.72303,139.45411 101.42304,139.34308 C 101.10153,139.22409 101.43884,135.4132 102.24463,130.06059 C 103.11374,124.28743 103.83821,121.06742 104.23365,121.22008 C 104.57575,121.35215 112.13132,124.27085 121.02382,127.70608 C 129.91631,131.14132 137.71168,133.90899 138.34686,133.85648 C 139.70315,133.74434 183.48912,125.16129 184.97471,124.71636 C 185.90861,124.43666 185.98522,125.13893 185.98522,133.98029 C 185.98522,139.24192 185.8839,143.54688 185.76006,143.54688 C 185.63623,143.54688 183.00917,144.06657 179.92215,144.70175 C 176.83514,145.33693 173.98041,145.85662 173.57831,145.85662 C 173.11001,145.85662 172.7536,144.72756 172.58674,142.71548 C 172.05578,136.31285 167.17649,132.2647 161.7511,133.7256 C 156.42157,135.1607 151.33914,142.22029 151.33914,148.18801 C 151.33914,149.44646 151.24934,150.47609 151.13958,150.47609 C 151.02983,150.47609 147.45695,151.12324 143.19986,151.91419 C 138.94276,152.70514 135.45968,153.32771 135.45968,153.29766 C 135.45968,153.26766 127.92416,150.16098 118.71408,146.394 L 118.71408,146.394 z M 132.12613,147.18098 C 134.02287,144.2857 132.73293,137.77253 130.26277,137.77253 C 127.8454,137.77253 126.58049,144.4052 128.45289,147.26284 C 129.69928,149.16507 130.84301,149.13958 132.12613,147.18094 L 132.12613,147.18098 L 132.12613,147.18098 z M 110.01982,138.79892 C 111.0999,137.25687 111.18537,132.84759 110.1739,130.84843 C 107.78299,126.12278 103.70404,133.11914 106.01311,137.98515 C 107.16187,140.40599 108.67844,140.71401 110.01982,138.79892 L 110.01982,138.79892 z M 153.99937,151.87245 C 153.8066,151.3701 153.65458,149.61614 153.66156,147.97477 C 153.68906,141.50116 158.43613,136.04023 164.03598,136.04023 C 166.03692,136.04023 168.82536,138.26556 169.81341,140.65093 C 170.63559,142.63585 170.34916,148.44265 169.38133,149.41048 C 168.85478,149.93703 157.06231,152.68692 155.00988,152.76176 C 154.64687,152.77496 154.19214,152.37481 153.99937,151.87245 L 153.99937,151.87245 z M 164.08712,149.36564 C 167.61746,145.8353 165.2486,140.50174 160.89268,142.17327 C 158.34635,143.15038 157.42037,148.66178 159.55171,150.15464 C 161.36657,151.42582 162.16602,151.28674 164.08712,149.36564 z M 80.105538,144.09969 C 75.4443,143.37336 71.0742,141.24469 67.629548,138.02262 C 64.900829,135.47022 64.723937,135.13146 64.723937,132.45811 L 64.723937,129.61147 L 67.518374,132.48041 C 72.855158,137.95949 78.964902,139.89612 88.976193,139.282 C 92.310878,139.07744 95.623909,138.75374 96.338485,138.56267 C 97.54444,138.24021 97.637713,138.40132 97.637713,140.80669 L 97.637713,143.3981 L 94.894898,143.74291 C 89.126262,144.4681 83.362258,144.60716 80.105538,144.09969 L 80.105538,144.09969 z M 120.72213,124.55912 L 103.82606,117.89568 L 104.20255,110.07799 C 104.40961,105.77826 104.73962,100.03818 104.93591,97.322265 L 105.29278,92.384215 L 144.33977,84.711895 C 165.81561,80.492105 183.97647,76.903235 184.69721,76.736605 L 186.00766,76.433635 L 185.85208,89.346965 L 185.6965,102.2603 L 174.32452,104.6402 C 168.06993,105.94915 162.54821,107.17526 162.05403,107.36489 C 161.30459,107.65248 161.15553,108.95802 161.15553,115.23446 C 161.15553,120.87012 161.33674,122.75886 161.87732,122.75774 C 162.27431,122.75716 167.60832,121.71753 173.73068,120.448 C 179.85305,119.17846 185.11492,118.13975 185.42374,118.13975 C 185.73255,118.13975 185.98522,118.86449 185.98522,119.75028 L 185.98522,121.36081 L 172.55986,124.08748 C 165.17592,125.58714 158.93962,126.81124 158.70143,126.80771 C 158.46324,126.80371 158.26835,121.99413 158.26835,116.11873 C 158.26835,104.89061 158.24965,104.81487 155.71713,105.78669 C 154.92918,106.08905 154.80375,107.62399 154.80375,116.96351 L 154.80375,127.78985 L 146.21098,129.5062 L 137.6182,131.22256 L 120.72213,124.55912 L 120.72213,124.55912 z M 135.957,125.79076 C 136.11453,125.23498 136.41217,121.66211 136.61842,117.85104 L 136.99343,110.92182 L 123.23427,105.56778 C 115.66674,102.62305 109.17962,100.21948 108.81845,100.22651 C 108.3876,100.23491 107.98745,102.87042 107.65485,107.89029 C 107.37604,112.09834 107.17617,115.60892 107.21068,115.69156 C 107.29298,115.88875 134.76334,126.73426 135.27641,126.77216 C 135.4932,126.78816 135.79947,126.34654 135.957,125.79076 L 135.957,125.79076 z M 146.14223,126.20505 C 151.98394,124.92813 151.33914,126.04247 151.33914,117.22369 C 151.33914,110.04563 151.25584,109.42472 150.32863,109.69512 C 149.77285,109.85722 147.67123,110.3028 145.65836,110.68531 C 143.6455,111.06781 141.91296,111.66728 141.80828,112.01745 C 141.70359,112.36762 141.45929,115.83723 141.26538,119.7277 L 140.91282,126.80127 L 142.2283,126.78717 C 142.95181,126.77917 144.71307,126.51746 146.14223,126.20506 L 146.14223,126.20505 z M 34.14278,114.1388 C 24.786485,110.38063 17.027574,106.99449 16.90076,106.61404 C 16.496919,105.40252 19.222756,89.268025 19.831276,89.268025 C 20.152407,89.268025 27.814741,92.128225 36.858686,95.624015 L 53.302221,101.97999 L 77.220507,97.567025 C 90.375559,95.139895 101.28571,93.300975 101.46527,93.480545 C 101.64485,93.660115 101.57168,97.787785 101.30268,102.65314 L 100.8136,111.49925 L 96.482843,112.40995 C 94.100925,112.91082 91.307585,113.48898 90.275421,113.69474 L 88.398758,114.06884 L 88.386058,111.62918 C 88.358228,106.27658 84.967038,101.97167 80.435319,101.53623 C 73.847598,100.90323 67.033679,108.21745 67.033679,115.92188 C 67.033679,117.7215 66.799229,118.17416 65.734451,118.43038 C 63.357799,119.00225 52.320526,121.02736 51.732804,120.99938 C 51.414586,120.98428 43.499075,117.89698 34.14278,114.1388 L 34.14278,114.1388 z M 48.558411,113.51045 C 49.743051,109.11104 47.140304,104.04697 44.864304,106.32297 C 43.417269,107.77001 42.728243,111.17836 43.387676,113.62731 C 44.482716,117.69397 47.449963,117.62692 48.558411,113.51045 z M 26.61325,102.59469 C 26.61325,99.122105 24.846752,96.443315 23.154146,97.349165 C 20.586158,98.723515 20.553367,104.89958 22.948119,107.29434 C 23.64705,107.4678 24.282986,107.89325 25.263294,106.94121 C 26.273601,105.76666 26.61325,104.67307 26.61325,102.59469 L 26.61325,102.59469 z M 69.693912,119.53611 C 69.501135,119.03376 69.343414,117.29688 69.343414,115.67638 C 69.343414,110.25415 72.697138,105.55507 77.487622,104.26513 C 82.16262,103.00629 86.152162,106.7891 86.030566,112.36541 C 85.915189,117.65644 85.911637,117.65977 78.850004,119.10232 C 71.203164,120.66441 70.146095,120.71449 69.693912,119.53611 L 69.693912,119.53611 z M 79.974627,116.94058 C 81.669889,114.92587 81.889897,112.64508 80.57065,110.76159 C 79.295974,108.94173 77.237021,109.14037 75.457807,111.25485 C 73.728153,113.31042 73.494384,116.08753 74.91854,117.66121 C 76.342153,119.23429 78.276594,118.95858 79.974627,116.94058 L 79.974627,116.94058 z M 36.139139,92.364195 L 19.391752,85.718035 L 20.145981,73.201525 C 20.560806,66.317445 21.081299,60.528655 21.302632,60.337545 C 21.708436,59.987155 183.92123,27.482338 185.26342,27.482458 C 185.81892,27.482508 185.98522,30.400039 185.98522,40.145146 L 185.98522,52.807765 L 182.66497,53.476585 C 180.83883,53.844435 175.73078,54.902245 171.31375,55.827265 C 166.89671,56.752285 163.19391,57.509125 163.0853,57.509125 C 162.97669,57.509125 162.88783,61.276885 162.88783,65.881925 C 162.88783,73.471225 162.98243,74.254685 163.89834,74.254315 C 164.45412,74.254095 169.58607,73.346595 175.30268,72.237635 C 181.01928,71.128685 185.76146,70.219415 185.84086,70.217025 C 185.92026,70.214725 185.98522,70.960705 185.98522,71.874945 L 185.98522,73.537205 L 174.8696,75.660455 C 168.75601,76.828255 143.61595,81.610475 119.0028,86.287635 L 74.251609,94.791545 L 74.094558,83.881675 L 73.937508,72.971805 L 72.650972,73.316665 C 71.943378,73.506335 71.169552,73.665075 70.93136,73.669415 C 70.693168,73.674015 70.498284,78.586195 70.498284,84.585955 L 70.498284,95.494615 L 68.945412,95.884365 C 66.511952,96.495115 53.634383,99.088665 53.240195,99.047385 C 53.045678,99.027005 45.350202,96.019585 36.139139,92.364195 z M 52.106368,85.847835 L 52.309092,78.748075 L 39.316812,73.604995 C 32.171059,70.776295 25.764647,68.314185 25.080342,68.133635 C 23.868719,67.813975 23.825424,67.999365 23.426278,75.216455 C 23.200847,79.292545 22.981196,82.856565 22.938164,83.136515 C 22.895134,83.416455 29.226142,86.159475 37.007074,89.232115 C 49.058316,93.991085 51.209736,94.680135 51.528933,93.883165 C 51.735024,93.368605 51.99487,89.752695 52.106368,85.847835 z M 62.61234,93.827785 L 67.033676,93.084875 L 67.033676,85.172845 L 67.033676,77.260815 L 62.40996,78.264225 C 59.866921,78.816105 57.69363,79.373995 57.58043,79.503995 C 57.467229,79.633995 57.198047,83.215425 56.982242,87.462735 C 56.654028,93.922515 56.720768,95.134885 57.390436,94.877905 C 57.830748,94.708945 60.180606,94.236385 62.61234,93.827785 L 62.61234,93.827785 z M 90.275421,88.282675 L 102.25719,86.095705 L 102.25719,78.154195 C 102.25719,72.174065 102.07893,70.218185 101.5354,70.234955 C 101.13841,70.247195 95.486769,71.370595 88.976193,72.731365 L 77.138782,75.205515 L 76.977661,82.814205 C 76.853391,88.682955 76.985461,90.428245 77.555095,90.446265 C 77.961303,90.459145 83.685448,89.485505 90.275421,88.282675 z M 117.52079,83.177395 C 123.57611,82.050665 128.9852,80.993775 129.54098,80.828745 C 130.44066,80.561595 130.55149,79.646315 130.55149,72.483515 C 130.55149,68.058665 130.35661,64.438185 130.11841,64.438005 C 129.88022,64.437825 124.29354,65.514945 117.70357,66.831605 L 105.7218,69.225545 L 105.7218,77.225765 C 105.7218,81.625885 105.8994,85.225985 106.11645,85.225985 C 106.33351,85.225985 111.46546,84.304115 117.52079,83.177395 L 117.52079,83.177395 z M 147.62423,77.458195 C 153.67956,76.331465 158.81151,75.409595 159.02857,75.409595 C 159.24563,75.409595 159.42322,71.544585 159.42322,66.820685 L 159.42322,58.231775 L 147.22753,60.766535 C 140.5199,62.160655 134.8033,63.442545 134.52397,63.615175 C 133.93385,63.979895 133.82418,79.067245 134.40741,79.650465 C 134.62262,79.865685 135.20728,79.921405 135.70664,79.774285 C 136.20599,79.627165 141.56891,78.584925 147.62423,77.458195 L 147.62423,77.458195 z" id="path4494"
			/>
		</symbol>
		<symbol id="icon-icon_lift" viewBox="0 0 100 100" enable-background="new 0 0 100 100">
			<path d="M94.72,0.058C94.805,0.043,94.977,0.015,95.062,0c0.244,0.93,0.547,1.844,0.809,2.769l-0.046,0.1  c-10.728,3.187-21.462,6.352-32.188,9.545c0.147,0.57,0.333,1.13,0.469,1.704c-3.791,1.064-7.576,2.151-11.358,3.243  c0.001,11.393-0.001,22.787,0,34.179c5.075,0.002,10.149,0,15.224,0c0.002,1.115,0,2.229,0,3.342c3.139,0.002,6.277,0,9.416,0    c2.066,0.062,3.892,1.887,3.952,3.953C81.34,71.218,81.336,83.6,81.34,95.982c-0.023,2.092-1.871,3.962-3.963,4.018    c-17.41-0.001-34.82,0-52.23-0.001c-2.05-0.055-3.862-1.846-3.962-3.89c0-12.424,0-24.85,0-37.273    c0.061-2.066,1.886-3.892,3.951-3.953c3.139,0,6.278,0.002,9.417,0c0.002-1.113-0.002-2.227,0-3.342c5.075,0,10.149,0,15.224,0    c-0.004-11.109,0.007-22.219-0.005-33.329c-3.021,0.848-6.038,1.714-9.053,2.584c-0.213-0.463-0.288-0.973-0.461-1.451    c-10.481,3.083-33.56,9.991-34.653,10.215c-0.248-0.929-0.546-1.844-0.808-2.769l0.047-0.099    c10.476-3.109,33.559-9.902,34.591-10.284c-0.137-0.455-0.278-0.907-0.376-1.372c7.797-2.215,15.593-4.435,23.38-6.684    c0.164,0.357,0.246,0.746,0.346,1.126C63.09,9.46,84.371,3.129,94.72,0.058z M27.869,61.567c0,6.684,0,13.367,0,20.051    c4.456,0,8.912,0,13.368,0c0-6.684,0-13.367,0-20.051C36.78,61.567,32.325,61.567,27.869,61.567z M44.578,61.567    c0,6.684,0,13.367,0,20.051c4.456,0,8.912,0,13.367,0c0-6.684,0-13.367,0-20.051C53.49,61.567,49.034,61.567,44.578,61.567z     M61.287,61.567c0,6.684,0,13.367,0,20.051c4.456,0,8.912,0,13.367,0c0-6.684,0-13.367,0-20.051    C70.199,61.567,65.743,61.567,61.287,61.567z"/>
			<path d="M53.297,2.492c0.998-0.24,2.104,0.021,2.893,0.678c0.787,0.65,1.256,1.671,1.211,2.693   c-0.011,1.161-0.692,2.286-1.713,2.838c-1.412,0.824-3.402,0.411-4.342-0.935c-0.98-1.267-0.839-3.235,0.303-4.358   C52.09,2.947,52.673,2.629,53.297,2.492z"></path>
			<path d="M44.01,4.954c1.198-0.261,2.52,0.203,3.284,1.165c1.098,1.289,0.975,3.4-0.274,4.545  c-1.239,1.265-3.499,1.243-4.713-0.047c-1.24-1.176-1.302-3.312-0.161-4.577C42.624,5.483,43.29,5.093,44.01,4.954z"/>
		</symbol>
		<symbol id="icon-icon_no-information" viewBox="0 0 24 24" enable-background="new 0 0 24 24">
			<circle fill-opacity="0" cx="12" cy="12" r="12"/>
			<path opacity="0.1" d="M12,2c5.514,0,10,4.486,10,10s-4.486,10-10,10S2,17.514,2,12S6.486,2,12,2 M12,0C5.373,0,0,5.373,0,12
					s5.373,12,12,12s12-5.373,12-12S18.627,0,12,0L12,0z"/>
			<path d="M11.542,14.736c-0.414,0-0.72-0.306-0.774-0.72l-0.18-1.548c-0.072-0.486,0.216-0.846,0.702-0.9
					c1.692-0.162,2.629-0.81,2.629-1.945V9.586c0-1.008-0.774-1.71-2.07-1.71c-0.955,0-1.729,0.342-2.449,0.99
					C9.22,9.01,8.985,9.118,8.733,9.118c-0.559,0-1.009-0.45-1.009-0.99c0-0.27,0.108-0.558,0.36-0.774
					c0.954-0.9,2.161-1.494,3.817-1.494c2.521,0,4.231,1.404,4.231,3.655V9.55c0,2.269-1.639,3.295-3.638,3.637l-0.071,0.828
					c-0.072,0.396-0.36,0.72-0.774,0.72H11.542z M11.542,16.05c0.738,0,1.278,0.54,1.278,1.242v0.18c0,0.702-0.54,1.242-1.278,1.242
					s-1.278-0.54-1.278-1.242v-0.18C10.264,16.59,10.804,16.05,11.542,16.05z"/>
		</symbol>
		<symbol id="icon-icon_harbour-port-withoutBox" viewBox="100 100 550 400">
			<g id="g3356">
				<path
						fill="#006F51"
						d="M17.228,559.832V53.178c0-18.624,15.146-33.777,33.77-33.777h506.654c18.624,0,33.79,15.153,33.79,33.777   v506.654c0,18.623-15.166,33.776-33.79,33.776H50.998C32.374,593.608,17.228,578.455,17.228,559.832"
						id="path3362"
						style="fill:#ffffff;fill-opacity:1" />
				<path
						fill="#FFFFFF"
						d="M49.961,397.433c4.778,2.229,11.406,1.951,15.696-0.854l16.956-11.147   c4.839-3.187,12.727-3.173,17.545,0.006l17.912,11.827c4.838,3.185,12.687,1.165,17.464-2.102l13.907-9.481   c4.778-3.253,12.605-3.259,17.383-0.006l12.972,8.796c4.777,3.267,12.646,5.28,17.485,2.107l16.942-11.147   c4.825-3.187,12.721-3.173,17.56,0.006l17.912,11.827c4.838,3.185,12.808,1.313,17.708-1.709l16.652-10.274   c4.919-3.036,12.849-2.858,17.647,0.395l12.951,8.796c4.798,3.267,12.646,5.28,17.485,2.107l16.956-11.147   c4.832-3.187,12.727-3.173,17.546,0.006l13.256,8.655c8.797,5.78,17.708-0.204,22.934-2.677l13.824-6.541   c5.226-2.466,13.42-1.836,18.197,1.41l12.972,8.81c4.778,3.253,12.626,4.901,17.464,1.723l16.957-11.155   c4.824-3.186,12.748-3.186,17.565,0.014l23.626,10.829l58.024-98.525l-78.214-0.136l-21.855-67.988l-37.471-0.318l-20.291-51.919   h-30.843l5.286,56.555l-22.865-0.346L355.633,314.8H39.592L49.961,397.433z"
						id="path3364"
						style="fill:#000000;fill-opacity:1" />
				<path
						fill="#FFFFFF"
						d="M563.418,421.294l-15.078,12.091c-6.669,5.043-15.533,5.002-20.372,1.864l-27.712-10.538   c-5.083-2.792-13.296-2.698-18.312,0.23l-16.354,8.443c-5.001,2.915-13.053,1.138-17.892-2.006l-12.727-7.129   c-4.839-3.151-13.216-3.972-18.577-1.81l-13.322,5.367c-5.382,2.161-14.619,9.291-22.487,3.964l-13.499-7.305   c-5.062-2.778-13.297-2.677-18.278,0.244l-16.387,9.562c-5.002,2.907-13.032,0.738-17.898-2.392l-12.72-8.255   c-4.839-3.145-12.964-3.43-18.014-0.657l-16.136,8.863c-5.049,2.8-13.344,4.759-18.407,1.986l-17.017-9.352   c-5.062-2.778-13.297-2.677-18.298,0.244l-16.367,9.562c-4.988,2.907-13.032,0.738-17.892-2.392l-12.728-8.255   c-4.838-3.145-12.87-3.268-17.79-0.271l-13.33,8.093c-4.927,3.009-13.121,5.144-18.183,2.371l-17.044-9.352   c-5.056-2.778-13.29-2.677-18.271,0.244l-16.401,9.562c-4.967,2.907-13.026,2.718-17.878-0.427l-21.537-13.975v-24.561   l21.646,14.721c4.798,3.253,12.66,3.294,17.499,0.129l16.956-11.163c4.839-3.185,12.727-3.185,17.545,0.014l17.912,11.833   c4.838,3.179,12.687,1.152,17.464-2.107l13.907-9.474c4.778-3.274,12.605-3.274,17.383-0.008l12.972,8.811   c4.777,3.239,12.646,5.26,17.485,2.095l16.942-11.163c4.825-3.185,12.721-3.185,17.56,0.014l17.912,11.833   c4.838,3.179,12.808,1.343,17.708-1.707l16.652-10.274c4.919-3.05,12.849-2.874,17.647,0.393l12.951,8.811   c4.798,3.239,12.646,5.26,17.485,2.095l16.956-11.163c4.832-3.185,12.727-3.185,17.546,0.014l13.256,8.662   c8.797,5.781,17.708-0.217,22.934-2.684l13.824-6.54c5.226-2.48,13.42-1.83,18.197,1.417l12.972,8.81   c4.778,3.253,12.626,4.899,17.464,1.721l16.957-11.169c4.824-3.171,12.748-3.171,17.565,0.027l23.056,10.499   c0,0,12.504,7.881,23.611-0.469l17.153-15.288L563.418,421.294"
						id="path3366" />
				<path
						fill="#FFFFFF"
						d="M330.002,290.308c0,0-1.232-31.798-3.212-35.56c-1.07-2.399-3.781-3.531-6.974-4.331   c0,0-45.521-2.548-54.142-2.656l-28.843-28.775c-6.187-2.711-88.075-6.194-95.279,5.273l-23.401,25.373l-40.988,2.738   c-5.469,0.589-9.292,38.033-9.292,38.033l47.352-0.014v0.027c0,10.402,8.43,18.812,18.813,18.812c10.396,0,18.82-8.41,18.82-18.812   v-0.048l102.49-0.041c0,0.034-0.021,0.061-0.021,0.088c0,10.402,8.411,18.812,18.82,18.812c10.383,0,18.834-8.41,18.834-18.812   c0-0.027-0.021-0.068-0.021-0.108H330.002z"
						id="path3368"
						style="fill:#000000;fill-opacity:1" />
			</g>
		</symbol>
		<symbol id="icon-icon_funicular" viewBox="0 0 16 16">
			<path d="M15 9.12498L1 13.1353V14.125L15 10.1147V9.12498Z" fill="#000"/>
			<path fill-rule="evenodd" clip-rule="evenodd" d="M2.37971 11.5204L13.6328 8.42002C13.8497 8.36026 14 8.16298 14 7.93798V3.8254C14 2.84047 13.0669 2.12283 12.115 2.37566L3.4866 4.66741C2.61016 4.9002 2.00002 5.69354 2.00001 6.60038L2.00002 11.2311C2.00002 11.4293 2.18869 11.573 2.37971 11.5204ZM11.2969 5.44058C11.2969 5.55104 11.3864 5.64058 11.4969 5.64058H13.0969C13.2073 5.64058 13.2969 5.55104 13.2969 5.44058V4.02488C13.2969 3.50929 12.8163 3.12834 12.3143 3.24599L11.4512 3.44828C11.3608 3.46947 11.2969 3.55012 11.2969 3.643V5.44058ZM10.5963 6.19058C10.5963 6.30103 10.5068 6.39058 10.3963 6.39058H8.29629C8.18584 6.39058 8.09629 6.30103 8.09629 6.19058V4.50659C8.09629 4.41571 8.15756 4.33626 8.24545 4.31316L10.3455 3.7612C10.4723 3.72787 10.5963 3.82352 10.5963 3.95463V6.19058ZM4.19507 7.59683C4.19507 7.70728 4.10553 7.79683 3.99507 7.79683H2.89507C2.78461 7.79683 2.69507 7.70728 2.69507 7.59683V6.5375C2.69507 6.0818 3.00315 5.68374 3.44428 5.56946L3.94491 5.43976C4.07155 5.40695 4.19507 5.50255 4.19507 5.63337V7.59683ZM7.19567 7.12495C7.30613 7.12495 7.39567 7.03541 7.39567 6.92495V4.80848C7.39567 4.67909 7.27467 4.58376 7.14887 4.61403L5.04887 5.11943C4.95901 5.14105 4.89567 5.22144 4.89567 5.31387V6.92495C4.89567 7.03541 4.98521 7.12495 5.09567 7.12495H7.19567Z" fill="#000"/>
		</symbol>
	</defs>
</svg>
