		<svg version="1.1" xmlns="http://www.w3.org/2000/svg" xmlns:xlink="http://www.w3.org/1999/xlink" id="icon-icon_airplane" viewBox="-909 491 100 100">
			<title>icon_airplane</title>
			<rect class="contrast-color" x="-900.3" y="498.6" width="85" height="85"/>
			<path class="airplane" d="M-809,497.2c0-3.4-2.8-6.2-6.2-6.2h-87.6c-3.4,0-6.2,2.8-6.2,6.2v87.6c0,3.4,2.8,6.2,6.2,6.2h87.6c3.4,0,6.2-2.8,6.2-6.2V497.2z M-824.8,545H-846l-18.8,30h-8.2l9.4-30h-14.7l-5.3,7h-7.1l3.5-11l-3.5-11h7.1l5.3,6.6h14.7L-873,506h8.2l18.8,30.6h21.2c1.9,0,3.5,2.2,3.5,4.2C-821.2,542.8-822.8,545-824.8,545z"/>
		</svg>