		<svg version="1.1" xmlns="http://www.w3.org/2000/svg" xmlns:xlink="http://www.w3.org/1999/xlink" id="icon-icon_busstation-withoutBox" viewBox="20 -10 200 200">
			<path
					d="M 162.02168,175.10433 C 157.98823,174.05314 153.47692,171.63073 151.06972,169.22353 C 149.30418,167.45798 149.0294,166.81201 149.0294,164.42696 L 149.0294,161.67071 L 152.11551,164.65984 C 158.26611,170.61717 167.53201,172.29842 183.2424,170.30765 L 185.98522,169.96009 L 185.98522,172.28244 C 185.98522,173.94654 185.6988,174.72585 184.97471,175.0319 C 183.04299,175.84838 165.09394,175.90502 162.02168,175.1043 L 162.02168,175.10433 L 162.02168,175.10433 z M 118.71408,146.394 C 109.504,142.62702 101.72303,139.45411 101.42304,139.34308 C 101.10153,139.22409 101.43884,135.4132 102.24463,130.06059 C 103.11374,124.28743 103.83821,121.06742 104.23365,121.22008 C 104.57575,121.35215 112.13132,124.27085 121.02382,127.70608 C 129.91631,131.14132 137.71168,133.90899 138.34686,133.85648 C 139.70315,133.74434 183.48912,125.16129 184.97471,124.71636 C 185.90861,124.43666 185.98522,125.13893 185.98522,133.98029 C 185.98522,139.24192 185.8839,143.54688 185.76006,143.54688 C 185.63623,143.54688 183.00917,144.06657 179.92215,144.70175 C 176.83514,145.33693 173.98041,145.85662 173.57831,145.85662 C 173.11001,145.85662 172.7536,144.72756 172.58674,142.71548 C 172.05578,136.31285 167.17649,132.2647 161.7511,133.7256 C 156.42157,135.1607 151.33914,142.22029 151.33914,148.18801 C 151.33914,149.44646 151.24934,150.47609 151.13958,150.47609 C 151.02983,150.47609 147.45695,151.12324 143.19986,151.91419 C 138.94276,152.70514 135.45968,153.32771 135.45968,153.29766 C 135.45968,153.26766 127.92416,150.16098 118.71408,146.394 L 118.71408,146.394 z M 132.12613,147.18098 C 134.02287,144.2857 132.73293,137.77253 130.26277,137.77253 C 127.8454,137.77253 126.58049,144.4052 128.45289,147.26284 C 129.69928,149.16507 130.84301,149.13958 132.12613,147.18094 L 132.12613,147.18098 L 132.12613,147.18098 z M 110.01982,138.79892 C 111.0999,137.25687 111.18537,132.84759 110.1739,130.84843 C 107.78299,126.12278 103.70404,133.11914 106.01311,137.98515 C 107.16187,140.40599 108.67844,140.71401 110.01982,138.79892 L 110.01982,138.79892 z M 153.99937,151.87245 C 153.8066,151.3701 153.65458,149.61614 153.66156,147.97477 C 153.68906,141.50116 158.43613,136.04023 164.03598,136.04023 C 166.03692,136.04023 168.82536,138.26556 169.81341,140.65093 C 170.63559,142.63585 170.34916,148.44265 169.38133,149.41048 C 168.85478,149.93703 157.06231,152.68692 155.00988,152.76176 C 154.64687,152.77496 154.19214,152.37481 153.99937,151.87245 L 153.99937,151.87245 z M 164.08712,149.36564 C 167.61746,145.8353 165.2486,140.50174 160.89268,142.17327 C 158.34635,143.15038 157.42037,148.66178 159.55171,150.15464 C 161.36657,151.42582 162.16602,151.28674 164.08712,149.36564 z M 80.105538,144.09969 C 75.4443,143.37336 71.0742,141.24469 67.629548,138.02262 C 64.900829,135.47022 64.723937,135.13146 64.723937,132.45811 L 64.723937,129.61147 L 67.518374,132.48041 C 72.855158,137.95949 78.964902,139.89612 88.976193,139.282 C 92.310878,139.07744 95.623909,138.75374 96.338485,138.56267 C 97.54444,138.24021 97.637713,138.40132 97.637713,140.80669 L 97.637713,143.3981 L 94.894898,143.74291 C 89.126262,144.4681 83.362258,144.60716 80.105538,144.09969 L 80.105538,144.09969 z M 120.72213,124.55912 L 103.82606,117.89568 L 104.20255,110.07799 C 104.40961,105.77826 104.73962,100.03818 104.93591,97.322265 L 105.29278,92.384215 L 144.33977,84.711895 C 165.81561,80.492105 183.97647,76.903235 184.69721,76.736605 L 186.00766,76.433635 L 185.85208,89.346965 L 185.6965,102.2603 L 174.32452,104.6402 C 168.06993,105.94915 162.54821,107.17526 162.05403,107.36489 C 161.30459,107.65248 161.15553,108.95802 161.15553,115.23446 C 161.15553,120.87012 161.33674,122.75886 161.87732,122.75774 C 162.27431,122.75716 167.60832,121.71753 173.73068,120.448 C 179.85305,119.17846 185.11492,118.13975 185.42374,118.13975 C 185.73255,118.13975 185.98522,118.86449 185.98522,119.75028 L 185.98522,121.36081 L 172.55986,124.08748 C 165.17592,125.58714 158.93962,126.81124 158.70143,126.80771 C 158.46324,126.80371 158.26835,121.99413 158.26835,116.11873 C 158.26835,104.89061 158.24965,104.81487 155.71713,105.78669 C 154.92918,106.08905 154.80375,107.62399 154.80375,116.96351 L 154.80375,127.78985 L 146.21098,129.5062 L 137.6182,131.22256 L 120.72213,124.55912 L 120.72213,124.55912 z M 135.957,125.79076 C 136.11453,125.23498 136.41217,121.66211 136.61842,117.85104 L 136.99343,110.92182 L 123.23427,105.56778 C 115.66674,102.62305 109.17962,100.21948 108.81845,100.22651 C 108.3876,100.23491 107.98745,102.87042 107.65485,107.89029 C 107.37604,112.09834 107.17617,115.60892 107.21068,115.69156 C 107.29298,115.88875 134.76334,126.73426 135.27641,126.77216 C 135.4932,126.78816 135.79947,126.34654 135.957,125.79076 L 135.957,125.79076 z M 146.14223,126.20505 C 151.98394,124.92813 151.33914,126.04247 151.33914,117.22369 C 151.33914,110.04563 151.25584,109.42472 150.32863,109.69512 C 149.77285,109.85722 147.67123,110.3028 145.65836,110.68531 C 143.6455,111.06781 141.91296,111.66728 141.80828,112.01745 C 141.70359,112.36762 141.45929,115.83723 141.26538,119.7277 L 140.91282,126.80127 L 142.2283,126.78717 C 142.95181,126.77917 144.71307,126.51746 146.14223,126.20506 L 146.14223,126.20505 z M 34.14278,114.1388 C 24.786485,110.38063 17.027574,106.99449 16.90076,106.61404 C 16.496919,105.40252 19.222756,89.268025 19.831276,89.268025 C 20.152407,89.268025 27.814741,92.128225 36.858686,95.624015 L 53.302221,101.97999 L 77.220507,97.567025 C 90.375559,95.139895 101.28571,93.300975 101.46527,93.480545 C 101.64485,93.660115 101.57168,97.787785 101.30268,102.65314 L 100.8136,111.49925 L 96.482843,112.40995 C 94.100925,112.91082 91.307585,113.48898 90.275421,113.69474 L 88.398758,114.06884 L 88.386058,111.62918 C 88.358228,106.27658 84.967038,101.97167 80.435319,101.53623 C 73.847598,100.90323 67.033679,108.21745 67.033679,115.92188 C 67.033679,117.7215 66.799229,118.17416 65.734451,118.43038 C 63.357799,119.00225 52.320526,121.02736 51.732804,120.99938 C 51.414586,120.98428 43.499075,117.89698 34.14278,114.1388 L 34.14278,114.1388 z M 48.558411,113.51045 C 49.743051,109.11104 47.140304,104.04697 44.864304,106.32297 C 43.417269,107.77001 42.728243,111.17836 43.387676,113.62731 C 44.482716,117.69397 47.449963,117.62692 48.558411,113.51045 z M 26.61325,102.59469 C 26.61325,99.122105 24.846752,96.443315 23.154146,97.349165 C 20.586158,98.723515 20.553367,104.89958 22.948119,107.29434 C 23.64705,107.4678 24.282986,107.89325 25.263294,106.94121 C 26.273601,105.76666 26.61325,104.67307 26.61325,102.59469 L 26.61325,102.59469 z M 69.693912,119.53611 C 69.501135,119.03376 69.343414,117.29688 69.343414,115.67638 C 69.343414,110.25415 72.697138,105.55507 77.487622,104.26513 C 82.16262,103.00629 86.152162,106.7891 86.030566,112.36541 C 85.915189,117.65644 85.911637,117.65977 78.850004,119.10232 C 71.203164,120.66441 70.146095,120.71449 69.693912,119.53611 L 69.693912,119.53611 z M 79.974627,116.94058 C 81.669889,114.92587 81.889897,112.64508 80.57065,110.76159 C 79.295974,108.94173 77.237021,109.14037 75.457807,111.25485 C 73.728153,113.31042 73.494384,116.08753 74.91854,117.66121 C 76.342153,119.23429 78.276594,118.95858 79.974627,116.94058 L 79.974627,116.94058 z M 36.139139,92.364195 L 19.391752,85.718035 L 20.145981,73.201525 C 20.560806,66.317445 21.081299,60.528655 21.302632,60.337545 C 21.708436,59.987155 183.92123,27.482338 185.26342,27.482458 C 185.81892,27.482508 185.98522,30.400039 185.98522,40.145146 L 185.98522,52.807765 L 182.66497,53.476585 C 180.83883,53.844435 175.73078,54.902245 171.31375,55.827265 C 166.89671,56.752285 163.19391,57.509125 163.0853,57.509125 C 162.97669,57.509125 162.88783,61.276885 162.88783,65.881925 C 162.88783,73.471225 162.98243,74.254685 163.89834,74.254315 C 164.45412,74.254095 169.58607,73.346595 175.30268,72.237635 C 181.01928,71.128685 185.76146,70.219415 185.84086,70.217025 C 185.92026,70.214725 185.98522,70.960705 185.98522,71.874945 L 185.98522,73.537205 L 174.8696,75.660455 C 168.75601,76.828255 143.61595,81.610475 119.0028,86.287635 L 74.251609,94.791545 L 74.094558,83.881675 L 73.937508,72.971805 L 72.650972,73.316665 C 71.943378,73.506335 71.169552,73.665075 70.93136,73.669415 C 70.693168,73.674015 70.498284,78.586195 70.498284,84.585955 L 70.498284,95.494615 L 68.945412,95.884365 C 66.511952,96.495115 53.634383,99.088665 53.240195,99.047385 C 53.045678,99.027005 45.350202,96.019585 36.139139,92.364195 z M 52.106368,85.847835 L 52.309092,78.748075 L 39.316812,73.604995 C 32.171059,70.776295 25.764647,68.314185 25.080342,68.133635 C 23.868719,67.813975 23.825424,67.999365 23.426278,75.216455 C 23.200847,79.292545 22.981196,82.856565 22.938164,83.136515 C 22.895134,83.416455 29.226142,86.159475 37.007074,89.232115 C 49.058316,93.991085 51.209736,94.680135 51.528933,93.883165 C 51.735024,93.368605 51.99487,89.752695 52.106368,85.847835 z M 62.61234,93.827785 L 67.033676,93.084875 L 67.033676,85.172845 L 67.033676,77.260815 L 62.40996,78.264225 C 59.866921,78.816105 57.69363,79.373995 57.58043,79.503995 C 57.467229,79.633995 57.198047,83.215425 56.982242,87.462735 C 56.654028,93.922515 56.720768,95.134885 57.390436,94.877905 C 57.830748,94.708945 60.180606,94.236385 62.61234,93.827785 L 62.61234,93.827785 z M 90.275421,88.282675 L 102.25719,86.095705 L 102.25719,78.154195 C 102.25719,72.174065 102.07893,70.218185 101.5354,70.234955 C 101.13841,70.247195 95.486769,71.370595 88.976193,72.731365 L 77.138782,75.205515 L 76.977661,82.814205 C 76.853391,88.682955 76.985461,90.428245 77.555095,90.446265 C 77.961303,90.459145 83.685448,89.485505 90.275421,88.282675 z M 117.52079,83.177395 C 123.57611,82.050665 128.9852,80.993775 129.54098,80.828745 C 130.44066,80.561595 130.55149,79.646315 130.55149,72.483515 C 130.55149,68.058665 130.35661,64.438185 130.11841,64.438005 C 129.88022,64.437825 124.29354,65.514945 117.70357,66.831605 L 105.7218,69.225545 L 105.7218,77.225765 C 105.7218,81.625885 105.8994,85.225985 106.11645,85.225985 C 106.33351,85.225985 111.46546,84.304115 117.52079,83.177395 L 117.52079,83.177395 z M 147.62423,77.458195 C 153.67956,76.331465 158.81151,75.409595 159.02857,75.409595 C 159.24563,75.409595 159.42322,71.544585 159.42322,66.820685 L 159.42322,58.231775 L 147.22753,60.766535 C 140.5199,62.160655 134.8033,63.442545 134.52397,63.615175 C 133.93385,63.979895 133.82418,79.067245 134.40741,79.650465 C 134.62262,79.865685 135.20728,79.921405 135.70664,79.774285 C 136.20599,79.627165 141.56891,78.584925 147.62423,77.458195 L 147.62423,77.458195 z" id="path4494"
			/>
		</svg>