		<svg version="1.1" xmlns="http://www.w3.org/2000/svg" xmlns:xlink="http://www.w3.org/1999/xlink" id="icon-icon_ferry-live" viewBox="0 0 1024 1024">
			<title>icon_ferry-live</title>
			<path fill="rgb(0, 185, 228)" class="path1 fill-color11" d="M1024.007 512c0 282.774-229.233 512.007-512.007 512.007s-512.007-229.233-512.007-512.007c0-282.774 229.233-512.007 512.007-512.007s512.007 229.233 512.007 512.007z"></path>
			<path fill="rgb(0, 139, 171)" class="path2 fill-color7" d="M512 36.118c127.113 0 246.618 49.499 336.501 139.381s139.381 209.388 139.381 336.501-49.502 246.618-139.381 336.501c-89.883 89.883-209.388 139.381-336.501 139.381s-246.618-49.502-336.501-139.381c-89.883-89.883-139.381-209.388-139.381-336.501s49.499-246.618 139.381-336.501c89.883-89.883 209.388-139.381 336.501-139.381zM512-0.007c-282.776 0-512.007 229.231-512.007 512.007s229.231 512.007 512.007 512.007 512.007-229.235 512.007-512.007-229.231-512.007-512.007-512.007v0z"></path>
			<path fill="rgb(255, 255, 255)" class="path3 fill-color14" d="M780.236 782.497c10.624 0 19.32 7.727 19.32 18.355 0 10.624-8.695 18.355-19.32 18.355h-539.068c-9.66 0-18.355-7.727-18.355-18.355s8.695-18.355 18.355-18.355h539.068zM723.237 752.553h-427.97l-21.252-183.555c0 0 77.286-20.288 129.454-31.88 46.37-9.66 101.435-16.426 105.301-16.426s59.895 6.763 105.301 16.426c52.168 11.593 129.454 31.88 129.454 31.88l-20.288 183.555zM321.35 519.727v-134.284c0-17.387-4.83-40.576 40.572-40.576h84.048v-126.553c0.968-6.763 5.798-12.561 12.557-13.525h100.471c6.763 0.968 12.557 6.763 12.557 13.525v126.553h84.048c45.406 0 40.572 23.185 40.572 40.576v134.284c-26.082-6.763-46.37-11.593-82.116-19.323-46.37-9.66-102.404-16.422-105.301-17.391-2.901 0.968-58.931 7.727-105.301 17.391l-82.109 19.323zM377.384 415.394c0 20.288 15.458 35.746 35.746 35.746 20.284 0 35.742-15.458 35.742-35.746s-15.458-35.746-35.742-35.746c-20.288 0-35.746 15.458-35.746 35.746zM473.025 415.394c0 20.288 16.426 35.746 35.746 35.746 20.284 0 35.742-15.458 35.742-35.746s-15.458-35.746-35.742-35.746c-19.323 0-35.746 15.458-35.746 35.746zM568.666 415.394c0 20.288 16.426 35.746 35.742 35.746 20.288 0 35.746-15.458 35.746-35.746s-15.458-35.746-35.746-35.746c-19.32 0-35.742 15.458-35.742 35.746z"></path>
		</svg>