<svg width="16" height="16" viewBox="0 0 16 16" fill="none" xmlns="http://www.w3.org/2000/svg">
<path d="M15 9.12498L1 13.1353V14.125L15 10.1147V9.12498Z" fill="#fff"/>
<path fill-rule="evenodd" clip-rule="evenodd" d="M2.37971 11.5204L13.6328 8.42002C13.8497 8.36026 14 8.16298 14 7.93798V3.8254C14 2.84047 13.0669 2.12283 12.115 2.37566L3.4866 4.66741C2.61016 4.9002 2.00002 5.69354 2.00001 6.60038L2.00002 11.2311C2.00002 11.4293 2.18869 11.573 2.37971 11.5204ZM11.2969 5.44058C11.2969 5.55104 11.3864 5.64058 11.4969 5.64058H13.0969C13.2073 5.64058 13.2969 5.55104 13.2969 5.44058V4.02488C13.2969 3.50929 12.8163 3.12834 12.3143 3.24599L11.4512 3.44828C11.3608 3.46947 11.2969 3.55012 11.2969 3.643V5.44058ZM10.5963 6.19058C10.5963 6.30103 10.5068 6.39058 10.3963 6.39058H8.29629C8.18584 6.39058 8.09629 6.30103 8.09629 6.19058V4.50659C8.09629 4.41571 8.15756 4.33626 8.24545 4.31316L10.3455 3.7612C10.4723 3.72787 10.5963 3.82352 10.5963 3.95463V6.19058ZM4.19507 7.59683C4.19507 7.70728 4.10553 7.79683 3.99507 7.79683H2.89507C2.78461 7.79683 2.69507 7.70728 2.69507 7.59683V6.5375C2.69507 6.0818 3.00315 5.68374 3.44428 5.56946L3.94491 5.43976C4.07155 5.40695 4.19507 5.50255 4.19507 5.63337V7.59683ZM7.19567 7.12495C7.30613 7.12495 7.39567 7.03541 7.39567 6.92495V4.80848C7.39567 4.67909 7.27467 4.58376 7.14887 4.61403L5.04887 5.11943C4.95901 5.14105 4.89567 5.22144 4.89567 5.31387V6.92495C4.89567 7.03541 4.98521 7.12495 5.09567 7.12495H7.19567Z" fill="#fff"/>
</svg>
