		<svg version="1.1" xmlns="http://www.w3.org/2000/svg" xmlns:xlink="http://www.w3.org/1999/xlink" id="icon-icon_harbour_port" viewBox="0 213.264 797.992 793.264">
			<g transform="scale(2)">
				<path  d="M49.961,397.433c4.778,2.229,11.406,1.951,15.696-0.854l16.956-11.147
		c4.839-3.187,12.727-3.173,17.545,0.006l17.912,11.827c4.838,3.185,12.687,1.165,17.464-2.102l13.907-9.481
		c4.778-3.253,12.605-3.259,17.383-0.006l12.972,8.796c4.777,3.267,12.646,5.28,17.485,2.107l16.942-11.147
		c4.825-3.187,12.721-3.173,17.56,0.006l17.912,11.827c4.838,3.185,12.808,1.313,17.708-1.709l16.652-10.274
		c4.919-3.036,12.849-2.858,17.647,0.395l12.951,8.796c4.798,3.267,12.646,5.28,17.485,2.107l16.956-11.147
		c4.832-3.187,12.727-3.173,17.546,0.006l13.256,8.655c8.797,5.78,17.708-0.204,22.934-2.677l13.824-6.541
		c5.226-2.466,13.42-1.836,18.197,1.41l12.972,8.81c4.778,3.253,12.626,4.901,17.464,1.723l16.957-11.155
		c4.824-3.186,12.748-3.186,17.565,0.014l23.626,10.829l58.024-98.525l-78.214-0.136l-21.855-67.988l-37.471-0.318l-20.291-51.919
		h-30.843l5.286,56.555l-22.865-0.346L355.633,314.8H39.592L49.961,397.433z"/>
				<path d="M563.418,421.294l-15.078,12.091c-6.669,5.043-15.533,5.002-20.372,1.864l-27.712-10.538
		c-5.083-2.792-13.296-2.698-18.312,0.23l-16.354,8.443c-5.001,2.915-13.053,1.138-17.892-2.006l-12.727-7.129
		c-4.839-3.151-13.216-3.972-18.577-1.81l-13.322,5.367c-5.382,2.161-14.619,9.291-22.487,3.964l-13.499-7.305
		c-5.062-2.778-13.297-2.677-18.278,0.244l-16.387,9.562c-5.002,2.907-13.032,0.738-17.898-2.392l-12.72-8.255
		c-4.839-3.145-12.964-3.43-18.014-0.657l-16.136,8.863c-5.049,2.8-13.344,4.759-18.407,1.986l-17.017-9.352
		c-5.062-2.778-13.297-2.677-18.298,0.244l-16.367,9.562c-4.988,2.907-13.032,0.738-17.892-2.392l-12.728-8.255
		c-4.838-3.145-12.87-3.268-17.79-0.271l-13.33,8.093c-4.927,3.009-13.121,5.144-18.183,2.371l-17.044-9.352
		c-5.056-2.778-13.29-2.677-18.271,0.244l-16.401,9.562c-4.967,2.907-13.026,2.718-17.878-0.427l-21.537-13.975v-24.561
		l21.646,14.721c4.798,3.253,12.66,3.294,17.499,0.129l16.956-11.163c4.839-3.185,12.727-3.185,17.545,0.014l17.912,11.833
		c4.838,3.179,12.687,1.152,17.464-2.107l13.907-9.474c4.778-3.274,12.605-3.274,17.383-0.008l12.972,8.811
		c4.777,3.239,12.646,5.26,17.485,2.095l16.942-11.163c4.825-3.185,12.721-3.185,17.56,0.014l17.912,11.833
		c4.838,3.179,12.808,1.343,17.708-1.707l16.652-10.274c4.919-3.05,12.849-2.874,17.647,0.393l12.951,8.811
		c4.798,3.239,12.646,5.26,17.485,2.095l16.956-11.163c4.832-3.185,12.727-3.185,17.546,0.014l13.256,8.662
		c8.797,5.781,17.708-0.217,22.934-2.684l13.824-6.54c5.226-2.48,13.42-1.83,18.197,1.417l12.972,8.81
		c4.778,3.253,12.626,4.899,17.464,1.721l16.957-11.169c4.824-3.171,12.748-3.171,17.565,0.027l23.056,10.499
		c0,0,12.504,7.881,23.611-0.469l17.153-15.288L563.418,421.294"/>
				<path d="M330.002,290.308c0,0-1.232-31.798-3.212-35.56c-1.07-2.399-3.781-3.531-6.974-4.331
		c0,0-45.521-2.548-54.142-2.656l-28.843-28.775c-6.187-2.711-88.075-6.194-95.279,5.273l-23.401,25.373l-40.988,2.738
		c-5.469,0.589-9.292,38.033-9.292,38.033l47.352-0.014v0.027c0,10.402,8.43,18.812,18.813,18.812c10.396,0,18.82-8.41,18.82-18.812
		v-0.048l102.49-0.041c0,0.034-0.021,0.061-0.021,0.088c0,10.402,8.411,18.812,18.82,18.812c10.383,0,18.834-8.41,18.834-18.812
		c0-0.027-0.021-0.068-0.021-0.108H330.002z"/>
			</g>
		</svg>