		<svg version="1.1" xmlns="http://www.w3.org/2000/svg" xmlns:xlink="http://www.w3.org/1999/xlink" id="icon-icon_rail-live" viewBox="0 0 1024 1024">
			<title>icon_rail-live</title>
			<path fill="rgb(140, 71, 153)" class="path1 fill-color10" d="M1024.007 512c0 282.774-229.233 512.007-512.007 512.007s-512.007-229.233-512.007-512.007c0-282.774 229.233-512.007 512.007-512.007s512.007 229.233 512.007 512.007z"></path>
			<path fill="rgb(105, 53, 115)" class="path2 fill-color6" d="M512 36.118c127.113 0 246.618 49.499 336.501 139.381s139.381 209.388 139.381 336.501-49.502 246.618-139.381 336.501c-89.883 89.883-209.388 139.381-336.501 139.381s-246.618-49.502-336.501-139.381c-89.879-89.883-139.381-209.388-139.381-336.501s49.502-246.618 139.381-336.501c89.883-89.883 209.388-139.381 336.501-139.381zM512-0.007c-282.776 0-512.007 229.231-512.007 512.007s229.235 512.007 512.007 512.007 512.007-229.235 512.007-512.007c0-282.776-229.231-512.007-512.007-512.007v0z"></path>
			<path fill="rgb(255, 255, 255)" class="path3 fill-color14" d="M767.588 388.232v257.344c0 20.479-6.232 28.495-33.838 50.756-19.591 16.029-28.492 23.153-59.66 23.153h-57.88v38.289h-205.696v-38.289h-58.772c-31.165 0-40.070-7.124-60.553-23.153-27.607-21.372-34.727-30.276-34.727-50.756v-257.344c0-16.029 10.686-43.632 24.041-73.016 16.029-33.838 29.388-60.553 42.743-72.127 18.698-17.81 105.073-38.289 188.779-38.289 86.375 0 170.969 20.479 190.56 38.289 13.355 11.574 25.822 38.289 41.854 72.127 12.463 29.384 23.149 56.991 23.149 73.016zM720.394 784.491c9.797 0 16.917 8.013 16.917 16.917 0 9.793-7.124 17.81-16.917 17.81h-414.957c-9.797 0-17.81-8.016-17.81-17.81 0-8.905 8.013-16.917 17.81-16.917h40.959v-37.4h33.838v37.4h265.356v-37.4h32.95v37.4h41.854zM700.804 380.22c3.562-15.136-7.124-26.714-22.26-26.714h-332.144c-15.136 0-24.933 11.578-22.26 26.714l41.851 177.2c2.67 15.136 17.81 26.714 32.946 26.714h227.96c15.14 0 30.276-11.578 32.95-26.714l40.959-177.2zM377.564 274.254v15.136c0 11.578 9.797 21.372 21.372 21.372h227.96c11.578 0 20.483-9.797 20.483-21.372v-15.136h-269.814zM422.088 650.030c0-12.467-10.686-22.26-23.153-22.26s-21.372 9.797-21.372 22.26 8.905 21.372 21.372 21.372c12.467 0 23.153-8.905 23.153-21.372zM649.156 647.357c0-12.467-9.793-22.26-22.26-22.26s-22.26 9.797-22.26 22.26 9.793 21.372 22.26 21.372c12.467 0 22.26-8.905 22.26-21.372z"></path>
		</svg>