		<svg version="1.1" xmlns="http://www.w3.org/2000/svg" xmlns:xlink="http://www.w3.org/1999/xlink" id="icon-icon_subway" viewBox="-909 491 100 100">
			<title>icon_subway</title>
			<rect class="contrast-color" x="-905.5" y="498.5" width="94.1" height="85"/>
			<path class="subway" d="M-859.1,507.7c-18.4,0-33.3,14.9-33.3,33.3c0,18.4,14.9,33.3,33.3,33.3s33.3-14.9,33.3-33.3C-825.8,522.6-840.7,507.7-859.1,507.7z M-844,530h-11v34h-8v-34h-11v-6h30V530z"/>
			<path class="subway" d="M-809,497.2c0-3.4-2.8-6.2-6.2-6.2h-87.6c-3.4,0-6.2,2.8-6.2,6.2v87.6c0,3.4,2.8,6.2,6.2,6.2h87.6c3.4,0,6.2-2.8,6.2-6.2V497.2z M-859.1,579.3c-21.1,0-38.3-17.2-38.3-38.3s17.2-38.3,38.3-38.3s38.3,17.2,38.3,38.3S-837.9,579.3-859.1,579.3z"/>
		</svg>