		<svg version="1.1" xmlns="http://www.w3.org/2000/svg" xmlns:xlink="http://www.w3.org/1999/xlink" id="icon-icon_tram-withoutBox" viewBox="-909 491 100 100">
			<title>icon_tram-withoutBox</title>
			<path d="M-813.6,546.9l-1.8-8l-3.1-14h0l-0.4-1.9c-0.2-0.9-1.1-1.6-2-1.6h-37l8.8-7.7c0.5-0.4,0.8-1.1,0.7-1.7c0-0.7-0.3-1.3-0.8-1.7l-11.7-9.4h-7.1l14,11.3l-10.6,9.3h-33.6c-0.9,0-1.8,0.7-2,1.6l-1.7,7.9l-3.3,14.9l0,0l-0.3,1.2c-0.5,2.1,0.1,5.2,1.3,6.9l3.5,5.3h12v1.3c0,1.8,1.5,3.2,3.2,3.2h10.2c1.8,0,3.2-1.5,3.2-3.2v-1.3h25v1.3c0,1.8,1.5,3.2,3.2,3.2h10.2c1.8,0,3.2-1.5,3.2-3.2v-1.3h12l3.5-5.3C-813.7,552.1-813.1,548.9-813.6,546.9 M-882.5,543.6h-18.1l3.3-14.7h14.9V543.6zM-861.1,543.6h-18.1v-14.7h18.1V543.6z M-839.7,543.6h-18.1v-14.7h18.1V543.6z M-836.5,543.6v-14.7h14.8l3.3,14.7H-836.5z"/>
		</svg>