<svg version="1.1" xmlns="http://www.w3.org/2000/svg" xmlns:xlink="http://www.w3.org/1999/xlink" id="icon-icon_bus-withoutBox" viewBox="-909 491 100 100">
	<g>
		<path d="M-829.8,558c0,4.1-3.3,7.3-7.3,7.3c-4.1,0-7.3-3.3-7.3-7.3c0-4,3.3-7.3,7.3-7.3C-833.1,550.7-829.8,554-829.8,558"/>
		<path d="M-815.6,521.2h-84.9c-1,0-1.8,0.8-1.8,1.8v34.1c0,1,0.8,1.8,1.8,1.8h11c0-0.3,0-0.5,0-0.8c0-5.8,4.7-10.5,10.5-10.5c5.8,0,10.5,4.7,10.5,10.5c0,0.3,0,0.5,0,0.8h21.1c0-0.3,0-0.6,0-1c0-5.8,4.7-10.5,10.5-10.5c5.8,0,10.5,4.7,10.5,10.5c0,0.3,0,0.6,0,1h11.1c1,0,1.8-0.8,1.8-1.8V523C-813.8,522-814.6,521.2-815.6,521.2z M-880.7,543.4h-17.7v-14.7h17.7V543.4zM-859.7,543.4h-17.7v-14.7h17.7V543.4z M-838.7,543.4h-17.7v-14.7h17.7V543.4z M-817.8,543.4h-17.7v-14.7h17.7V543.4z"/>
		<path d="M-871.7,558.2c0,4.1-3.3,7.3-7.3,7.3c-4.1,0-7.3-3.3-7.3-7.3c0-4,3.3-7.3,7.3-7.3C-875,550.8-871.7,554.1-871.7,558.2"/>
	</g>
</svg>
