		<svg version="1.1" xmlns="http://www.w3.org/2000/svg" xmlns:xlink="http://www.w3.org/1999/xlink" id="icon-icon_ferry" viewBox="-909 491 100 100">
			<title>icon_ferry</title>
			<rect class="contrast-color" x="-905.5" y="498.5" width="94.1" height="85"/>
			<polygon class="ferry ferry-window" points="-855,533 -855,539 -837.5,539 -838.9,533 "/>
			<polygon class="ferry ferry-window" points="-887.4,539 -872,539 -872,533 -886.1,533 "/>
			<rect class="ferry ferry-window" x="-870" y="533" width="13" height="6"/>
			<path class="ferry" d="M-809,497.2c0-3.4-2.8-6.2-6.2-6.2h-87.7c-3.4,0-6.2,2.8-6.2,6.2v87.7c0,3.4,2.8,6.2,6.2,6.2h87.7c3.4,0,6.2-2.8,6.2-6.2V497.2z M-829.7,560.7c-0.1,0-0.2-0.1-0.2-0.1c-2.1-1.1-3.8-2-7.6-2s-5.6,0.9-7.7,2c-2.2,1.1-4.7,2.4-9.5,2.4s-7.3-1.3-9.5-2.4c-2.1-1.1-3.9-2-7.7-2s-5.6,0.9-7.6,2c-2.2,1.1-4.7,2.4-9.5,2.4s-7.3-1.3-9.5-2.4c-1.2-0.6-2.2-1.2-3.7-1.5l1.1-3.9c1.8,0.5,3.2,1.2,4.4,1.8c2.1,1.1,3.9,2,7.6,2c3.8,0,5.6-0.9,7.7-2c2.2-1.1,4.7-2.4,9.5-2.4s7.3,1.3,9.5,2.4c2.1,1.1,3.8,2,7.7,2c3.8,0,5.6-0.9,7.7-2c2.2-1.1,4.7-2.4,9.5-2.4s7.3,1.3,9.5,2.4c0.3,0.1,0.5,0.3,0.8,0.4L-829.7,560.7z M-815.3,540.6l-10,13.8c0,0-0.5-0.3-0.8-0.4c-2.4-1.2-5.6-2.9-11.4-2.9c-5.8,0-9.1,1.7-11.5,2.9c-1.9,1-2.9,1.5-5.7,1.5s-3.8-0.5-5.7-1.5c-2.4-1.2-5.6-2.9-11.5-2.9c-5.8,0-9.1,1.7-11.4,2.9c-1.9,1-2.9,1.5-5.7,1.5s-3.8-0.5-5.7-1.5c-1.4-0.7-3.1-1.6-5.3-2.2l3.2-11.6c0.2-0.6,0.8-1.2,1.5-1.2h4.1l2.6-10.9c0.1-0.8,0.7-1.1,1.4-1.1h30.3v-7.9c0-1.1,0.8-1.6,1.9-2l10.1-3.6c0.1,0,0.3,0,0.4,0c0.5,0,0.9,0.1,1.1,0.5l1.6,6h7c0.8,0,1.3,0.5,1.4,1.4l4.4,17.7l13.1,0.1c0.5,0,0.8,0.4,0.8,0.9C-815.2,540.3-815.3,540.6-815.3,540.6z"/>
		</svg>