		<svg version="1.1" xmlns="http://www.w3.org/2000/svg" xmlns:xlink="http://www.w3.org/1999/xlink" id="icon-icon_ferry-withoutBox" viewBox="-909 491 100 100">
			<title>icon_ferry-withoutBox</title>
			<path d="M-823.6,563.5c-2.5-1.3-5.4-2.8-10.9-2.8c-5.5,0-8.4,1.5-10.9,2.8c-2.4,1.2-4.4,2.3-8.8,2.3c-4.4,0-6.4-1.1-8.8-2.3c-2.5-1.3-5.4-2.8-10.9-2.8c-5.5,0-8.4,1.5-10.9,2.8c-2.4,1.2-4.4,2.3-8.8,2.3c-4.4,0-6.4-1.1-8.8-2.3c-1.4-0.7-3-1.5-5.1-2.1l-1.3,4.4c1.6,0.4,2.9,1.1,4.2,1.8c2.6,1.3,5.4,2.8,10.9,2.8c5.5,0,8.4-1.5,10.9-2.8c2.4-1.2,4.4-2.3,8.8-2.3c4.4,0,6.4,1.1,8.8,2.3c2.5,1.3,5.4,2.8,10.9,2.8c5.5,0,8.4-1.5,10.9-2.8c2.4-1.2,4.4-2.3,8.8-2.3c4.4,0,6.4,1.1,8.8,2.3c0.1,0,0.2,0.1,0.3,0.1l2.7-3.8C-823,563.8-823.3,563.7-823.6,563.5z"/>
			<path d="M-809.7,543.1l-15,0l-5-20.3c-0.2-1-0.7-1.3-1.7-1.3h-8l-1.8-7.2c-0.2-0.5-0.6-0.9-1.2-0.9c-0.1,0-0.2,0-0.3,0.1l-11.3,4.1c-1.2,0.5-1.6,1-1.6,2.3v8.8h-35.9c-0.8,0-1.5,0.6-1.6,1.5l-2.9,12.8h-4.7c-0.8,0-1.5,0.5-1.7,1.3l-3.7,13.1c2.6,0.7,4.6,1.7,6.1,2.5c2.2,1.1,3.4,1.7,6.5,1.7c3.2,0,4.4-0.6,6.5-1.7c2.7-1.4,6.5-3.3,13.2-3.3c6.7,0,10.4,1.9,13.2,3.3c2.2,1.1,3.4,1.7,6.5,1.7c3.2,0,4.4-0.6,6.5-1.7c2.7-1.4,6.5-3.3,13.2-3.3c6.7,0,10.4,1.9,13.2,3.3c0.4,0.2,1,0.5,1,0.5l11.4-15.8c0,0,0.2-0.3,0.2-0.6C-808.8,543.5-809.2,543.1-809.7,543.1z M-875.5,543.1h-16.3l1.5-6.8h14.8V543.1z M-855.8,543.1h-16.4v-6.8h16.4V543.1z M-852.5,543.1v-6.8h16.4l1.7,6.8H-852.5z"/>
		</svg>