		<svg version="1.1" xmlns="http://www.w3.org/2000/svg" xmlns:xlink="http://www.w3.org/1999/xlink" id="icon-icon_lift" viewBox="0 0 100 100" enable-background="new 0 0 100 100">
			<path d="M94.72,0.058C94.805,0.043,94.977,0.015,95.062,0c0.244,0.93,0.547,1.844,0.809,2.769l-0.046,0.1  c-10.728,3.187-21.462,6.352-32.188,9.545c0.147,0.57,0.333,1.13,0.469,1.704c-3.791,1.064-7.576,2.151-11.358,3.243  c0.001,11.393-0.001,22.787,0,34.179c5.075,0.002,10.149,0,15.224,0c0.002,1.115,0,2.229,0,3.342c3.139,0.002,6.277,0,9.416,0    c2.066,0.062,3.892,1.887,3.952,3.953C81.34,71.218,81.336,83.6,81.34,95.982c-0.023,2.092-1.871,3.962-3.963,4.018    c-17.41-0.001-34.82,0-52.23-0.001c-2.05-0.055-3.862-1.846-3.962-3.89c0-12.424,0-24.85,0-37.273    c0.061-2.066,1.886-3.892,3.951-3.953c3.139,0,6.278,0.002,9.417,0c0.002-1.113-0.002-2.227,0-3.342c5.075,0,10.149,0,15.224,0    c-0.004-11.109,0.007-22.219-0.005-33.329c-3.021,0.848-6.038,1.714-9.053,2.584c-0.213-0.463-0.288-0.973-0.461-1.451    c-10.481,3.083-33.56,9.991-34.653,10.215c-0.248-0.929-0.546-1.844-0.808-2.769l0.047-0.099    c10.476-3.109,33.559-9.902,34.591-10.284c-0.137-0.455-0.278-0.907-0.376-1.372c7.797-2.215,15.593-4.435,23.38-6.684    c0.164,0.357,0.246,0.746,0.346,1.126C63.09,9.46,84.371,3.129,94.72,0.058z M27.869,61.567c0,6.684,0,13.367,0,20.051    c4.456,0,8.912,0,13.368,0c0-6.684,0-13.367,0-20.051C36.78,61.567,32.325,61.567,27.869,61.567z M44.578,61.567    c0,6.684,0,13.367,0,20.051c4.456,0,8.912,0,13.367,0c0-6.684,0-13.367,0-20.051C53.49,61.567,49.034,61.567,44.578,61.567z     M61.287,61.567c0,6.684,0,13.367,0,20.051c4.456,0,8.912,0,13.367,0c0-6.684,0-13.367,0-20.051    C70.199,61.567,65.743,61.567,61.287,61.567z"/>
			<path fill="#000000" d="M53.297,2.492c0.998-0.24,2.104,0.021,2.893,0.678c0.787,0.65,1.256,1.671,1.211,2.693   c-0.011,1.161-0.692,2.286-1.713,2.838c-1.412,0.824-3.402,0.411-4.342-0.935c-0.98-1.267-0.839-3.235,0.303-4.358   C52.09,2.947,52.673,2.629,53.297,2.492z"></path>
			<path fill="#000000" d="M44.01,4.954c1.198-0.261,2.52,0.203,3.284,1.165c1.098,1.289,0.975,3.4-0.274,4.545  c-1.239,1.265-3.499,1.243-4.713-0.047c-1.24-1.176-1.302-3.312-0.161-4.577C42.624,5.483,43.29,5.093,44.01,4.954z"/>
		</svg>