		<svg version="1.1" xmlns="http://www.w3.org/2000/svg" xmlns:xlink="http://www.w3.org/1999/xlink" id="icon-icon_rail" viewBox="-909 491 100 100">
			<title>icon_rail</title>
			<rect class="contrast-color" x="-905.5" y="498.5" width="94.1" height="85"/>
			<polygon class="rail" points="-848,530 -848,537 -828.8,537 -836,530 	"/>
			<path class="rail" d="M-809,497.2c0-3.4-2.8-6.2-6.2-6.2h-87.6c-3.4,0-6.2,2.8-6.2,6.2v87.6c0,3.4,2.8,6.2,6.2,6.2h87.6c3.4,0,6.2-2.8,6.2-6.2
				V497.2z M-828,567h-72v-4h72V567z M-819.2,554.9c-1.8,1.8-4.4,3-7.2,3h-4.8h-0.2H-900V525h23.3l17.8-9.1l-19.5-10v0.1h8.8l17.5,9
				c1.2,0.6,1.2,1.6,0,2.2l-15.6,7.8h32.3c0.5,0,1.1,0.3,1.5,0.6l14.7,14.8c1.9,1.8,3,4.4,3,7.3C-816.2,550.5-817.3,553.1-819.2,554.9
				z"/>
		</svg>