		<svg version="1.1" xmlns="http://www.w3.org/2000/svg" xmlns:xlink="http://www.w3.org/1999/xlink" id="icon-icon_railReplacement" viewBox="-909 491 100 100">
			<path d="M -832.613 566.81 L -843.365 557.971 C -843.621 557.761 -844.067 557.602 -844.451 557.602 L -868.002 557.602 L -856.61 552.869 C -855.714 552.501 -855.714 551.867 -856.61 551.499 L -869.345 546.029 L -875.807 546.029 L -875.807 546.081 L -861.537 552.185 L -874.527 557.656 L -891.422 557.656 L -891.422 577.385 L -841.444 577.385 C -841.444 577.385 -841.38 577.385 -841.38 577.385 L -837.86 577.385 C -835.813 577.385 -833.956 576.701 -832.55 575.596 C -831.205 574.492 -830.374 572.914 -830.374 571.229 C -830.437 569.492 -831.27 567.915 -832.613 566.81 M -853.027 564.547 L -853.027 560.181 L -844.899 560.181 L -839.589 564.547 L -853.027 564.547 Z"/>
			<rect x="-891.997" y="578.977" width="59.354" height="4.7"/>
			<path d="M -816.7 500.339 L -901.6 500.339 C -902.6 500.339 -903.4 501.139 -903.4 502.139 L -903.4 536.239 C -903.4 537.239 -902.6 538.039 -901.6 538.039 L -890.6 538.039 C -890.6 537.739 -890.6 537.539 -890.6 537.239 C -890.6 531.439 -885.9 526.739 -880.1 526.739 C -874.3 526.739 -869.6 531.439 -869.6 537.239 C -869.6 537.539 -869.6 537.739 -869.6 538.039 L -848.5 538.039 C -848.5 537.739 -848.5 537.439 -848.5 537.039 C -848.5 531.239 -843.8 526.539 -838 526.539 C -832.2 526.539 -827.5 531.239 -827.5 537.039 C -827.5 537.339 -827.5 537.639 -827.5 538.039 L -816.4 538.039 C -815.4 538.039 -814.6 537.239 -814.6 536.239 L -814.6 502.139 C -814.9 501.139 -815.7 500.339 -816.7 500.339 Z M -881.8 522.539 L -899.5 522.539 L -899.5 507.839 L -881.8 507.839 L -881.8 522.539 Z M -860.8 522.539 L -878.5 522.539 L -878.5 507.839 L -860.8 507.839 L -860.8 522.539 Z M -839.8 522.539 L -857.5 522.539 L -857.5 507.839 L -839.8 507.839 L -839.8 522.539 Z M -818.9 522.539 L -836.6 522.539 L -836.6 507.839 L -818.9 507.839 L -818.9 522.539 Z"/>
			<path d="M -872.8 537.339 C -872.8 541.439 -876.1 544.639 -880.1 544.639 C -884.2 544.639 -887.4 541.339 -887.4 537.339 C -887.4 533.339 -884.1 530.039 -880.1 530.039 C -876.1 529.939 -872.8 533.239 -872.8 537.339"/>
			<path d="M -830.708 536.992 C -830.708 541.092 -834.008 544.292 -838.008 544.292 C -842.108 544.292 -845.308 540.992 -845.308 536.992 C -845.308 532.992 -842.008 529.692 -838.008 529.692 C -834.008 529.692 -830.708 532.992 -830.708 536.992"/>
		</svg>