		<svg version="1.1" xmlns="http://www.w3.org/2000/svg" xmlns:xlink="http://www.w3.org/1999/xlink" id="icon-icon_subway-live" viewBox="0 0 1024 1024">
			<title>icon_subway-live</title>
			<path fill="rgb(255, 99, 25)" class="path1 fill-color13" d="M1024.007 512c0 282.774-229.233 512.007-512.007 512.007s-512.007-229.233-512.007-512.007c0-282.774 229.233-512.007 512.007-512.007s512.007 229.233 512.007 512.007z"></path>
			<path fill="rgb(191, 74, 19)" class="path2 fill-color9" d="M512 36.118c127.113 0 246.618 49.499 336.501 139.381s139.381 209.388 139.381 336.501-49.502 246.618-139.381 336.501c-89.883 89.883-209.388 139.381-336.501 139.381s-246.618-49.499-336.501-139.381c-89.883-89.883-139.381-209.388-139.381-336.501s49.499-246.618 139.381-336.501c89.883-89.883 209.388-139.381 336.501-139.381zM512-0.007c-282.776 0-512.007 229.231-512.007 512.007s229.231 512.007 512.007 512.007 512.007-229.235 512.007-512.007-229.231-512.007-512.007-512.007v0z"></path>
			<path fill="rgb(255, 255, 255)" class="path3 fill-color14" d="M792.991 297.056v387.846c0 27.704-17.81 47.494-43.534 51.449-64.313 11.874-142.473 20.776-237.457 20.776-93.994 0-172.157-9.891-236.467-20.776-27.701-3.956-44.524-25.725-44.524-53.429v-387.842c0-28.694 17.81-48.48 44.524-51.449 64.313-11.874 142.473-20.776 236.467-20.776 94.98 0 173.144 9.895 237.457 20.776 26.714 2.966 43.534 24.735 43.534 53.425zM320.057 653.242c0-12.864-11.871-24.735-24.735-24.735-13.85 0-25.725 11.874-26.711 24.735 0 13.85 11.871 25.725 26.711 26.714 12.864 0 24.735-11.871 24.735-26.714zM732.637 585.962c12.864 0 19.789-8.905 19.789-22.755v-250.318c0-12.864-8.905-23.745-21.765-23.745h-438.309c-11.874 0-19.789 9.895-19.789 23.745v250.318c0 12.864 9.895 22.755 22.755 22.755h437.319zM620.834 795.719c9.895 0 19.789 10.884 19.789 21.765 0 9.895-9.895 19.789-19.789 19.789h-213.712c-9.895 0-19.789-9.895-19.789-19.789 0-10.884 9.895-21.765 19.789-21.765h213.712zM755.396 653.242c0-12.864-10.884-24.735-24.735-24.735-12.864 0-24.735 11.874-25.725 24.735 0 13.85 10.884 25.725 25.725 26.714 13.85 0 24.735-11.871 24.735-26.714z"></path>
		</svg>