		<svg version="1.1" xmlns="http://www.w3.org/2000/svg" xmlns:xlink="http://www.w3.org/1999/xlink" id="icon-icon_subway-withoutBox" viewBox="-909 491 100 100">
			<title>icon_subway-withoutBox</title>
			<polygon points="-863.2,566.8 -855.1,566.8 -855.1,529 -842.2,529 -842.2,522.2 -876,522.2 -876,529 -863.2,529 	"/>
			<path d="M-859.1,497.3c-24.1,0-43.7,19.6-43.7,43.7c0,24.1,19.6,43.7,43.7,43.7s43.7-19.6,43.7-43.7C-815.4,516.9-835,497.3-859.1,497.3z M-859.1,503c20.9,0,38,17,38,38s-17,38-38,38s-38-17-38-38S-880,503-859.1,503z"/>
		</svg>