		<svg version="1.1" xmlns="http://www.w3.org/2000/svg" xmlns:xlink="http://www.w3.org/1999/xlink" id="icon-icon_tram" viewBox="-909 491 100 100">
			<title>icon_tram</title>
			<rect class="contrast-color" x="-900.9" y="498.5" width="85" height="85"/>
			<rect class="tram" x="-877" y="530" width="16" height="14"/>
			<rect class="tram" x="-858" y="530" width="16" height="14"/>
			<polygon class="tram" points="-895.5,544 -880,544 -880,530 -892.7,530 "/>
			<polygon class="tram" points="-839,530 -839,544 -823.4,544 -826.2,530 "/>
			<path class="tram" d="M-809,497.2c0-3.4-2.8-6.2-6.2-6.2h-87.6c-3.4,0-6.2,2.8-6.2,6.2v87.6c0,3.4,2.8,6.2,6.2,6.2h87.6c3.4,0,6.2-2.8,6.2-6.2V497.2z M-821,567h-77v-4h77V567z M-820.3,552.3l-3.1,4.7H-834v1c0,1.6-1.2,3-2.8,3h-8.9c-1.6,0-2.3-1.5-2.3-3v-1h-22v1c0,1.6-1.7,3-3.3,3h-8.9c-1.6,0-2.8-1.5-2.8-3v-1h-10.6l-3.1-4.7c-1-1.5-1.5-4.3-1.1-6.1l0.2-1l0,0l2.9-13.1l1.5-7.3c0.2-0.8,0.9-1.8,1.7-1.8h29.5l9.3-7.7l-12.2-9.3h6.2l10.3,8.1c0.4,0.4,0.7,0.8,0.7,1.4c0,0.6-0.2,0.7-0.7,1.1l-7.7,6.4h32.4c0.8,0,1.6,1.1,1.7,1.9l0.4,2.1l0,0l2.7,12.2l1.6,7C-818.8,548-819.3,550.8-820.3,552.3z"/>
		</svg>