		<svg version="1.1" xmlns="http://www.w3.org/2000/svg" xmlns:xlink="http://www.w3.org/1999/xlink" id="icon-icon_tram-live" viewBox="0 0 1024 1024">
			<title>icon_tram-live</title>
			<path fill="rgb(0, 152, 95)" class="path1 fill-color5" d="M1024.007 512c0 282.774-229.233 512.007-512.007 512.007s-512.007-229.233-512.007-512.007c0-282.774 229.233-512.007 512.007-512.007s512.007 229.233 512.007 512.007z"></path>
			<path fill="rgb(0, 114, 71)" class="path2 fill-color3" d="M512 36.118c127.113 0 246.618 49.499 336.501 139.381s139.381 209.388 139.381 336.501-49.502 246.618-139.381 336.501c-89.883 89.883-209.388 139.381-336.501 139.381s-246.618-49.499-336.501-139.381c-89.883-89.883-139.381-209.388-139.381-336.501s49.499-246.618 139.381-336.501c89.883-89.883 209.388-139.381 336.501-139.381zM512-0.007c-282.776 0-512.007 229.231-512.007 512.007s229.235 512.007 512.007 512.007 512.007-229.235 512.007-512.007c0-282.776-229.231-512.007-512.007-512.007v0z"></path>
			<path fill="rgb(255, 255, 255)" class="path3 fill-color14" d="M694.323 312.543c5.195 12.467 8.309 30.128 8.309 43.632v373.995c0 18.698-13.504 30.128-31.165 33.242-58.176 11.426-108.039 15.581-159.983 15.581-54.021 0-102.848-4.154-158.947-15.581-18.702-3.118-31.165-14.544-31.165-33.242v-373.992c0-13.507 0-31.165 5.195-43.632l17.658-42.595c6.235-12.467 13.507-17.662 28.051-21.816 41.555-11.426 75.837-15.584 118.432-16.621v-36.363h-75.837c-12.467 0-21.816-9.349-21.816-19.739 0-12.467 9.349-21.816 21.816-21.816h195.306c10.39 0 18.702 9.349 18.702 21.816 0 10.39-8.312 19.739-18.702 19.739h-76.878v36.36c41.555 1.037 73.76 5.195 118.432 16.621 12.467 3.118 19.739 9.349 24.933 21.816l17.658 42.595zM655.882 829.904c9.353 0 19.742 9.349 19.742 18.698 0 13.507-10.39 21.816-19.742 21.816h-287.765c-11.43 0-18.702-8.312-18.702-21.816 0-9.349 7.272-18.698 18.702-18.698h31.165v-31.165l38.437 5.195v25.97h148.561v-25.97l38.441-5.195v31.165h31.161zM407.595 669.917c0-14.544-10.39-25.97-24.933-25.97-13.504 0-23.893 11.43-23.893 25.97 0 13.507 10.39 22.856 23.893 22.856 14.544 0 24.933-9.353 24.933-22.856zM359.805 600.311c41.555 10.39 97.653 18.702 151.678 18.702 55.058 0 111.16-7.272 150.634-18.702v-252.445h-302.312v252.445zM669.39 669.917c0-14.544-11.43-25.97-25.97-25.97-13.504 0-22.856 11.43-22.856 25.97 0 13.507 9.353 22.856 22.856 22.856 14.544 0 25.97-9.353 25.97-22.856z"></path>
		</svg>